<svg width="36" height="29" viewBox="0 0 36 29" fill="none" xmlns="http://www.w3.org/2000/svg">
<path d="M19.8011 7.26463C25.5055 7.26463 28.7403 11.0645 29.2101 15.6544H29.3541C30.2258 15.6532 31.0892 15.8249 31.895 16.1596C32.7008 16.4944 33.4332 16.9857 34.0504 17.6054C34.6675 18.2251 35.1573 18.9612 35.4919 19.7715C35.8264 20.5818 35.9991 21.4506 36 22.3281C35.9988 23.2054 35.826 24.074 35.4914 24.8841C35.1567 25.6942 34.6669 26.43 34.0497 27.0496C33.4326 27.6691 32.7003 28.1603 31.8946 28.4949C31.0889 28.8296 30.2257 29.0012 29.3541 29H10.248C9.37645 29.0012 8.51318 28.8296 7.7075 28.4949C6.90182 28.1603 6.16951 27.6691 5.55238 27.0496C4.93525 26.43 4.44539 25.6942 4.11076 24.8841C3.77613 24.074 3.60329 23.2054 3.60211 22.3281C3.60306 21.4506 3.77572 20.5818 4.11024 19.7715C4.44476 18.9612 4.93459 18.2251 5.55174 17.6054C6.1689 16.9857 6.90129 16.4944 7.70708 16.1596C8.51288 15.8249 9.3763 15.6532 10.248 15.6544H10.392C10.8654 11.0337 14.0984 7.26463 19.8011 7.26463ZM19.8011 9.97906C16.0731 9.97906 12.8221 12.9381 12.8221 17.0261C12.8221 17.673 12.2479 18.1821 11.5909 18.1821H10.3488C8.07892 18.1821 6.23743 19.996 6.23743 22.2339C6.23743 24.4717 8.07892 26.2856 10.3488 26.2856H29.2533C31.525 26.2856 33.3647 24.4735 33.3647 22.2339C33.3647 19.996 31.525 18.1821 29.2551 18.1821H28.0112C27.3542 18.1821 26.78 17.6748 26.78 17.0261C26.78 12.8856 23.529 9.97725 19.8011 9.97725V9.97906ZM4.25914 14.7936C4.38416 15.0973 4.39561 15.4363 4.29135 15.7478C4.18709 16.0594 3.9742 16.3223 3.69212 16.4879L3.52831 16.5694L1.85963 17.2653C1.54398 17.3948 1.19134 17.3993 0.872509 17.2779C0.553679 17.1565 0.29226 16.9183 0.140732 16.6109C-0.0107969 16.3035 -0.0412172 15.9498 0.0555772 15.6208C0.152372 15.2918 0.369215 15.0119 0.662577 14.8371L0.826385 14.7538L2.49506 14.0598C2.82568 13.9217 3.19723 13.9214 3.52804 14.0591C3.85884 14.1967 4.12181 14.4609 4.25914 14.7936ZM15.9363 6.03607L15.6267 6.14117C14.6905 6.47149 13.8056 6.93395 12.9985 7.5147C12.1318 7.2313 11.1991 7.22606 10.3293 7.49968C9.45951 7.77331 8.6957 8.31229 8.14355 9.04204C7.59139 9.77179 7.27818 10.6563 7.24725 11.573C7.21633 12.4898 7.46921 13.3936 7.97091 14.1594C7.09295 14.4073 6.26157 14.7991 5.5102 15.3191C4.68517 13.8917 4.37699 12.2205 4.63812 10.5901C4.89924 8.95963 5.71354 7.47065 6.94242 6.37651C8.17131 5.28237 9.73886 4.65068 11.3783 4.58895C13.0178 4.52721 14.6278 5.03923 15.9345 6.03789L15.9363 6.03607ZM1.68862 6.09225L1.87763 6.15567L3.54631 6.85149C3.85975 6.98375 4.1121 7.23015 4.25298 7.54149C4.39387 7.85283 4.41292 8.20621 4.30633 8.53107C4.19974 8.85593 3.97536 9.12837 3.67798 9.29399C3.3806 9.45962 3.03211 9.50626 2.70207 9.42458L2.51666 9.36478L0.847986 8.66896C0.534547 8.5367 0.282195 8.2903 0.141311 7.97896C0.00042684 7.66762 -0.0186231 7.31424 0.0879643 6.98938C0.194552 6.66452 0.418934 6.39208 0.716313 6.22646C1.01369 6.06083 1.36219 6.01419 1.69222 6.09587L1.68862 6.09225ZM8.55594 0.681512L8.63694 0.846407L9.32818 2.52616C9.45683 2.84391 9.46133 3.19889 9.34075 3.51984C9.22018 3.84079 8.98346 4.10394 8.67813 4.25648C8.37279 4.40901 8.02144 4.43963 7.6946 4.3422C7.36777 4.24476 7.08964 4.02648 6.91606 3.73117L6.83326 3.56627L6.14383 1.88651C6.01517 1.56876 6.01068 1.21378 6.13125 0.892837C6.25183 0.57189 6.48854 0.308736 6.79388 0.156201C7.09921 0.00366676 7.45057 -0.026956 7.7774 0.0704811C8.10424 0.167918 8.38236 0.386202 8.55594 0.681512ZM16.3935 0.103472C16.6924 0.228341 16.9367 0.457114 17.0821 0.748128C17.2275 1.03914 17.2642 1.37304 17.1855 1.689L17.1225 1.87927L16.4331 3.55902C16.3037 3.87756 16.0591 4.13483 15.7486 4.2789C15.4382 4.42297 15.085 4.44311 14.7603 4.33525C14.4357 4.22739 14.1638 3.99956 13.9995 3.69776C13.8352 3.39596 13.7908 3.04266 13.8752 2.70918L13.9382 2.5171L14.6294 0.839158C14.6972 0.67424 14.7967 0.524388 14.9221 0.398159C15.0474 0.27193 15.1963 0.171798 15.3601 0.103482C15.5239 0.0351648 15.6995 1.6314e-06 15.8768 0C16.0541 -1.63129e-06 16.2297 0.0351583 16.3935 0.103472Z" fill="#6C95FF"/>
</svg>
