<svg width="28" height="33" viewBox="0 0 28 33" fill="none" xmlns="http://www.w3.org/2000/svg">
<path d="M26.574 21.8453L22.4152 20.9876L24.9254 20.3123C25.1401 20.2543 25.3414 20.1542 25.5177 20.0178C25.6941 19.8815 25.842 19.7114 25.9532 19.5174C26.0643 19.3235 26.1364 19.1093 26.1654 18.8873C26.1944 18.6652 26.1796 18.4396 26.1221 18.2232C26.0645 18.0069 25.9652 17.8041 25.8298 17.6264C25.6945 17.4488 25.5257 17.2997 25.3332 17.1877C25.1406 17.0758 24.9281 17.0031 24.7077 16.9739C24.4873 16.9447 24.2633 16.9596 24.0486 17.0176L21.4961 17.7048C21.5587 17.3109 21.6163 16.9135 21.6163 16.5009C21.6163 16.0882 21.5587 15.6891 21.4961 15.2952L24.052 15.9841L24.4921 16.0421C24.9027 16.0419 25.2992 15.8913 25.6078 15.6184C25.9164 15.3455 26.116 14.9689 26.1694 14.5587C26.2228 14.1485 26.1264 13.7328 25.8982 13.3889C25.6699 13.045 25.3254 12.7964 24.9288 12.6894L22.4186 12.0124L26.574 11.1564C26.8509 11.0992 27.1104 10.9766 27.331 10.7986C27.5517 10.6206 27.7272 10.3924 27.8431 10.1326C27.959 9.8729 28.012 9.58914 27.9977 9.30473C27.9834 9.02032 27.9023 8.7434 27.761 8.49678C27.6196 8.25016 27.4222 8.0409 27.1848 7.88625C26.9475 7.7316 26.6771 7.63597 26.3959 7.60725C26.1147 7.57854 25.8307 7.61755 25.5674 7.72108C25.3041 7.82461 25.0689 7.98969 24.8814 8.20273L22.0665 11.3985L22.7402 8.87633C22.798 8.66 22.8129 8.43432 22.7841 8.21217C22.7554 7.99002 22.6834 7.77576 22.5725 7.58162C22.3484 7.18953 21.9789 6.90319 21.5452 6.7856C21.1116 6.66801 20.6493 6.72879 20.2601 6.95458C19.871 7.18036 19.5868 7.55266 19.47 7.98956L18.7811 10.5765C18.1622 10.0612 17.4657 9.64843 16.7178 9.35382L18.5831 7.47455C18.7403 7.31622 18.8649 7.12826 18.95 6.92139C19.035 6.71452 19.0788 6.4928 19.0788 6.26889C19.0788 6.04497 19.035 5.82325 18.95 5.61639C18.8649 5.40952 18.7403 5.22155 18.5831 5.06322C18.426 4.90489 18.2394 4.7793 18.0341 4.69361C17.8287 4.60792 17.6087 4.56382 17.3864 4.56382C17.1642 4.56382 16.9441 4.60792 16.7388 4.69361C16.5334 4.7793 16.3469 4.90489 16.1897 5.06322L14.3515 6.91521L15.6938 2.85823C15.7821 2.58847 15.8056 2.30145 15.7625 2.02074C15.7193 1.74003 15.6106 1.47364 15.4454 1.24346C15.2802 1.01328 15.0632 0.825874 14.8121 0.696631C14.561 0.567389 14.2831 0.5 14.0012 0.5C13.7192 0.5 13.4413 0.567389 13.1902 0.696631C12.9392 0.825874 12.7221 1.01328 12.5569 1.24346C12.3917 1.47364 12.283 1.74003 12.2398 2.02074C12.1967 2.30145 12.2202 2.58847 12.3085 2.85823L13.6508 6.91521L11.8126 5.06322C11.4952 4.74346 11.0647 4.56382 10.6159 4.56382C10.1671 4.56382 9.7366 4.74346 9.41921 5.06322C9.10183 5.38298 8.92353 5.81667 8.92353 6.26889C8.92353 6.7211 9.10183 7.15479 9.41921 7.47455L11.2845 9.35382C10.5372 9.64949 9.84081 10.0621 9.22118 10.5765L8.53566 7.99297C8.48133 7.77334 8.38415 7.56681 8.24977 7.38541C8.1154 7.20401 7.94653 7.05138 7.75301 6.93641C7.55948 6.82144 7.34518 6.74644 7.12259 6.71577C6.89999 6.68511 6.67357 6.6994 6.45652 6.7578C6.23946 6.81621 6.03612 6.91756 5.85835 7.05596C5.68057 7.19436 5.53192 7.36703 5.42106 7.5639C5.3102 7.76077 5.23936 7.97791 5.21265 8.20265C5.18594 8.4274 5.20391 8.65525 5.2655 8.87292L5.93579 11.4053L3.12264 8.20443C2.90211 7.95614 2.6176 7.77428 2.30069 7.67906C1.98378 7.58384 1.64687 7.57897 1.32738 7.66501C1.00789 7.75105 0.718323 7.92462 0.49083 8.16644C0.263338 8.40827 0.106824 8.70889 0.0386691 9.03493C-0.159368 10.007 0.463519 10.9585 1.43001 11.1581L5.58372 12.0158L3.07863 12.6911C2.68198 12.7981 2.33745 13.0467 2.10921 13.3906C1.88096 13.7345 1.78458 14.1502 1.83801 14.5604C1.89143 14.9706 2.09103 15.3472 2.39961 15.6201C2.70819 15.893 3.10472 16.0436 3.51533 16.0438L3.95541 15.9858L6.50789 15.2969C6.43325 15.694 6.39192 16.0967 6.38433 16.5009C6.38433 16.9135 6.44188 17.3109 6.50451 17.7065L3.95203 17.0176C3.7373 16.9596 3.51335 16.9447 3.29294 16.9739C3.07253 17.0031 2.85999 17.0758 2.66745 17.1877C2.47491 17.2997 2.30614 17.4488 2.17078 17.6264C2.03543 17.8041 1.93613 18.0069 1.87856 18.2232C1.82099 18.4396 1.80627 18.6652 1.83525 18.8873C1.86424 19.1093 1.93635 19.3235 2.04747 19.5174C2.15859 19.7114 2.30655 19.8815 2.4829 20.0178C2.65924 20.1542 2.86052 20.2543 3.07524 20.3123L5.58541 20.9893L1.43001 21.8453C1.10473 21.9112 0.804168 22.0672 0.562223 22.296C0.320278 22.5247 0.14657 22.817 0.0606894 23.1398C-0.0251916 23.4627 -0.0198307 23.8033 0.0761681 24.1233C0.172167 24.4433 0.354985 24.7299 0.604007 24.9507C0.779168 25.1076 0.983316 25.2281 1.20477 25.3054C1.42622 25.3827 1.66062 25.4152 1.89457 25.4011C2.12851 25.387 2.3574 25.3266 2.56812 25.2233C2.77885 25.12 2.96729 24.9758 3.12264 24.799L5.94086 21.5964L5.2672 24.1271C5.2096 24.3434 5.19487 24.5691 5.22384 24.7911C5.25281 25.0132 5.32491 25.2273 5.43604 25.4213C5.54717 25.6153 5.69514 25.7854 5.87149 25.9217C6.04785 26.0581 6.24915 26.1581 6.46389 26.2161L6.90397 26.2741C7.27627 26.2738 7.63807 26.1498 7.93335 25.9213C8.22864 25.6929 8.44093 25.3727 8.53736 25.0104L9.22456 22.4269C9.84406 22.9351 10.5296 23.3546 11.2896 23.6479L9.42091 25.5271C9.26376 25.6855 9.1391 25.8734 9.05405 26.0803C8.969 26.2872 8.92522 26.5089 8.92522 26.7328C8.92522 26.9567 8.969 27.1784 9.05405 27.3853C9.1391 27.5922 9.26376 27.7802 9.42091 27.9385C9.73829 28.2582 10.1687 28.4379 10.6176 28.4379C10.8398 28.4379 11.0599 28.3938 11.2652 28.3081C11.4706 28.2224 11.6571 28.0968 11.8143 27.9385L13.0093 26.7328H13.4358L12.3085 30.1418C12.2202 30.4115 12.1967 30.6986 12.2398 30.9793C12.283 31.26 12.3917 31.5264 12.5569 31.7565C12.7221 31.9867 12.9392 32.1741 13.1902 32.3034C13.4413 32.4326 13.7192 32.5 14.0012 32.5C14.2831 32.5 14.561 32.4326 14.8121 32.3034C15.0632 32.1741 15.2802 31.9867 15.4454 31.7565C15.6106 31.5264 15.7193 31.26 15.7625 30.9793C15.8056 30.6986 15.7821 30.4115 15.6938 30.1418L14.5665 26.7328H14.993L16.1897 27.9385C16.5071 28.2582 16.9376 28.4379 17.3864 28.4379C17.8353 28.4379 18.2657 28.2582 18.5831 27.9385C18.9005 27.6187 19.0788 27.185 19.0788 26.7328C19.0788 26.2806 18.9005 25.8469 18.5831 25.5271L16.7178 23.6462C17.4665 23.3522 18.1637 22.9394 18.7828 22.4235L19.47 25.0104C19.5665 25.3727 19.7788 25.6929 20.074 25.9213C20.3693 26.1498 20.7311 26.2738 21.1034 26.2741L21.5435 26.2161C21.7582 26.1581 21.9595 26.0581 22.1359 25.9217C22.3123 25.7854 22.4602 25.6153 22.5714 25.4213C22.6825 25.2273 22.7546 25.0132 22.7836 24.7911C22.8125 24.5691 22.7978 24.3434 22.7402 24.1271L22.0682 21.6032L24.8814 24.799C25.0689 25.012 25.3041 25.1771 25.5674 25.2806C25.8307 25.3841 26.1147 25.4232 26.3959 25.3944C26.6771 25.3657 26.9475 25.2701 27.1848 25.1155C27.4222 24.9608 27.6196 24.7515 27.761 24.5049C27.9023 24.2583 27.9834 23.9814 27.9977 23.697C28.012 23.4126 27.959 23.1288 27.8431 22.8691C27.7272 22.6094 27.5517 22.3811 27.331 22.2031C27.1104 22.0251 26.8509 21.9025 26.574 21.8453ZM14.0012 20.7642C11.667 20.7642 9.76959 18.8525 9.76959 16.5009C9.76959 14.1492 11.667 12.2375 14.0012 12.2375C16.3353 12.2375 18.2327 14.1492 18.2327 16.5009C18.2327 18.8525 16.3353 20.7642 14.0012 20.7642Z" fill="#06E3C4"/>
</svg>
