<svg width="129" height="141" viewBox="0 0 129 141" fill="none" xmlns="http://www.w3.org/2000/svg">
<g clip-path="url(#clip0_752_1069)" filter="url(#filter0_d_752_1069)">
<path d="M118.54 62.0764C118.296 62.9522 117.445 63.5186 116.595 64.12C114.741 65.4221 112.537 66.3972 110.296 67.2672C94.5993 73.3573 75.362 74.5134 59.3309 68.9606C56.5729 68.003 53.8986 66.841 51.6269 65.2878C50.7303 64.6747 48.451 63.2617 48.2231 62.2924C47.942 61.1538 51.0722 61.4166 52.0903 61.2297C52.2043 61.2064 52.3258 61.1889 52.4398 61.1655C54.2177 60.8502 56.0411 60.6575 57.8569 60.529C70.0664 59.6415 82.519 61.4458 94.5765 59.6999C100.427 58.8533 106.216 57.1658 112.142 57.5804C113.745 57.6913 115.379 57.9716 116.67 58.7073C116.769 58.7657 116.86 58.8182 116.952 58.8883C118.091 59.659 118.843 60.9553 118.532 62.0705L118.54 62.0764Z" fill="#75B8EB"/>
<g style="mix-blend-mode:multiply" opacity="0.5">
<path d="M118.54 62.0765C118.296 62.9523 117.445 63.5187 116.595 64.1201C114.741 65.4222 112.537 66.3974 110.296 67.2674C94.5993 73.3574 75.362 74.5136 59.3309 68.9607C56.5729 68.0031 53.8986 66.8411 51.6269 65.2879C50.7303 64.6749 48.451 63.2618 48.2231 62.2925C47.942 61.1539 51.0722 61.4167 52.0903 61.2298C52.2043 61.2065 52.3258 61.189 52.4398 61.1656C53.0096 61.2415 53.5795 61.3116 54.1189 61.3583C56.8996 61.6094 59.6728 61.8488 62.4459 62.0765C65.5686 62.3334 68.6912 62.5728 71.8215 62.783C86.9636 63.799 102.873 64.0618 116.587 59.0227C116.708 58.9818 116.83 58.9351 116.959 58.8826C118.099 59.6533 118.851 60.9496 118.54 62.0648V62.0765Z" fill="#75B8EB"/>
</g>
<path d="M118.585 61.7903L117.316 75.5762L113.442 117.576C113.229 119.9 111.193 121.885 108.313 122.615C86.8117 128.086 68.0835 124.992 58.3433 122.469C55.4941 121.728 53.5112 119.748 53.306 117.448L48.6866 67.3548L48.2156 62.2983C49.9326 62.4501 51.6573 62.7946 53.3592 62.9347C56.5654 63.1858 59.7944 63.3026 62.993 63.5011C69.0256 63.8748 75.0353 64.4529 81.0755 64.6514C92.1757 65.0134 103.428 64.6164 114.285 62.6545C115.728 62.3917 117.157 62.1056 118.578 61.7903H118.585Z" fill="#68CEFF"/>
<g style="mix-blend-mode:multiply" opacity="0.5">
<path d="M117.316 75.5763L113.441 117.576C113.229 119.9 111.193 121.885 108.313 122.615C86.8116 128.086 68.0834 124.992 58.3432 122.469C55.494 121.728 53.511 119.748 53.3059 117.448L48.6865 67.355C50.6695 73.2932 52.2498 79.3132 53.4047 85.38C54.3392 90.2789 55.0154 95.2187 56.6793 100.001C58.3508 104.777 61.0935 109.454 65.6293 112.969C70.1575 116.484 76.6687 118.703 83.0508 118.055C87.9893 117.553 92.4567 115.404 95.8984 112.636C99.3402 109.869 101.87 106.511 104.142 103.107C109.969 94.3895 114.399 85.123 117.316 75.5821V75.5763Z" fill="#68CEFF"/>
</g>
<g style="mix-blend-mode:screen" opacity="0.5">
<path d="M89.0834 66.4439C81.0907 66.4789 73.1207 65.9009 65.1812 65.1827C62.446 64.9375 59.6653 64.6689 56.9529 65.0426C55.6385 65.2236 54.2861 65.5856 53.4124 66.3622C52.5007 67.168 52.2348 68.3124 52.4171 69.3693C52.607 70.4261 53.1997 71.4129 53.8607 72.353C56.5426 76.1775 60.4858 79.5933 65.5839 81.4793C69.603 82.9683 74.1236 83.4412 78.5835 83.6164C82.4431 83.7624 86.3863 83.6865 90.0711 82.7989C94.6145 81.7012 98.5197 79.4182 102.007 76.9191C105.494 74.42 108.655 71.6581 112.31 69.305C113.312 68.6627 114.368 68.0321 115.045 67.1738C115.569 66.5198 116.351 64.2251 114.596 64.2251C113.647 64.2251 112.553 64.5521 111.618 64.6981C110.608 64.8499 109.59 64.9958 108.571 65.1301C104.423 65.6732 100.244 66.0527 96.0505 66.2629C93.7332 66.3797 91.4159 66.4381 89.091 66.4498L89.0834 66.4439Z" fill="#9CF1FF"/>
</g>
<g style="mix-blend-mode:screen" opacity="0.5">
<path d="M67.3998 66.485C65.0217 66.2806 62.5449 66.0704 60.2807 66.666C59.6957 66.8236 59.0499 67.1156 59.0043 67.5885C58.9588 68.079 59.5742 68.4469 60.1288 68.6921C64.543 70.6598 69.6259 71.6408 74.7163 71.8919C79.8068 72.1429 84.9276 71.6817 89.9268 70.9051C92.5936 70.4905 95.2832 69.9708 97.6765 68.9549C98.2767 68.6979 99.6063 68.1082 98.5198 67.6586C97.6233 67.2907 96.3697 67.4484 95.4124 67.4951C89.4026 67.7812 83.3777 67.6119 77.3831 67.244C74.0477 67.0397 70.7199 66.7711 67.3998 66.4791V66.485Z" fill="#9CF1FF"/>
</g>
<g style="mix-blend-mode:screen" opacity="0.5">
<path d="M102.319 67.2265C101.992 67.3316 101.665 67.4601 101.437 67.6703C101.209 67.8805 101.103 68.19 101.27 68.4294C101.483 68.733 102.007 68.8031 102.455 68.8206C103.101 68.8439 103.755 68.8439 104.408 68.8147C105.51 68.7622 106.611 68.6279 107.645 68.3359C108.252 68.1666 109.848 67.7287 110 67.1565C110.243 66.193 106.87 66.4266 106.247 66.485C104.909 66.6134 103.565 66.8236 102.319 67.2324V67.2265Z" fill="#9CF1FF"/>
</g>
<path opacity="0.19" d="M83.1648 1.45703C61.8762 1.45703 44.6143 5.29356 44.6143 10.0261C44.6143 10.1103 44.6143 10.1945 44.6295 10.2711L51.7485 118.812L52.1587 124.977C52.1587 124.977 52.5462 128.805 54.3697 129.985C54.4836 130.069 54.6128 130.13 54.7419 130.184C55.8892 130.651 71.2897 132.496 83.1724 132.259C95.0552 132.496 110.463 130.651 111.603 130.184C111.914 130.061 112.188 129.862 112.431 129.609C113.867 128.147 114.194 124.969 114.194 124.969L114.566 119.287L121.7 10.2711C121.715 10.1869 121.715 10.1026 121.715 10.0261C121.723 5.29356 104.461 1.45703 83.1648 1.45703Z" fill="#9CCAFF"/>
<path opacity="0.33" d="M121.654 11.0598L114.642 118L114.558 119.294L114.186 124.976C114.186 124.976 114.186 124.992 114.186 125.015C114.186 125.03 114.186 125.045 114.186 125.061C114.186 125.084 114.186 125.099 114.186 125.13C114.186 125.153 114.186 125.183 114.171 125.221C114.171 125.244 114.171 125.275 114.156 125.306C114.156 125.352 114.14 125.39 114.133 125.444C114.133 125.474 114.118 125.512 114.118 125.551C114.118 125.604 114.102 125.666 114.087 125.727C114.087 125.765 114.072 125.803 114.072 125.842C114.057 125.911 114.049 125.972 114.026 126.049C114.026 126.071 114.011 126.102 114.011 126.133C113.981 126.286 113.935 126.447 113.897 126.615C113.897 126.661 113.882 126.707 113.867 126.753C113.852 126.83 113.821 126.899 113.799 126.983C113.799 127.006 113.783 127.036 113.776 127.067C113.776 127.098 113.761 127.128 113.753 127.159C113.73 127.235 113.707 127.304 113.677 127.389C113.654 127.45 113.631 127.511 113.609 127.58C113.586 127.657 113.555 127.726 113.525 127.794C113.495 127.863 113.472 127.932 113.441 128.009C113.419 128.078 113.388 128.147 113.358 128.216L113.244 128.438C113.213 128.499 113.191 128.553 113.16 128.622C113.092 128.752 113.016 128.874 112.94 128.997C112.925 129.02 112.91 129.043 112.894 129.066C112.826 129.165 112.75 129.265 112.682 129.349C112.651 129.387 112.621 129.426 112.59 129.456C112.537 129.51 112.499 129.571 112.446 129.617V129.602C112.203 129.847 111.937 130.061 111.618 130.184C110.478 130.651 95.0703 132.496 83.1875 132.259C71.3047 132.496 55.9043 130.651 54.757 130.184C54.3999 130.038 54.0884 129.785 53.8225 129.479C53.8073 129.464 53.7769 129.433 53.7617 129.418C53.6934 129.334 53.6326 129.242 53.5642 129.158C53.5414 129.119 53.5186 129.089 53.4958 129.058C53.435 128.974 53.3818 128.874 53.3211 128.782C53.3059 128.736 53.2755 128.698 53.2527 128.667C53.2071 128.576 53.1539 128.476 53.1083 128.384C53.0931 128.338 53.0703 128.3 53.0476 128.254C53.002 128.154 52.964 128.055 52.926 127.955C52.9108 127.909 52.888 127.871 52.8728 127.825L52.7588 127.526C52.7436 127.481 52.7284 127.435 52.7133 127.389C52.6753 127.289 52.6449 127.19 52.6221 127.098C52.6069 127.052 52.5917 127.006 52.5765 126.96C52.5613 126.914 52.5537 126.868 52.5385 126.822C52.5233 126.768 52.5081 126.715 52.5005 126.676C52.4853 126.638 52.4777 126.592 52.4625 126.554C52.4473 126.462 52.4169 126.37 52.4018 126.286C52.4018 126.248 52.3866 126.209 52.379 126.171C52.3638 126.087 52.341 126.003 52.3334 125.926C52.3182 125.888 52.3182 125.857 52.3106 125.826C52.2954 125.75 52.2878 125.681 52.2726 125.612C52.2726 125.581 52.2574 125.558 52.2574 125.528C52.2422 125.467 52.2346 125.405 52.227 125.352C52.227 125.321 52.227 125.306 52.2118 125.275C52.2118 125.229 52.1966 125.183 52.1966 125.145C52.1966 125.122 52.1966 125.107 52.1966 125.084C52.1966 125.068 52.1966 125.038 52.1966 125.022C52.1966 124.992 52.1966 124.976 52.1966 124.976L51.7863 118.812L51.7104 117.671L44.6445 10.562C44.7585 10.9219 44.9256 11.2665 45.1536 11.5728C45.1764 11.5958 45.1992 11.6264 45.2296 11.6571L45.2447 11.6724C45.4423 11.8868 45.6474 12.0859 45.845 12.3003C45.845 12.3003 45.845 12.3003 45.8602 12.3156C45.8602 12.3156 45.8754 12.3156 45.8754 12.331C45.8905 12.331 45.9817 12.3922 46.0957 12.4688L53.3059 114.891C53.5186 117.908 55.5016 120.504 58.3431 121.477C68.0833 124.785 86.8116 128.844 108.313 121.668C111.193 120.711 113.221 118.107 113.441 115.06L120.705 11.8026C120.986 11.6418 121.259 11.458 121.487 11.2129C121.541 11.167 121.601 11.1134 121.654 11.0674V11.0598Z" fill="#A7C0FF"/>
<path opacity="0.33" d="M78.4389 128.889C77.4132 129.571 76.1292 129.663 74.906 129.716C69.9979 129.916 65.0746 129.755 60.1893 129.242C57.9708 129.004 55.6991 128.683 53.7313 127.618C53.3058 127.389 52.9031 127.12 52.5156 126.829C52.5005 126.776 52.4853 126.722 52.4777 126.684C52.4625 126.646 52.4549 126.6 52.4397 126.561C52.4245 126.47 52.3941 126.378 52.3789 126.293C52.3789 126.255 52.3637 126.217 52.3561 126.179C52.3409 126.094 52.3181 126.01 52.3105 125.934C52.2953 125.895 52.2953 125.865 52.2877 125.834C52.2725 125.757 52.2649 125.688 52.2497 125.62C52.2497 125.589 52.2345 125.566 52.2345 125.535C52.2193 125.474 52.2117 125.413 52.2041 125.359C52.2041 125.329 52.2041 125.313 52.1889 125.283C52.1889 125.237 52.1738 125.191 52.1738 125.152C52.1738 125.129 52.1738 125.114 52.1738 125.091C52.1738 125.076 52.1738 125.045 52.1738 125.03C52.1738 124.999 52.1738 124.984 52.1738 124.984L51.7635 118.819L51.6875 117.678C51.9534 117.992 52.2269 118.291 52.5232 118.582C55.152 121.216 58.5406 123.001 62.0279 124.195C67.012 125.911 72.2924 126.569 77.398 127.879C77.9222 128.016 78.568 128.361 78.4465 128.889H78.4389Z" fill="#A7FFFF"/>
<path opacity="0.33" d="M114.642 118L114.558 119.294L114.186 124.976C114.186 124.976 114.186 124.992 114.186 125.015C114.186 125.03 114.186 125.045 114.186 125.061C114.186 125.084 114.186 125.099 114.186 125.13C114.186 125.153 114.186 125.183 114.171 125.221C114.171 125.244 114.171 125.275 114.156 125.306C114.156 125.352 114.14 125.39 114.133 125.444C114.133 125.474 114.118 125.512 114.118 125.551C114.118 125.604 114.102 125.666 114.087 125.727C114.087 125.765 114.072 125.803 114.072 125.842C114.057 125.911 114.049 125.972 114.026 126.049C114.026 126.072 114.011 126.102 114.011 126.133C113.981 126.286 113.935 126.447 113.897 126.615C113.897 126.661 113.882 126.707 113.867 126.753C113.852 126.83 113.821 126.899 113.798 126.983C113.798 127.006 113.783 127.036 113.776 127.067C113.495 127.266 113.206 127.45 112.902 127.611C110.934 128.683 108.662 129.004 106.444 129.234C101.559 129.74 96.6353 129.908 91.7196 129.709C90.4964 129.663 89.2124 129.563 88.1867 128.882C88.0575 128.354 88.7109 128.009 89.2352 127.871C94.3408 126.562 99.6212 125.903 104.605 124.188C108.085 122.985 111.474 121.209 114.11 118.575C114.292 118.391 114.482 118.199 114.657 118H114.642Z" fill="#A7FFFF"/>
<path d="M121.723 10.0261C121.723 10.1103 121.723 10.1945 121.708 10.2711C121.123 14.8887 104.096 18.6027 83.1724 18.6027C62.2484 18.6027 45.2145 14.8964 44.6295 10.2711C44.6143 10.1869 44.6143 10.1026 44.6143 10.0261C44.6143 5.29356 61.8762 1.45703 83.1648 1.45703C104.453 1.45703 121.715 5.29356 121.715 10.0261H121.723Z" stroke="white" stroke-width="0.81" stroke-miterlimit="10"/>
<path d="M83.1648 1.45703C61.8762 1.45703 44.6143 5.29356 44.6143 10.0261C44.6143 10.1103 44.6143 10.1945 44.6295 10.2711L51.7485 118.812L52.1587 124.976C52.1587 124.976 52.5462 128.805 54.3697 129.985C54.4836 130.069 54.6128 130.13 54.7419 130.184C55.8892 130.651 71.2897 132.496 83.1724 132.259C95.0552 132.496 110.463 130.651 111.603 130.184C111.914 130.061 112.188 129.862 112.431 129.609C113.867 128.147 114.194 124.969 114.194 124.969L114.566 119.287L121.7 10.2711C121.715 10.1869 121.715 10.1026 121.715 10.0261C121.723 5.29356 104.461 1.45703 83.1648 1.45703Z" stroke="white" stroke-width="0.81" stroke-miterlimit="10"/>
<path opacity="0.19" d="M118.015 13.6942L112.234 118.644C111.322 120.037 109.954 121.117 108.313 121.661C105.464 122.61 102.653 123.368 99.9102 123.95L104.811 17.1172C115.934 16.7573 118.015 13.6865 118.015 13.6865V13.6942Z" fill="#9CCAFF"/>
<path opacity="0.19" d="M66.3437 123.705C64.2391 123.231 62.3245 122.718 60.6151 122.197C59.8173 121.952 59.0575 121.714 58.3509 121.469C58.0394 121.362 57.7507 121.24 57.462 121.094L49.7124 14.2915L53.7316 15.2794L60.7138 17.0023L66.3437 123.713V123.705Z" fill="#9CCAFF"/>
<path opacity="0.19" d="M60.6151 122.197C59.8173 121.952 59.0575 121.714 58.3509 121.469C58.0394 121.362 57.7507 121.24 57.462 121.094L49.7124 14.2915L53.7316 15.2794C54.1039 19.315 58.9512 95.2798 60.6151 122.197Z" fill="#9CCAFF"/>
</g>
<line x1="13.2131" y1="16.0991" x2="34.9759" y2="16.0991" stroke="#1A1B1C" stroke-width="2"/>
<line x1="13.2131" y1="27.7578" x2="34.9759" y2="27.7578" stroke="#1A1B1C" stroke-width="2"/>
<line x1="13.2131" y1="39.4165" x2="34.9759" y2="39.4165" stroke="#1A1B1C" stroke-width="2"/>
<line x1="13.2131" y1="51.075" x2="34.9759" y2="51.075" stroke="#1A1B1C" stroke-width="2"/>
<line x1="13.2131" y1="62.7336" x2="34.9759" y2="62.7336" stroke="#1A1B1C" stroke-width="2"/>
<line x1="13.2131" y1="74.3923" x2="34.9759" y2="74.3923" stroke="#1A1B1C" stroke-width="2"/>
<line x1="13.2131" y1="86.051" x2="34.9759" y2="86.051" stroke="#1A1B1C" stroke-width="2"/>
<line x1="13.2131" y1="97.7095" x2="34.9759" y2="97.7095" stroke="#1A1B1C" stroke-width="2"/>
<line x1="13.2131" y1="109.368" x2="34.9759" y2="109.368" stroke="#1A1B1C" stroke-width="2"/>
<line x1="13.2131" y1="121.027" x2="34.9759" y2="121.027" stroke="#1A1B1C" stroke-width="2"/>
<path d="M7.83541 118.559V117.519H9.91541V124.809H8.76541V118.559H7.83541Z" fill="#1A1B1C"/>
<path d="M6.34002 112.377C6.98002 111.824 7.48335 111.371 7.85002 111.017C8.22335 110.657 8.53335 110.284 8.78002 109.897C9.02669 109.511 9.15002 109.124 9.15002 108.737C9.15002 108.337 9.05335 108.024 8.86002 107.797C8.67335 107.571 8.37669 107.457 7.97002 107.457C7.57669 107.457 7.27002 107.584 7.05002 107.837C6.83669 108.084 6.72335 108.417 6.71002 108.837H5.61002C5.63002 108.077 5.85669 107.497 6.29002 107.097C6.73002 106.691 7.28669 106.487 7.96002 106.487C8.68669 106.487 9.25335 106.687 9.66002 107.087C10.0734 107.487 10.28 108.021 10.28 108.687C10.28 109.167 10.1567 109.631 9.91002 110.077C9.67002 110.517 9.38002 110.914 9.04002 111.267C8.70669 111.614 8.28002 112.017 7.76002 112.477L7.31002 112.877H10.48V113.827H5.62002V112.997L6.34002 112.377Z" fill="#1A1B1C"/>
<path d="M5.52401 97.5561C5.56401 96.9361 5.80067 96.4528 6.23401 96.1061C6.67401 95.7595 7.23401 95.5861 7.91401 95.5861C8.38067 95.5861 8.78401 95.6695 9.12401 95.8361C9.46401 96.0028 9.72067 96.2295 9.89401 96.5161C10.0673 96.8028 10.154 97.1261 10.154 97.4861C10.154 97.8995 10.044 98.2528 9.82401 98.5461C9.60401 98.8395 9.34067 99.0361 9.03401 99.1361V99.1761C9.42734 99.2961 9.73401 99.5161 9.95401 99.8361C10.174 100.149 10.284 100.553 10.284 101.046C10.284 101.439 10.194 101.789 10.014 102.096C9.83401 102.403 9.56734 102.646 9.21401 102.826C8.86067 102.999 8.43734 103.086 7.94401 103.086C7.22401 103.086 6.63067 102.903 6.16401 102.536C5.70401 102.163 5.45734 101.629 5.42401 100.936H6.52401C6.55067 101.289 6.68734 101.579 6.93401 101.806C7.18067 102.026 7.51401 102.136 7.93401 102.136C8.34067 102.136 8.65401 102.026 8.87401 101.806C9.09401 101.579 9.20401 101.289 9.20401 100.936C9.20401 100.469 9.05401 100.139 8.75401 99.9461C8.46067 99.7461 8.00734 99.6461 7.39401 99.6461H7.13401V98.7061H7.40401C7.94401 98.6995 8.35401 98.6095 8.63401 98.4361C8.92067 98.2628 9.06401 97.9895 9.06401 97.6161C9.06401 97.2961 8.96067 97.0428 8.75401 96.8561C8.54734 96.6628 8.25401 96.5661 7.87401 96.5661C7.50067 96.5661 7.21067 96.6628 7.00401 96.8561C6.79734 97.0428 6.67401 97.2761 6.63401 97.5561H5.52401Z" fill="#1A1B1C"/>
<path d="M4.8669 88.3133V87.4533L8.2269 82.6333H9.6069V87.3233H10.5369V88.3133H9.6069V89.8333H8.4869V88.3133H4.8669ZM8.5369 83.7933L6.1769 87.3233H8.5369V83.7933Z" fill="#1A1B1C"/>
<path d="M9.79479 72.6417H6.44479V74.6317C6.58479 74.445 6.79145 74.2883 7.06479 74.1617C7.34479 74.035 7.64145 73.9717 7.95479 73.9717C8.51479 73.9717 8.96812 74.0917 9.31479 74.3317C9.66812 74.5717 9.91812 74.875 10.0648 75.2417C10.2181 75.6083 10.2948 75.995 10.2948 76.4017C10.2948 76.895 10.1981 77.335 10.0048 77.7217C9.81812 78.1017 9.53479 78.4017 9.15479 78.6217C8.78145 78.8417 8.32145 78.9517 7.77479 78.9517C7.04812 78.9517 6.46479 78.7717 6.02479 78.4117C5.58479 78.0517 5.32145 77.575 5.23479 76.9817H6.34479C6.41812 77.295 6.58145 77.545 6.83479 77.7317C7.08812 77.9117 7.40479 78.0017 7.78479 78.0017C8.25812 78.0017 8.61145 77.8583 8.84479 77.5717C9.08479 77.285 9.20479 76.905 9.20479 76.4317C9.20479 75.9517 9.08479 75.585 8.84479 75.3317C8.60479 75.0717 8.25145 74.9417 7.78479 74.9417C7.45812 74.9417 7.18145 75.025 6.95479 75.1917C6.73479 75.3517 6.57479 75.5717 6.47479 75.8517H5.39479V71.6417H9.79479V72.6417Z" fill="#1A1B1C"/>
<path d="M8.98549 60.9159C8.91216 60.6092 8.77882 60.3792 8.58549 60.2259C8.39216 60.0725 8.12216 59.9959 7.77549 59.9959C7.24882 59.9959 6.85549 60.1992 6.59549 60.6059C6.33549 61.0059 6.19882 61.6725 6.18549 62.6059C6.35882 62.3125 6.61216 62.0859 6.94549 61.9259C7.27882 61.7659 7.63882 61.6859 8.02549 61.6859C8.46549 61.6859 8.85216 61.7825 9.18549 61.9759C9.52549 62.1625 9.78882 62.4359 9.97549 62.7959C10.1688 63.1559 10.2655 63.5859 10.2655 64.0859C10.2655 64.5525 10.1722 64.9692 9.98549 65.3359C9.80549 65.7025 9.53549 65.9925 9.17549 66.2059C8.81549 66.4125 8.38216 66.5159 7.87549 66.5159C7.18882 66.5159 6.64882 66.3659 6.25549 66.0659C5.86882 65.7592 5.59549 65.3292 5.43549 64.7759C5.28216 64.2225 5.20549 63.5325 5.20549 62.7059C5.20549 60.2659 6.06549 59.0459 7.78549 59.0459C8.45216 59.0459 8.97549 59.2259 9.35549 59.5859C9.74216 59.9459 9.96882 60.3892 10.0355 60.9159H8.98549ZM7.77549 62.6459C7.36882 62.6459 7.02216 62.7692 6.73549 63.0159C6.45549 63.2559 6.31549 63.6059 6.31549 64.0659C6.31549 64.5259 6.44549 64.8925 6.70549 65.1659C6.97216 65.4325 7.34216 65.5659 7.81549 65.5659C8.23549 65.5659 8.56549 65.4359 8.80549 65.1759C9.05216 64.9159 9.17549 64.5692 9.17549 64.1359C9.17549 63.6825 9.05549 63.3225 8.81549 63.0559C8.58216 62.7825 8.23549 62.6459 7.77549 62.6459Z" fill="#1A1B1C"/>
<path d="M10.5058 49.2245L7.7258 55.6345H6.5758L9.3858 49.3445H5.6858V48.3745H10.5058V49.2245Z" fill="#1A1B1C"/>
<path d="M6.33455 40.1658C5.64122 39.8192 5.29455 39.2725 5.29455 38.5258C5.29455 38.1658 5.38455 37.8358 5.56455 37.5358C5.74455 37.2358 6.01455 36.9992 6.37455 36.8258C6.73455 36.6458 7.17455 36.5558 7.69455 36.5558C8.20789 36.5558 8.64455 36.6458 9.00455 36.8258C9.37122 36.9992 9.64455 37.2358 9.82455 37.5358C10.0046 37.8358 10.0946 38.1658 10.0946 38.5258C10.0946 38.8992 9.99789 39.2292 9.80455 39.5158C9.61789 39.7958 9.36789 40.0125 9.05455 40.1658C9.43455 40.3058 9.73455 40.5358 9.95455 40.8558C10.1746 41.1692 10.2846 41.5392 10.2846 41.9658C10.2846 42.3992 10.1746 42.7825 9.95455 43.1158C9.73455 43.4492 9.42789 43.7058 9.03455 43.8858C8.64122 44.0658 8.19455 44.1558 7.69455 44.1558C7.19455 44.1558 6.74789 44.0658 6.35455 43.8858C5.96789 43.7058 5.66455 43.4492 5.44455 43.1158C5.22455 42.7825 5.11455 42.3992 5.11455 41.9658C5.11455 41.5325 5.22455 41.1592 5.44455 40.8458C5.66455 40.5325 5.96122 40.3058 6.33455 40.1658ZM9.00455 38.6658C9.00455 38.2925 8.88789 38.0058 8.65455 37.8058C8.42122 37.6058 8.10122 37.5058 7.69455 37.5058C7.29455 37.5058 6.97789 37.6058 6.74455 37.8058C6.51122 38.0058 6.39455 38.2958 6.39455 38.6758C6.39455 39.0092 6.51455 39.2825 6.75455 39.4958C7.00122 39.7025 7.31455 39.8058 7.69455 39.8058C8.07455 39.8058 8.38789 39.6992 8.63455 39.4858C8.88122 39.2725 9.00455 38.9992 9.00455 38.6658ZM7.69455 40.6658C7.25455 40.6658 6.89455 40.7758 6.61455 40.9958C6.34122 41.2092 6.20455 41.5192 6.20455 41.9258C6.20455 42.3058 6.33789 42.6158 6.60455 42.8558C6.87122 43.0892 7.23455 43.2058 7.69455 43.2058C8.14789 43.2058 8.50455 43.0858 8.76455 42.8458C9.03122 42.6058 9.16455 42.2992 9.16455 41.9258C9.16455 41.5258 9.02789 41.2158 8.75455 40.9958C8.48789 40.7758 8.13455 40.6658 7.69455 40.6658Z" fill="#1A1B1C"/>
<path d="M6.55385 30.3371C6.62052 30.6705 6.76385 30.9238 6.98385 31.0971C7.20385 31.2705 7.50052 31.3571 7.87385 31.3571C8.34718 31.3571 8.69385 31.1705 8.91385 30.7971C9.13385 30.4238 9.24385 29.7871 9.24385 28.8871C9.08385 29.1138 8.85718 29.2905 8.56385 29.4171C8.27718 29.5371 7.96385 29.5971 7.62385 29.5971C7.19052 29.5971 6.79718 29.5105 6.44385 29.3371C6.09052 29.1571 5.81052 28.8938 5.60385 28.5471C5.40385 28.1938 5.30385 27.7671 5.30385 27.2671C5.30385 26.5338 5.51718 25.9505 5.94385 25.5171C6.37718 25.0771 6.97052 24.8571 7.72385 24.8571C8.63052 24.8571 9.27385 25.1605 9.65385 25.7671C10.0405 26.3671 10.2338 27.2905 10.2338 28.5371C10.2338 29.3971 10.1605 30.1005 10.0138 30.6471C9.87385 31.1938 9.62718 31.6071 9.27385 31.8871C8.92052 32.1671 8.43052 32.3071 7.80385 32.3071C7.09052 32.3071 6.54052 32.1205 6.15385 31.7471C5.76718 31.3738 5.55052 30.9038 5.50385 30.3371H6.55385ZM7.82385 28.6371C8.22385 28.6371 8.53718 28.5138 8.76385 28.2671C8.99718 28.0138 9.11385 27.6805 9.11385 27.2671C9.11385 26.8071 8.99052 26.4505 8.74385 26.1971C8.50385 25.9371 8.17385 25.8071 7.75385 25.8071C7.33385 25.8071 7.00052 25.9405 6.75385 26.2071C6.51385 26.4671 6.39385 26.8105 6.39385 27.2371C6.39385 27.6438 6.51052 27.9805 6.74385 28.2471C6.98385 28.5071 7.34385 28.6371 7.82385 28.6371Z" fill="#1A1B1C"/>
<path d="M1.42904 14.4087V13.3687H3.50904V20.6587H2.35904V14.4087H1.42904ZM5.07513 16.9187C5.07513 15.7654 5.26846 14.8654 5.65513 14.2187C6.04846 13.5654 6.7218 13.2387 7.67513 13.2387C8.62846 13.2387 9.29846 13.5654 9.68513 14.2187C10.0785 14.8654 10.2751 15.7654 10.2751 16.9187C10.2751 18.0854 10.0785 18.9987 9.68513 19.6587C9.29846 20.312 8.62846 20.6387 7.67513 20.6387C6.7218 20.6387 6.04846 20.312 5.65513 19.6587C5.26846 18.9987 5.07513 18.0854 5.07513 16.9187ZM9.15513 16.9187C9.15513 16.3787 9.11846 15.922 9.04513 15.5487C8.97846 15.1754 8.83846 14.872 8.62513 14.6387C8.4118 14.3987 8.09513 14.2787 7.67513 14.2787C7.25513 14.2787 6.93846 14.3987 6.72513 14.6387C6.5118 14.872 6.36846 15.1754 6.29513 15.5487C6.22846 15.922 6.19513 16.3787 6.19513 16.9187C6.19513 17.4787 6.22846 17.9487 6.29513 18.3287C6.3618 18.7087 6.5018 19.0154 6.71513 19.2487C6.93513 19.482 7.25513 19.5987 7.67513 19.5987C8.09513 19.5987 8.4118 19.482 8.62513 19.2487C8.84513 19.0154 8.98846 18.7087 9.05513 18.3287C9.1218 17.9487 9.15513 17.4787 9.15513 16.9187Z" fill="#1A1B1C"/>
<defs>
<filter id="filter0_d_752_1069" x="42.3027" y="0" width="85.7241" height="140.588" filterUnits="userSpaceOnUse" color-interpolation-filters="sRGB">
<feFlood flood-opacity="0" result="BackgroundImageFix"/>
<feColorMatrix in="SourceAlpha" type="matrix" values="0 0 0 0 0 0 0 0 0 0 0 0 0 0 0 0 0 0 127 0" result="hardAlpha"/>
<feOffset dx="2" dy="4"/>
<feGaussianBlur stdDeviation="2"/>
<feComposite in2="hardAlpha" operator="out"/>
<feColorMatrix type="matrix" values="0 0 0 0 0 0 0 0 0 0 0 0 0 0 0 0 0 0 0.25 0"/>
<feBlend mode="normal" in2="BackgroundImageFix" result="effect1_dropShadow_752_1069"/>
<feBlend mode="normal" in="SourceGraphic" in2="effect1_dropShadow_752_1069" result="shape"/>
</filter>
<clipPath id="clip0_752_1069">
<rect width="77.7241" height="132.588" fill="white" transform="translate(44.3027)"/>
</clipPath>
</defs>
</svg>
