<svg width="40" height="41" viewBox="0 0 40 41" fill="none" xmlns="http://www.w3.org/2000/svg">
<path d="M20 3C20.3315 3 20.6495 3.1317 20.8839 3.36612C21.1183 3.60054 21.25 3.91848 21.25 4.25V6.75C21.25 7.08152 21.1183 7.39946 20.8839 7.63388C20.6495 7.8683 20.3315 8 20 8C19.6685 8 19.3505 7.8683 19.1161 7.63388C18.8817 7.39946 18.75 7.08152 18.75 6.75V4.25C18.75 3.91848 18.8817 3.60054 19.1161 3.36612C19.3505 3.1317 19.6685 3 20 3ZM20 28C21.9891 28 23.8968 27.2098 25.3033 25.8033C26.7098 24.3968 27.5 22.4891 27.5 20.5C27.5 18.5109 26.7098 16.6032 25.3033 15.1967C23.8968 13.7902 21.9891 13 20 13C18.0109 13 16.1032 13.7902 14.6967 15.1967C13.2902 16.6032 12.5 18.5109 12.5 20.5C12.5 22.4891 13.2902 24.3968 14.6967 25.8033C16.1032 27.2098 18.0109 28 20 28ZM36.25 21.75C36.5815 21.75 36.8995 21.6183 37.1339 21.3839C37.3683 21.1495 37.5 20.8315 37.5 20.5C37.5 20.1685 37.3683 19.8505 37.1339 19.6161C36.8995 19.3817 36.5815 19.25 36.25 19.25H33.75C33.4185 19.25 33.1005 19.3817 32.8661 19.6161C32.6317 19.8505 32.5 20.1685 32.5 20.5C32.5 20.8315 32.6317 21.1495 32.8661 21.3839C33.1005 21.6183 33.4185 21.75 33.75 21.75H36.25ZM20 33C20.3315 33 20.6495 33.1317 20.8839 33.3661C21.1183 33.6005 21.25 33.9185 21.25 34.25V36.75C21.25 37.0815 21.1183 37.3995 20.8839 37.6339C20.6495 37.8683 20.3315 38 20 38C19.6685 38 19.3505 37.8683 19.1161 37.6339C18.8817 37.3995 18.75 37.0815 18.75 36.75V34.25C18.75 33.9185 18.8817 33.6005 19.1161 33.3661C19.3505 33.1317 19.6685 33 20 33ZM6.25 21.75C6.58152 21.75 6.89946 21.6183 7.13388 21.3839C7.3683 21.1495 7.5 20.8315 7.5 20.5C7.5 20.1685 7.3683 19.8505 7.13388 19.6161C6.89946 19.3817 6.58152 19.25 6.25 19.25H3.75C3.41848 19.25 3.10054 19.3817 2.86612 19.6161C2.6317 19.8505 2.5 20.1685 2.5 20.5C2.5 20.8315 2.6317 21.1495 2.86612 21.3839C3.10054 21.6183 3.41848 21.75 3.75 21.75H6.25ZM7.865 8.365C7.98111 8.24859 8.11905 8.15623 8.27092 8.09322C8.42278 8.0302 8.58558 7.99777 8.75 7.99777C8.91442 7.99777 9.07722 8.0302 9.22908 8.09322C9.38095 8.15623 9.51889 8.24859 9.635 8.365L12.135 10.865C12.2512 10.9812 12.3434 11.1192 12.4063 11.271C12.4692 11.4229 12.5016 11.5856 12.5016 11.75C12.5016 11.9144 12.4692 12.0771 12.4063 12.229C12.3434 12.3808 12.2512 12.5188 12.135 12.635C12.0188 12.7512 11.8808 12.8434 11.729 12.9063C11.5771 12.9692 11.4144 13.0016 11.25 13.0016C11.0856 13.0016 10.9229 12.9692 10.771 12.9063C10.6192 12.8434 10.4812 12.7512 10.365 12.635L7.865 10.135C7.74859 10.0189 7.65623 9.88095 7.59322 9.72908C7.5302 9.57722 7.49777 9.41442 7.49777 9.25C7.49777 9.08558 7.5302 8.92278 7.59322 8.77092C7.65623 8.61905 7.74859 8.48111 7.865 8.365ZM9.635 32.635C9.51894 32.7512 9.38113 32.8434 9.22944 32.9064C9.07774 32.9694 8.91513 33.0018 8.75088 33.0019C8.58664 33.0021 8.42398 32.9698 8.2722 32.9071C8.12041 32.8443 7.98247 32.7523 7.86625 32.6362C7.75003 32.5202 7.65781 32.3824 7.59485 32.2307C7.53189 32.079 7.49942 31.9164 7.4993 31.7521C7.49919 31.5879 7.53142 31.4252 7.59417 31.2734C7.65692 31.1217 7.74894 30.9837 7.865 30.8675L10.365 28.3675C10.4811 28.2513 10.6189 28.1591 10.7706 28.0961C10.9223 28.0331 11.0849 28.0007 11.2491 28.0006C11.4134 28.0004 11.576 28.0327 11.7278 28.0954C11.8796 28.1582 12.0175 28.2502 12.1337 28.3662C12.25 28.4823 12.3422 28.6201 12.4052 28.7718C12.4681 28.9235 12.5006 29.0861 12.5007 29.2504C12.5008 29.4146 12.4686 29.5773 12.4058 29.7291C12.3431 29.8808 12.2511 30.0188 12.135 30.135L9.635 32.635ZM32.135 8.365C32.0189 8.24859 31.8809 8.15623 31.7291 8.09322C31.5772 8.0302 31.4144 7.99777 31.25 7.99777C31.0856 7.99777 30.9228 8.0302 30.7709 8.09322C30.6191 8.15623 30.4811 8.24859 30.365 8.365L27.865 10.865C27.6303 11.0997 27.4984 11.4181 27.4984 11.75C27.4984 12.0819 27.6303 12.4003 27.865 12.635C28.0997 12.8697 28.4181 13.0016 28.75 13.0016C29.0819 13.0016 29.4003 12.8697 29.635 12.635L32.135 10.135C32.2514 10.0189 32.3438 9.88095 32.4068 9.72908C32.4698 9.57722 32.5022 9.41442 32.5022 9.25C32.5022 9.08558 32.4698 8.92278 32.4068 8.77092C32.3438 8.61905 32.2514 8.48111 32.135 8.365ZM30.365 32.635C30.5994 32.8697 30.9174 33.0017 31.2491 33.0019C31.5808 33.0022 31.899 32.8706 32.1338 32.6362C32.3685 32.4019 32.5005 32.0838 32.5007 31.7521C32.5009 31.4204 32.3694 31.1022 32.135 30.8675L29.635 28.3675C29.4006 28.1328 29.0826 28.0008 28.7509 28.0006C28.4192 28.0003 28.101 28.1319 27.8662 28.3662C27.6315 28.6006 27.4995 28.9187 27.4993 29.2504C27.4991 29.5821 27.6306 29.9003 27.865 30.135L30.365 32.635Z" fill="#FFD15B"/>
</svg>
