<svg width="132" height="132" viewBox="0 0 132 132" fill="none" xmlns="http://www.w3.org/2000/svg">
<g clip-path="url(#clip0_752_1124)">
<rect x="5" y="5" width="122" height="122" rx="61" fill="white"/>
<path d="M76.7724 84.8903C3.34515 111.876 -60.7931 26.0533 -122.277 53.4811C-158.991 62.3287 -233.126 80.9973 -235.957 84.8903C-238.788 88.7832 -241.56 174.989 -242.592 217.605L302.804 307.409C339.96 261.549 403.745 156.733 361.635 104.355C308.997 38.8824 150.2 57.9049 76.7724 84.8903Z" fill="#50BEFC" fill-opacity="0.72"/>
<path d="M157.557 85.508C95.8533 108.19 41.9551 36.0528 -9.71279 59.1071C-40.5649 66.544 -102.864 82.2358 -105.243 85.508C-107.622 88.7802 -109.951 161.24 -110.818 197.061L347.502 272.545C378.726 233.998 432.327 145.895 396.94 101.869C352.706 46.8362 219.262 62.8255 157.557 85.508Z" fill="#3BB8ED" fill-opacity="0.69"/>
</g>
<rect x="2.5" y="2.5" width="127" height="127" rx="63.5" stroke="#ADE5FC" stroke-width="5"/>
<defs>
<clipPath id="clip0_752_1124">
<rect x="5" y="5" width="122" height="122" rx="61" fill="white"/>
</clipPath>
</defs>
</svg>
