<svg width="94" height="198" viewBox="0 0 94 198" fill="none" xmlns="http://www.w3.org/2000/svg">
<g clip-path="url(#clip0_168_3990)">
<path d="M63.9218 190.092C64.8136 191.215 66.7345 193.875 66.5973 195.135C66.483 196.396 64.9966 197.863 61.8866 197.267C58.3421 196.58 55.4379 195.273 56.0553 192.705C55.7809 190.482 56.0553 189.221 56.6728 188.327C57.3359 187.364 59.394 186.86 60.6289 186.08C61.5664 185.484 62.0009 185.026 62.161 184.522C62.1153 185.347 62.0695 186.837 62.3668 187.318C62.7555 187.96 63.9218 190.092 63.9218 190.092Z" fill="#D9DDEF" stroke="#6978BE" stroke-miterlimit="10" stroke-linejoin="round"/>
<path d="M65.2481 155.683C65.0195 157.723 64.3563 158.961 63.9218 160.703C62.6641 165.953 60.6975 173.335 61.1091 181.427C61.0862 181.427 60.9262 181.473 60.6975 181.541C60.0572 180.556 58.9596 177.851 59.0053 170.859C59.0282 166.962 59.0739 162.698 59.4626 158.067C60.0572 151.03 60.6975 140.622 61.6351 138.375C62.0467 141.745 66.2086 147.27 65.2481 155.683Z" fill="#F4F6FA" stroke="#6978BE" stroke-miterlimit="10" stroke-linejoin="round"/>
<path d="M59.2568 182.114C59.8285 181.839 60.7203 181.541 60.7203 181.541L61.1319 181.427C61.635 182.55 62.0695 183.307 62.161 183.948C62.161 183.994 62.1381 184.201 62.1153 184.522C61.978 185.026 61.5207 185.507 60.5831 186.08C59.3483 186.86 57.2902 187.364 56.627 188.327L56.3983 188.098C56.0553 187.41 55.9181 186.195 55.8953 184.82C55.9867 183.513 58.1592 182.642 59.2568 182.114Z" fill="#D9DDEF" stroke="#6978BE" stroke-miterlimit="10" stroke-linejoin="round"/>
<path d="M59.4854 158.044C59.0967 162.675 59.051 166.939 59.0281 170.836C58.9823 177.805 60.08 180.533 60.7203 181.519C60.3544 181.633 59.8285 181.817 59.2568 182.092C58.6622 180.785 57.0157 179.134 56.4212 177.301C56.7642 163.798 52.6023 156.715 52.6023 151.351C52.6023 145.62 54.6832 142.548 53.7457 140.209C54.4774 142.043 58.2277 143.258 58.4107 145.803C58.7308 150.113 59.4854 158.044 59.4854 158.044Z" fill="#F4F6FA" stroke="#6978BE" stroke-miterlimit="10" stroke-linejoin="round"/>
<path d="M59.2569 182.115C58.1593 182.642 55.9868 183.536 55.8954 184.82C55.8268 181.587 56.3984 177.438 56.3984 177.301C57.0159 179.134 58.6623 180.785 59.2569 182.115Z" fill="#D9DDEF" stroke="#6978BE" stroke-miterlimit="10" stroke-linejoin="round"/>
<path d="M56.4214 177.301C57.0388 179.134 58.6624 180.785 59.257 182.092C59.2798 182.16 59.3256 182.229 59.3484 182.275" fill="#F4F6FA"/>
<path d="M56.4214 177.301C57.0388 179.134 58.6624 180.785 59.257 182.092C59.2798 182.16 59.3256 182.229 59.3484 182.275" stroke="#6978BE" stroke-miterlimit="10" stroke-linejoin="round"/>
<path d="M56.4214 177.301C56.3985 177.438 55.8497 181.564 55.9183 184.82C55.9412 186.195 56.1012 187.593 56.65 188.327" fill="#D9DDEF"/>
<path d="M56.4214 177.301C56.3985 177.438 55.8497 181.564 55.9183 184.82C55.9412 186.195 56.1012 187.593 56.65 188.327" stroke="#6978BE" stroke-miterlimit="10" stroke-linejoin="round"/>
<path d="M62.161 183.926C62.161 183.994 62.1381 184.201 62.1152 184.499C62.0695 185.324 62.0238 186.814 62.3211 187.295C62.7327 187.96 63.8989 190.092 63.8989 190.092C64.7908 191.215 66.7116 193.875 66.5744 195.135C66.4601 196.396 64.9737 197.863 61.8637 197.267C58.3192 196.58 55.415 195.273 56.0325 192.705C55.7581 190.482 56.0325 189.221 56.6499 188.327C57.3131 187.364 59.3711 186.86 60.606 186.08C61.5436 185.484 61.978 185.026 62.1381 184.522C62.1838 184.315 62.1838 184.132 62.161 183.926C62.0924 183.284 61.6579 182.527 61.1319 181.404C61.1091 181.404 60.949 181.45 60.7203 181.519C60.3544 181.633 59.8285 181.817 59.2568 182.092C58.1592 182.619 55.9867 183.513 55.8953 184.797" fill="#D9DDEF"/>
<path d="M62.161 183.926C62.161 183.994 62.1381 184.201 62.1152 184.499C62.0695 185.324 62.0238 186.814 62.3211 187.295C62.7327 187.96 63.8989 190.092 63.8989 190.092C64.7908 191.215 66.7116 193.875 66.5744 195.135C66.4601 196.396 64.9737 197.863 61.8637 197.267C58.3192 196.58 55.415 195.273 56.0325 192.705C55.7581 190.482 56.0325 189.221 56.6499 188.327C57.3131 187.364 59.3711 186.86 60.606 186.08C61.5436 185.484 61.978 185.026 62.1381 184.522C62.1838 184.315 62.1838 184.132 62.161 183.926ZM62.161 183.926C62.0924 183.284 61.6579 182.527 61.1319 181.404C61.1091 181.404 60.949 181.45 60.7203 181.519C60.3544 181.633 59.8285 181.817 59.2568 182.092C58.1592 182.619 55.9867 183.513 55.8953 184.797" stroke="#6978BE" stroke-miterlimit="10" stroke-linejoin="round"/>
<path d="M63.4416 136.702C63.7389 139.178 64.059 140.026 63.0986 142.571C61.8866 145.78 61.6351 149.952 61.1777 161.139C60.6975 172.326 61.1548 181.404 61.1548 181.404C60.6746 181.564 57.8848 182.275 55.9182 184.797C55.5294 180.51 56.4212 178.401 56.8786 173.105C57.6104 164.257 57.6104 152.428 56.6728 146.399C56.284 143.9 54.912 142.685 54.1116 140.874C54.0888 140.851 54.0888 140.805 54.0659 140.783C53.5171 139.499 52.1907 137.436 52.7396 133.974C52.7396 133.974 55.4379 129.412 58.8681 129.962C62.2753 130.581 63.1672 134.249 63.4416 136.702Z" fill="#D9DDEF" stroke="#6978BE" stroke-miterlimit="10" stroke-linejoin="round"/>
<path d="M61.6351 140.782C61.0634 142.089 60.4231 143.304 59.3941 143.304C58.365 143.304 57.0158 140.966 56.8786 138.926C56.7414 136.862 56.124 133.034 59.7828 133.034C63.4416 133.034 62.1382 139.636 61.6351 140.782Z" fill="#F4F6FA" stroke="#6978BE" stroke-miterlimit="10" stroke-linejoin="round"/>
<path d="M30.8553 190.092C29.9635 191.215 28.0426 193.875 28.1798 195.135C28.2942 196.396 29.7806 197.863 32.8906 197.267C36.435 196.58 39.3392 195.273 38.7218 192.705C38.9962 190.482 38.7218 189.221 38.1044 188.327C37.4412 187.364 35.3831 186.86 34.1483 186.08C33.2107 185.484 32.7762 185.026 32.6161 184.522C32.6619 185.347 32.7076 186.837 32.4103 187.318C32.0216 187.96 30.8553 190.092 30.8553 190.092Z" fill="#D9DDEF" stroke="#6978BE" stroke-miterlimit="10" stroke-linejoin="round"/>
<path d="M29.5061 155.683C29.7347 157.723 30.3979 158.961 30.8324 160.703C32.0901 165.953 34.0567 173.335 33.6451 181.427C33.668 181.427 33.828 181.473 34.0567 181.541C34.697 180.556 35.7946 177.851 35.7489 170.859C35.726 166.962 35.6803 162.698 35.2916 158.067C34.697 151.03 34.0567 140.622 33.1191 138.375C32.7304 141.745 28.5685 147.27 29.5061 155.683Z" fill="#F4F6FA" stroke="#6978BE" stroke-miterlimit="10" stroke-linejoin="round"/>
<path d="M35.5204 182.114C34.9487 181.839 34.0569 181.541 34.0569 181.541L33.6453 181.427C33.1422 182.55 32.7077 183.307 32.6162 183.948C32.6162 183.994 32.6391 184.201 32.6619 184.522C32.7992 185.026 33.2565 185.507 34.1941 186.08C35.4289 186.86 37.487 187.364 38.1502 188.327L38.3788 188.098C38.7219 187.41 38.8591 186.195 38.8819 184.82C38.7905 183.513 36.5952 182.642 35.5204 182.114Z" fill="#D9DDEF" stroke="#6978BE" stroke-miterlimit="10" stroke-linejoin="round"/>
<path d="M35.2688 158.044C35.6575 162.675 35.7033 166.939 35.7261 170.836C35.7719 177.805 34.6742 180.533 34.0339 181.519C34.3998 181.633 34.9258 181.817 35.4975 182.092C36.092 180.785 37.7385 179.134 38.333 177.301C37.99 163.798 42.1519 156.715 42.1519 151.351C42.1519 145.62 40.071 142.548 41.0085 140.209C40.2768 142.043 36.5265 143.258 36.3436 145.803C36.0463 150.113 35.2688 158.044 35.2688 158.044Z" fill="#F4F6FA" stroke="#6978BE" stroke-miterlimit="10" stroke-linejoin="round"/>
<path d="M35.5203 182.115C36.6179 182.642 38.7903 183.536 38.8818 184.82C38.9504 181.587 38.3787 177.438 38.3787 177.301C37.7384 179.134 36.1148 180.785 35.5203 182.115Z" fill="#D9DDEF" stroke="#6978BE" stroke-miterlimit="10" stroke-linejoin="round"/>
<path d="M38.356 177.301C37.7386 179.134 36.115 180.785 35.5204 182.092C35.4976 182.16 35.4518 182.229 35.429 182.275" fill="#F4F6FA"/>
<path d="M38.356 177.301C37.7386 179.134 36.115 180.785 35.5204 182.092C35.4976 182.16 35.4518 182.229 35.429 182.275" stroke="#6978BE" stroke-miterlimit="10" stroke-linejoin="round"/>
<path d="M38.3559 177.301C38.3787 177.438 38.9276 181.564 38.859 184.82C38.8361 186.195 38.676 187.593 38.1272 188.327" fill="#D9DDEF"/>
<path d="M38.3559 177.301C38.3787 177.438 38.9276 181.564 38.859 184.82C38.8361 186.195 38.676 187.593 38.1272 188.327" stroke="#6978BE" stroke-miterlimit="10" stroke-linejoin="round"/>
<path d="M32.6162 183.926C32.6162 183.994 32.6391 184.201 32.662 184.499C32.7077 185.324 32.7534 186.814 32.4562 187.295C32.0445 187.96 30.8783 190.092 30.8783 190.092C29.9865 191.215 28.0656 193.875 28.2028 195.135C28.3171 196.396 29.8035 197.863 32.9135 197.267C36.458 196.58 39.3622 195.273 38.7447 192.705C39.0191 190.482 38.7447 189.221 38.1273 188.327C37.4642 187.364 35.4061 186.86 34.1712 186.08C33.2336 185.484 32.7992 185.026 32.6391 184.522C32.5934 184.315 32.5934 184.132 32.6162 183.926C32.6848 183.284 33.1193 182.527 33.6453 181.404C33.6681 181.404 33.8282 181.45 34.0569 181.519C34.4228 181.633 34.9487 181.817 35.5204 182.092C36.6181 182.619 38.7905 183.513 38.8819 184.797" fill="#D9DDEF"/>
<path d="M32.6162 183.926C32.6162 183.994 32.6391 184.201 32.662 184.499C32.7077 185.324 32.7534 186.814 32.4562 187.295C32.0445 187.96 30.8783 190.092 30.8783 190.092C29.9865 191.215 28.0656 193.875 28.2028 195.135C28.3171 196.396 29.8035 197.863 32.9135 197.267C36.458 196.58 39.3622 195.273 38.7447 192.705C39.0191 190.482 38.7447 189.221 38.1273 188.327C37.4642 187.364 35.4061 186.86 34.1712 186.08C33.2336 185.484 32.7992 185.026 32.6391 184.522C32.5934 184.315 32.5934 184.132 32.6162 183.926ZM32.6162 183.926C32.6848 183.284 33.1193 182.527 33.6453 181.404C33.6681 181.404 33.8282 181.45 34.0569 181.519C34.4228 181.633 34.9487 181.817 35.5204 182.092C36.6181 182.619 38.7905 183.513 38.8819 184.797" stroke="#6978BE" stroke-miterlimit="10" stroke-linejoin="round"/>
<path d="M31.3126 136.702C31.0153 139.178 30.6952 140.026 31.6556 142.571C32.8676 145.78 33.1192 149.952 33.5765 161.139C34.0567 172.326 33.6223 181.404 33.6223 181.404C34.1025 181.564 36.8923 182.275 38.8589 184.797C39.2477 180.51 38.3558 178.401 37.8985 173.105C37.1667 164.257 37.1667 152.428 38.1043 146.399C38.493 143.9 39.8651 142.685 40.6655 140.874C40.6883 140.851 40.6883 140.805 40.7112 140.783C41.26 139.499 42.5863 137.436 42.0375 133.974C42.0375 133.974 39.3392 129.412 35.909 129.962C32.4789 130.581 31.6099 134.249 31.3126 136.702Z" fill="#D9DDEF" stroke="#6978BE" stroke-miterlimit="10" stroke-linejoin="round"/>
<path d="M33.1193 140.782C33.691 142.089 34.3313 143.304 35.3603 143.304C36.3893 143.304 37.7385 140.966 37.8757 138.926C38.0129 136.862 38.6304 133.034 34.9716 133.034C31.3127 133.034 32.6391 139.636 33.1193 140.782Z" fill="#F4F6FA" stroke="#6978BE" stroke-miterlimit="10" stroke-linejoin="round"/>
<path d="M64.4708 81.7991C65.2712 83.5413 59.3485 84.7563 56.7416 87.4842C53.9289 90.4644 52.0766 91.2208 49.1724 98.4878C48.0976 105.48 50.0871 110.89 51.1162 117.813C52.0537 124.186 51.4134 125.928 51.8022 131.407C52.1909 136.863 58.4567 135.602 58.4567 133.264C58.4567 133.264 65.4541 84.0456 64.4708 81.7991Z" fill="#D9DDEF" stroke="#6978BE" stroke-miterlimit="10" stroke-linejoin="round"/>
<path d="M64.6308 82.0742C64.9281 83.2433 59.8972 83.2663 59.8972 83.2663C59.8972 83.2663 60.3317 122.42 60.0802 133.676C59.9887 137.94 63.2816 138.995 63.4417 136.679C63.6018 134.364 64.6765 131.59 66.6432 124.14C69.09 114.856 69.2501 106.809 69.09 100.987C68.9985 97.9835 67.8323 88.0803 64.6308 82.0742Z" fill="#D9DDEF" stroke="#6978BE" stroke-miterlimit="10" stroke-linejoin="round"/>
<path d="M59.1198 86.7278C59.257 111.898 49.9042 118.89 52.0537 133.057C52.5568 136.381 57.7706 138.88 58.4795 133.264C58.4567 133.264 61.9554 91.0146 59.1198 86.7278Z" fill="#D9DDEF" stroke="#6978BE" stroke-miterlimit="10" stroke-linejoin="round"/>
<path d="M57.0846 132.599C53.2886 118.248 59.7373 103.027 59.1427 86.7277C59.2342 87.5988 60.6748 83.2662 61.2923 85.3294C68.4956 109.652 64.2879 127.945 61.4981 133.057C59.6458 136.358 57.702 134.983 57.0846 132.599Z" fill="#F4F6FA" stroke="#6978BE" stroke-miterlimit="10" stroke-linejoin="round"/>
<path d="M53.4257 92.963C53.4257 92.963 48.9208 103.439 50.1328 112.311" stroke="#6978BE" stroke-miterlimit="10" stroke-linejoin="round"/>
<path d="M30.2837 81.7991C29.4833 83.5413 35.406 84.7563 38.0129 87.4842C40.8256 90.4644 42.6779 91.2208 45.5821 98.4878C46.6569 105.48 44.6674 110.89 43.6384 117.813C42.7008 124.186 43.3411 125.928 42.9523 131.407C42.5636 136.863 36.2979 135.602 36.2979 133.264C36.2979 133.264 29.3232 84.0456 30.2837 81.7991Z" fill="#D9DDEF" stroke="#6978BE" stroke-miterlimit="10" stroke-linejoin="round"/>
<path d="M30.1465 82.0742C29.8492 83.2433 34.8801 83.2663 34.8801 83.2663C34.8801 83.2663 34.4456 122.42 34.6972 133.676C34.7886 137.94 31.4957 138.995 31.3356 136.679C31.1755 134.364 30.1008 131.59 28.1342 124.14C25.6873 114.856 25.5272 106.809 25.6873 100.987C25.7788 97.9835 26.945 88.0803 30.1465 82.0742Z" fill="#D9DDEF" stroke="#6978BE" stroke-miterlimit="10" stroke-linejoin="round"/>
<path d="M35.6348 86.7278C35.4976 111.898 44.8505 118.89 42.7009 133.057C42.1978 136.381 36.984 138.88 36.2751 133.264C36.298 133.264 32.8221 91.0146 35.6348 86.7278Z" fill="#D9DDEF" stroke="#6978BE" stroke-miterlimit="10" stroke-linejoin="round"/>
<path d="M37.6927 132.599C41.4887 118.248 35.04 103.027 35.6346 86.7277C35.5431 87.5988 34.1025 83.2662 33.485 85.3294C26.2818 109.652 30.4894 127.945 33.2792 133.057C35.1315 136.358 37.0524 134.983 37.6927 132.599Z" fill="#F4F6FA" stroke="#6978BE" stroke-miterlimit="10" stroke-linejoin="round"/>
<path d="M41.3516 92.963C41.3516 92.963 45.8565 103.439 44.6445 112.311" stroke="#6978BE" stroke-miterlimit="10" stroke-linejoin="round"/>
<path d="M42.2663 29.5781C41.5345 31.3891 36.8238 35.2633 32.9134 35.5154C32.9134 35.5154 31.5185 36.4783 30.6267 42.3697C29.7577 48.2612 32.1588 50.3931 32.296 54.5653C32.4561 59.0355 34.5827 64.2622 35.5889 69.5805C35.9548 71.4832 35.5661 72.9733 34.5827 74.9906C33.5994 77.0079 30.9925 79.69 30.1464 82.0741C29.7577 83.1745 33.668 85.146 37.3269 88.745C41.6488 92.986 45.5821 98.5107 45.5821 98.5107C45.5821 98.5107 46.5882 98.8545 47.3886 98.8545C48.189 98.8545 49.1951 98.5107 49.1951 98.5107C49.1951 98.5107 53.1284 92.986 57.4503 88.745C61.132 85.146 65.0195 83.1745 64.6308 82.0741C63.8075 79.69 61.1777 77.0079 60.1944 74.9906C59.2111 72.9733 58.8224 71.4832 59.1883 69.5805C60.1944 64.2622 62.344 59.0355 62.4812 54.5653C62.6184 50.3931 65.0424 48.2612 64.1505 42.3697C63.2816 36.4783 61.8638 35.5154 61.8638 35.5154C57.9534 35.2404 53.2198 31.3662 52.5109 29.5781H42.2663Z" fill="#D9DDEF" stroke="#6978BE" stroke-miterlimit="10" stroke-linejoin="round"/>
<path d="M70.5534 68.9615L72.8401 65.9814C72.8401 65.9814 69.2042 47.9173 67.4891 45.6937C65.9112 43.6763 60.5145 39.5271 60.5145 39.5271C60.2858 42.0258 60.0343 41.8883 61.292 47.7797C61.7493 49.9575 66.1399 64.4914 70.5534 68.9615Z" fill="#D9DDEF" stroke="#6978BE" stroke-miterlimit="10" stroke-linejoin="round"/>
<path d="M59.1882 69.5806C58.5479 72.4919 55.5293 74.5551 52.6709 76.2285" stroke="#6978BE" stroke-miterlimit="10" stroke-linejoin="round"/>
<path d="M35.5889 69.5806C36.2292 72.4919 39.2477 74.5551 42.1061 76.2285" stroke="#6978BE" stroke-miterlimit="10" stroke-linejoin="round"/>
<path d="M48.7833 77.9249C47.7543 78.1771 47.3884 77.306 47.3884 76.3431C47.3884 75.1282 47.3884 73.7986 47.3884 71.7583C47.4342 69.8098 48.2117 68.8928 49.1264 68.9616C53.1053 68.9616 53.6084 70.2224 53.7685 71.0018C53.9514 71.85 54.8204 76.5036 48.7833 77.9249Z" fill="#F4F6FA" stroke="#6978BE" stroke-miterlimit="10" stroke-linejoin="round"/>
<path d="M53.7914 63.4828C55.3692 68.7324 53.7685 71.0248 53.7685 71.0248C53.7685 71.0248 53.1053 68.9846 49.1264 68.9846C49.0578 68.9617 48.9892 68.9617 48.9206 68.9846C47.3884 68.8241 47.3884 66.8985 47.3884 65.2709C47.3884 62.4971 48.2574 61.4197 49.9496 61.4197C51.8476 61.3967 53.5169 62.52 53.7914 63.4828Z" fill="#F4F6FA" stroke="#6978BE" stroke-miterlimit="10" stroke-linejoin="round"/>
<path d="M53.7914 63.4828C53.1739 62.7034 51.8476 61.3967 49.9496 61.3967C47.5485 61.3738 47.3884 61.7635 47.3884 59.0355C47.3884 58.8063 47.3884 57.981 47.3884 57.7976C47.3884 56.2617 48.4403 55.1155 50.6585 56.3993C52.8538 57.683 54.2716 61.9239 53.7914 63.4828Z" fill="#F4F6FA" stroke="#6978BE" stroke-miterlimit="10" stroke-linejoin="round"/>
<path d="M45.9935 77.9249C47.0226 78.1771 47.3885 77.306 47.3885 76.3431C47.3885 75.1282 47.3885 73.7986 47.3885 71.7583C47.3427 69.8098 46.5652 68.8928 45.6505 68.9616C41.6716 68.9616 41.1685 70.2224 41.0084 71.0018C40.8255 71.85 39.9565 76.5036 45.9935 77.9249Z" fill="#F4F6FA" stroke="#6978BE" stroke-miterlimit="10" stroke-linejoin="round"/>
<path d="M40.9627 63.4828C39.3849 68.7324 40.9856 71.0248 40.9856 71.0248C40.9856 71.0248 41.6488 68.9846 45.6277 68.9846C45.6963 68.9617 45.7649 68.9617 45.8335 68.9846C47.3657 68.8241 47.3657 66.8985 47.3657 65.2709C47.3657 62.4971 46.4967 61.4197 44.8045 61.4197C42.9065 61.3967 41.26 62.52 40.9627 63.4828Z" fill="#F4F6FA" stroke="#6978BE" stroke-miterlimit="10" stroke-linejoin="round"/>
<path d="M40.9628 63.4828C41.5802 62.7034 42.9065 61.3967 44.8045 61.3967C47.2056 61.3738 47.3657 61.7635 47.3657 59.0355C47.3657 58.8063 47.3657 57.981 47.3657 57.7976C47.3657 56.2617 46.3138 55.1155 44.0956 56.3993C41.9003 57.683 40.5054 61.9239 40.9628 63.4828Z" fill="#F4F6FA" stroke="#6978BE" stroke-miterlimit="10" stroke-linejoin="round"/>
<path d="M53.2883 78.3605C53.334 80.2632 52.8766 83.1058 50.7957 88.0803C48.7147 93.0548 47.3884 92.9631 47.3884 91.198C47.3884 88.4241 47.3884 82.8078 47.3884 80.9051C47.3884 79.0024 48.2345 78.3605 49.1492 77.9249C50.0639 77.5123 50.224 77.5582 51.6189 76.7329C53.0367 75.9076 53.2425 76.5495 53.2883 78.3605Z" fill="#F4F6FA" stroke="#6978BE" stroke-miterlimit="10" stroke-linejoin="round"/>
<path d="M41.4886 78.3605C41.4429 80.2632 41.9002 83.1058 43.9812 88.0803C46.0621 93.0548 47.3885 92.9631 47.3885 91.198C47.3885 88.4241 47.3885 82.8078 47.3885 80.9051C47.3885 79.0024 46.5424 78.3605 45.6277 77.9249C44.7129 77.5123 44.5529 77.5582 43.158 76.7329C41.7402 75.9076 41.5344 76.5495 41.4886 78.3605Z" fill="#F4F6FA" stroke="#6978BE" stroke-miterlimit="10" stroke-linejoin="round"/>
<path d="M42.2664 23.7096C42.5636 24.9704 42.7923 28.2485 42.2664 29.5781C42.2664 31.4579 44.8504 34.3234 47.3887 37.0055C49.927 34.3234 52.511 31.4579 52.511 29.5781C51.9851 28.2485 52.2138 24.9704 52.511 23.7096H42.2664Z" fill="#D9DDEF" stroke="#6978BE" stroke-miterlimit="10" stroke-linejoin="round"/>
<path d="M45.0789 26.2771C45.0789 26.2771 45.1703 32.9938 47.3885 37.0055C49.6066 32.9938 49.6981 26.2771 49.6981 26.2771" fill="#D9DDEF"/>
<path d="M45.0789 26.2771C45.0789 26.2771 45.1703 32.9938 47.3885 37.0055C49.6066 32.9938 49.6981 26.2771 49.6981 26.2771" stroke="#6978BE" stroke-miterlimit="10" stroke-linejoin="round"/>
<path d="M52.4881 23.7096C51.802 24.787 50.8873 25.7269 49.6753 26.277C49.0122 26.5751 48.2347 26.7585 47.3657 26.7585C46.4967 26.7585 45.7192 26.5751 45.0561 26.277C43.8441 25.7269 42.9294 24.787 42.2434 23.7096C40.5969 21.1191 40.2539 17.841 40.2539 17.841C40.2539 17.841 38.4245 18.2766 37.7156 14.7233C36.9838 11.1243 39.3163 11.3306 39.3163 11.3306C39.3163 11.3306 38.5617 10.001 39.3392 6.4707C40.1167 2.9404 43.5468 0.579224 47.3428 0.579224C51.1389 0.579224 54.569 2.9404 55.3465 6.4707C56.124 10.001 55.3694 11.3306 55.3694 11.3306C55.3694 11.3306 57.7019 11.1243 56.9701 14.7233C56.2612 18.2766 54.4318 17.841 54.4318 17.841C54.4318 17.841 54.1574 21.1191 52.4881 23.7096Z" fill="#D9DDEF" stroke="#6978BE" stroke-miterlimit="10" stroke-linejoin="round"/>
<path d="M59.5998 35.4926C57.2445 35.5842 55.2321 36.5241 50.4985 37.464" stroke="#6978BE" stroke-miterlimit="10" stroke-linecap="round" stroke-linejoin="round"/>
<path d="M24.0636 68.9615L21.7769 65.9814C21.7769 65.9814 25.4128 47.9173 27.1279 45.6937C28.7057 43.6763 34.1025 39.5271 34.1025 39.5271C34.3312 42.0258 34.5827 41.8883 33.325 47.7797C32.8905 49.9575 28.4999 64.4914 24.0636 68.9615Z" fill="#D9DDEF" stroke="#6978BE" stroke-miterlimit="10" stroke-linejoin="round"/>
<path d="M35.04 35.4926C37.3954 35.5842 39.4077 36.5241 44.1413 37.464" stroke="#6978BE" stroke-miterlimit="10" stroke-linecap="round" stroke-linejoin="round"/>
<path d="M10.5259 97.4561C10.5031 97.4561 10.5031 97.4561 10.5259 97.4561C11.6236 96.7454 14.6878 99.4734 14.6878 99.4734C14.7107 99.29 15.4882 93.0776 17.9122 87.4841C14.9623 93.7882 10.6631 97.3185 10.5259 97.4561Z" fill="#D9DDEF"/>
<path d="M10.5259 97.4561C10.5031 97.4561 10.5031 97.4561 10.5259 97.4561ZM10.5259 97.4561C11.6236 96.7454 14.6878 99.4734 14.6878 99.4734C14.7107 99.29 15.4882 93.0776 17.9122 87.4841C14.9623 93.7882 10.6631 97.3185 10.5259 97.4561Z" stroke="#6978BE" stroke-miterlimit="10" stroke-linejoin="round"/>
<path d="M17.8894 87.4842C15.4654 93.0777 14.6879 99.2671 14.665 99.4735C16.1972 94.6136 26.8763 77.283 23.7435 67.1047L20.5191 71.5291C20.5191 71.5291 22.0055 75.1969 19.2843 83.908C18.8727 85.1689 18.3925 86.3609 17.8894 87.4842Z" fill="#D9DDEF" stroke="#6978BE" stroke-miterlimit="10" stroke-linejoin="round"/>
<path d="M14.505 99.5423C13.7732 98.0064 12.3097 96.8143 11.0749 96.6997C9.22258 97.6167 6.93583 97.9835 5.51804 99.3818C4.10024 100.78 3.27701 101.032 1.81349 101.468C0.372828 101.903 0.944518 103.004 2.81966 102.82C4.6948 102.637 5.67811 101.881 6.52421 102.064C4.26032 106.534 4.12311 109.193 4.05451 110.752C3.98591 112.678 8.42222 112.449 10.2059 110.317C11.9438 108.253 13.4302 104.884 13.5446 104.631V104.608C14.3449 103.302 14.6879 101.674 14.7108 100.528C14.7565 100.23 14.6651 99.8861 14.505 99.5423Z" fill="#D9DDEF" stroke="#6978BE" stroke-miterlimit="10" stroke-linejoin="round"/>
<path d="M11.0748 96.6996C10.8919 96.9747 14.9395 93.7883 17.8665 87.4842C18.3925 86.3609 18.8727 85.1689 19.2614 83.8851C21.9827 75.174 20.4963 71.5062 20.4963 71.5062L19.6502 67.9988C19.6502 67.9988 14.7565 73.6839 14.6422 78.9794C14.4821 88.2407 12.9728 93.9029 11.0748 96.6996Z" fill="#F4F6FA" stroke="#6978BE" stroke-miterlimit="10" stroke-linejoin="round"/>
<path d="M6.54712 102.087C8.07925 101.995 10.4117 102.591 12.4012 99.8632" stroke="#6978BE" stroke-miterlimit="10" stroke-linejoin="round"/>
<path d="M62.367 45.3957C64.7224 49.8888 64.9053 53.8088 61.2007 56.1241C57.4962 58.4624 50.4758 56.9723 49.0581 51.6998C47.0228 44.1578 52.1452 41.4757 54.592 39.7793C61.2465 35.1257 60.7434 42.3009 62.367 45.3957Z" fill="#F4F6FA" stroke="#6978BE" stroke-miterlimit="10" stroke-linejoin="round"/>
<path d="M32.2503 45.3957C29.895 49.8888 29.712 53.8088 33.4166 56.1241C37.1211 58.4624 44.1415 56.9723 45.5593 51.6998C47.5945 44.1578 42.4721 41.4757 40.0253 39.7793C33.3937 35.1257 33.8739 42.3009 32.2503 45.3957Z" fill="#F4F6FA" stroke="#6978BE" stroke-miterlimit="10" stroke-linejoin="round"/>
<path d="M22.8289 51.9978C35.6804 44.4787 35.0401 35.5154 35.0401 35.5154C35.0401 35.5154 30.1694 35.0111 27.4481 37.5327C24.7269 40.0544 23.675 44.2036 23.3548 46.5648C23.0347 48.926 22.8289 51.9978 22.8289 51.9978Z" fill="#F4F6FA" stroke="#6978BE" stroke-miterlimit="10" stroke-linejoin="round"/>
<path d="M71.7883 51.9978C58.9367 44.4787 59.577 35.5154 59.577 35.5154C59.577 35.5154 64.4478 35.0111 67.1691 37.5327C69.8903 40.0544 70.9422 44.2036 71.2624 46.5648C71.6054 48.926 71.7883 51.9978 71.7883 51.9978Z" fill="#F4F6FA" stroke="#6978BE" stroke-miterlimit="10" stroke-linejoin="round"/>
<path d="M84.114 97.4561C83.0164 96.7454 79.9521 99.4734 79.9521 99.4734C79.9292 99.29 79.1517 93.0776 76.7278 87.4841C79.6777 93.7882 83.9539 97.3185 84.114 97.4561Z" fill="#D9DDEF" stroke="#6978BE" stroke-miterlimit="10" stroke-linejoin="round"/>
<path d="M76.7507 87.4842C79.1746 93.0777 79.9521 99.2671 79.975 99.4735C78.4428 94.6136 67.7637 77.283 70.8965 67.1047L74.1209 71.5291C74.1209 71.5291 72.6345 75.1969 75.3557 83.908C75.7445 85.1689 76.2247 86.3609 76.7507 87.4842Z" fill="#D9DDEF" stroke="#6978BE" stroke-miterlimit="10" stroke-linejoin="round"/>
<path d="M79.8606 100.551C79.8835 101.697 80.2265 103.302 81.0268 104.631C81.0268 104.631 81.0268 104.631 81.0268 104.654C81.1412 104.929 82.6276 108.299 84.3655 110.339C86.1721 112.471 90.5855 112.701 90.5169 110.775C90.4712 109.216 90.3111 106.534 88.0472 102.087C88.8933 101.903 89.8766 102.66 91.7517 102.843C93.6269 103.027 94.1986 101.926 92.7579 101.491C91.3173 101.055 90.4712 100.78 89.0534 99.4046C87.6356 98.0063 85.3717 97.6395 83.5194 96.7225C82.2846 96.8372 80.7982 98.0292 80.0893 99.5651C79.9521 99.886 79.8606 100.23 79.8606 100.551Z" fill="#D9DDEF" stroke="#6978BE" stroke-miterlimit="10" stroke-linejoin="round"/>
<path d="M83.5422 96.6996C83.7251 96.9747 79.6776 93.7883 76.7505 87.4842C76.2246 86.3609 75.7443 85.1689 75.3556 83.8851C72.6343 75.174 74.1207 71.5062 74.1207 71.5062L74.9668 67.9988C74.9668 67.9988 79.8605 73.6839 79.9748 78.9794C80.1349 88.2407 81.667 93.9029 83.5422 96.6996Z" fill="#F4F6FA" stroke="#6978BE" stroke-miterlimit="10" stroke-linejoin="round"/>
<path d="M88.0699 102.087C86.5378 101.995 84.2053 102.591 82.2158 99.8632" stroke="#6978BE" stroke-miterlimit="10" stroke-linejoin="round"/>
<path d="M74.1209 71.5061C67.2606 63.8495 64.1963 51.9977 66.3001 47.8026C66.3001 47.8026 69.0214 47.7109 71.7884 51.9977C75.5615 57.7746 75.2871 68.7323 74.1209 71.5061Z" fill="#D9DDEF" stroke="#6978BE" stroke-miterlimit="10"/>
<path d="M20.5192 71.5061C27.3794 63.8495 30.4437 51.9977 28.3399 47.8026C28.3399 47.8026 25.6186 47.7109 22.8517 51.9977C19.0556 57.7746 19.3529 68.7323 20.5192 71.5061Z" fill="#D9DDEF" stroke="#7180C2" stroke-miterlimit="10"/>
</g>
<defs>
<clipPath id="clip0_168_3990">
<rect width="93.0482" height="197.307" fill="white" transform="translate(0.784424 0.327026)"/>
</clipPath>
</defs>
</svg>
