<svg width="110" height="199" viewBox="0 0 110 199" fill="none" xmlns="http://www.w3.org/2000/svg">
<g clip-path="url(#clip0_168_4064)">
<path d="M69.1265 183.639C71.5152 186.158 74.569 191.045 74.8411 192.988C75.1435 194.931 73.42 197.116 71.5152 197.996C69.6103 198.877 67.8264 198.118 66.7681 197.511C65.7098 196.934 64.2283 195.932 63.8352 192.108C63.4119 188.283 63.3514 187.767 62.0815 186.704C60.7813 185.642 60.5092 184.064 61.7791 181.878C63.0491 179.693 67.7961 179.814 69.1265 183.639Z" fill="#D9DDEF" stroke="#6978BE" stroke-miterlimit="10" stroke-linejoin="round"/>
<path d="M71.8177 141.021C71.8177 141.021 75.3553 151.25 73.3597 159.203C71.3642 167.156 67.8568 174.684 67.6753 177.386C67.4939 180.087 69.0964 183.608 69.0964 183.608C69.0964 183.608 67.4335 178.903 61.7491 181.848L61.3862 179.723L67.6753 144.724L71.8177 141.021Z" fill="#D9DDEF" stroke="#6978BE" stroke-miterlimit="10" stroke-linejoin="round"/>
<path d="M62.2933 143.206C62.2933 143.206 60.0256 150.734 60.6001 154.984C61.1746 159.233 62.6864 170.313 62.2933 172.559C62.1119 173.531 60.1163 176.111 60.7815 177.932C61.1443 178.903 61.7793 181.878 61.7793 181.878C61.7793 181.878 62.9585 181.028 64.5005 181.028C66.0426 181.028 67.1311 154.984 65.6193 148.033C63.3516 137.5 62.2933 143.206 62.2933 143.206Z" fill="#D9DDEF" stroke="#6978BE" stroke-miterlimit="10" stroke-linejoin="round"/>
<path d="M73.6318 130.245C72.8154 132.704 72.6037 141.506 70.3965 144.754C70.3965 144.754 68.2195 138.683 70.3965 134.282C72.5433 129.85 73.6318 130.245 73.6318 130.245Z" fill="#D9DDEF" stroke="#6978BE" stroke-miterlimit="10" stroke-linejoin="round"/>
<path d="M59.6022 133.705C59.6022 133.705 59.4813 137.955 60.7512 140.839C62.0513 143.753 64.9238 145.513 64.9238 145.513C64.9238 145.513 66.617 138.805 63.805 135.496C61.0233 132.218 59.6022 133.705 59.6022 133.705Z" fill="#D9DDEF" stroke="#6978BE" stroke-miterlimit="10" stroke-linejoin="round"/>
<path d="M64.1377 142.963C64.1377 142.963 62.6259 144.542 62.9585 147.304C63.2608 150.036 65.1052 157.716 65.075 162.876C65.0145 175.413 63.8353 181.089 63.8353 181.089C63.8353 181.089 65.075 180.907 66.0728 180.998C66.8287 179.48 67.7055 164.242 68.4312 158.566C69.1569 152.889 68.4917 149.338 69.4592 147.942C70.457 146.576 71.1524 142.812 69.6709 141.537C68.1288 140.262 64.1377 142.963 64.1377 142.963Z" fill="#F4F6FA" stroke="#6978BE" stroke-miterlimit="10" stroke-linejoin="round"/>
<path d="M70.3965 137.014C70.7896 139.442 69.6406 143.115 68.8847 145.21C68.28 146.818 65.468 146.788 64.954 145.513C64.2283 143.722 63.6538 141.871 63.8957 138.441C64.1376 135.011 65.3773 130.852 67.9171 130.852C70.457 130.852 69.9732 134.586 70.3965 137.014Z" fill="#F4F6FA" stroke="#6978BE" stroke-miterlimit="10" stroke-linejoin="round"/>
<path d="M40.3118 183.639C37.9231 186.158 34.8693 191.045 34.5972 192.988C34.2948 194.931 36.0183 197.116 37.9231 197.996C39.828 198.877 41.6119 198.118 42.6702 197.511C43.7285 196.934 45.21 195.932 45.6031 192.108C46.0264 188.283 46.0869 187.767 47.3568 186.704C48.657 185.642 48.9291 184.064 47.6592 181.878C46.3892 179.693 41.6422 179.814 40.3118 183.639Z" fill="#D9DDEF" stroke="#6978BE" stroke-miterlimit="10" stroke-linejoin="round"/>
<path d="M37.6208 141.021C37.6208 141.021 34.0832 151.25 36.0788 159.203C38.0743 167.156 41.5817 174.684 41.7631 177.386C41.9446 180.087 40.342 183.608 40.342 183.608C40.342 183.608 42.005 178.903 47.6894 181.848L48.0523 179.723L41.7329 144.724L37.6208 141.021Z" fill="#D9DDEF" stroke="#6978BE" stroke-miterlimit="10" stroke-linejoin="round"/>
<path d="M47.1451 143.206C47.1451 143.206 49.4128 150.734 48.8383 154.984C48.2639 159.233 46.752 170.313 47.1451 172.559C47.3265 173.531 49.3221 176.111 48.6569 177.932C48.2941 178.903 47.6591 181.878 47.6591 181.878C47.6591 181.878 46.4799 181.028 44.9379 181.028C43.3958 180.998 42.3073 155.014 43.8191 148.063C46.0869 137.5 47.1451 143.206 47.1451 143.206Z" fill="#D9DDEF" stroke="#6978BE" stroke-miterlimit="10" stroke-linejoin="round"/>
<path d="M35.8066 130.245C36.623 132.704 36.8347 141.506 39.0419 144.754C39.0419 144.754 41.2189 138.683 39.0419 134.282C36.8951 129.85 35.8066 130.245 35.8066 130.245Z" fill="#D9DDEF" stroke="#6978BE" stroke-miterlimit="10" stroke-linejoin="round"/>
<path d="M49.8362 133.705C49.8362 133.705 49.9572 137.955 48.6873 140.839C47.3871 143.753 44.5147 145.513 44.5147 145.513C44.5147 145.513 42.8215 138.805 45.6334 135.496C48.4151 132.218 49.8362 133.705 49.8362 133.705Z" fill="#D9DDEF" stroke="#6978BE" stroke-miterlimit="10" stroke-linejoin="round"/>
<path d="M45.331 142.963C45.331 142.963 46.8429 144.542 46.5103 147.304C46.2079 150.036 44.3635 157.716 44.3937 162.876C44.4542 175.413 45.6334 181.089 45.6334 181.089C45.6334 181.089 44.3937 180.907 43.3959 180.998C42.64 179.48 41.7632 164.242 41.0375 158.566C40.3118 152.889 40.977 149.338 40.0095 147.942C39.0117 146.576 38.3163 142.812 39.7978 141.537C41.3096 140.262 45.331 142.963 45.331 142.963Z" fill="#F4F6FA" stroke="#6978BE" stroke-miterlimit="10" stroke-linejoin="round"/>
<path d="M39.0722 137.014C38.6791 139.442 39.8281 143.115 40.584 145.21C41.1887 146.818 44.0006 146.788 44.5147 145.513C45.2403 143.722 45.8148 141.871 45.5729 138.441C45.331 135.011 44.0914 130.852 41.5515 130.852C38.9814 130.852 39.4652 134.586 39.0722 137.014Z" fill="#F4F6FA" stroke="#6978BE" stroke-miterlimit="10" stroke-linejoin="round"/>
<path d="M70.457 83.0741C70.457 83.0741 72.5433 84.4097 72.3014 87.3237C72.0596 90.2378 71.9386 93.85 71.9991 95.2767C72.0596 96.7033 67.887 88.0826 67.887 88.0826C67.887 88.0826 68.2498 83.924 70.457 83.0741Z" fill="#D9DDEF" stroke="#6978BE" stroke-miterlimit="10" stroke-linejoin="round"/>
<path d="M38.8603 83.0741C38.8603 83.0741 36.774 84.4097 37.0159 87.3237C37.2577 90.2378 37.3787 93.85 37.3182 95.2767C37.2577 96.7033 41.4303 88.0826 41.4303 88.0826C41.4303 88.0826 41.0675 83.924 38.8603 83.0741Z" fill="#D9DDEF" stroke="#6978BE" stroke-miterlimit="10" stroke-linejoin="round"/>
<path d="M55.3391 102.653C55.3391 102.653 55.5508 111.091 56.7904 115.857C58.0301 120.623 58.9977 125.813 58.9977 127.908C58.9977 130.002 73.632 98.0995 65.5287 91.2393C57.4254 84.3792 55.3391 102.653 55.3391 102.653Z" fill="#D9DDEF" stroke="#6978BE" stroke-miterlimit="10" stroke-linejoin="round"/>
<path d="M68.5524 87.2021C68.5524 87.2021 76.3533 96.3692 75.2951 110.939L66.708 89.2056L68.5524 87.2021Z" fill="#D9DDEF" stroke="#6978BE" stroke-miterlimit="10" stroke-linejoin="round"/>
<path d="M74.3577 107.479C74.3577 107.479 77.9256 117.435 75.3858 124.751C72.8459 132.066 71.7574 135.921 71.062 136.862C70.3363 137.803 68.25 135.861 68.885 132.036C69.52 128.211 74.3577 107.479 74.3577 107.479Z" fill="#D9DDEF" stroke="#6978BE" stroke-miterlimit="10" stroke-linejoin="round"/>
<path d="M67.9173 88.0824C69.4291 98.069 74.9321 99.6778 74.4181 110.089C73.8738 120.501 69.2477 130.215 68.8849 132.036C68.522 133.857 67.0707 133.766 66.7381 132.461C66.3753 131.034 61.8701 113.884 64.3192 104.868C66.7683 95.8531 65.5589 91.2696 65.5589 91.2696C65.5589 91.2696 66.3753 87.6878 67.9173 88.0824Z" fill="#F4F6FA" stroke="#6978BE" stroke-miterlimit="10" stroke-linejoin="round"/>
<path d="M66.3753 131.125C67.101 134.191 66.3148 137.894 64.5611 138.38C62.7772 138.866 58.6651 137.014 59.0279 128.484C59.3907 119.955 62.8981 109.24 64.1378 105.506C65.3473 101.803 66.3753 131.125 66.3753 131.125Z" fill="#F4F6FA" stroke="#6978BE" stroke-miterlimit="10" stroke-linejoin="round"/>
<path d="M53.9784 102.653C53.9784 102.653 53.7667 111.091 52.527 115.857C51.2874 120.623 50.3198 125.813 50.3198 127.908C50.3198 130.002 35.6855 98.0995 43.7888 91.2393C51.8618 84.3792 53.9784 102.653 53.9784 102.653Z" fill="#D9DDEF" stroke="#6978BE" stroke-miterlimit="10" stroke-linejoin="round"/>
<path d="M40.7652 87.2021C40.7652 87.2021 32.9643 96.3692 34.0225 110.939L42.6096 89.2056L40.7652 87.2021Z" fill="#D9DDEF" stroke="#6978BE" stroke-miterlimit="10" stroke-linejoin="round"/>
<path d="M34.9599 107.479C34.9599 107.479 31.392 117.435 33.9318 124.751C36.4717 132.066 37.5602 135.921 38.2556 136.862C38.9813 137.803 41.0676 135.861 40.4326 132.036C39.7977 128.211 34.9599 107.479 34.9599 107.479Z" fill="#D9DDEF" stroke="#6978BE" stroke-miterlimit="10" stroke-linejoin="round"/>
<path d="M41.4002 88.0825C39.8884 98.0692 34.3855 99.678 34.8995 110.09C35.4437 120.501 40.0699 130.215 40.4327 132.036C40.7955 133.857 42.2469 133.766 42.5795 132.461C42.9423 131.034 47.4475 113.884 44.9983 104.869C42.5492 95.8533 43.7587 91.2697 43.7587 91.2697C43.7587 91.2697 42.9423 87.6879 41.4002 88.0825Z" fill="#F4F6FA" stroke="#6978BE" stroke-miterlimit="10" stroke-linejoin="round"/>
<path d="M42.9421 131.125C42.2165 134.191 43.0026 137.894 44.7563 138.38C46.5402 138.866 50.6524 137.014 50.2895 128.484C49.9267 119.955 46.4193 109.24 45.1796 105.506C43.9702 101.803 42.9421 131.125 42.9421 131.125Z" fill="#F4F6FA" stroke="#6978BE" stroke-miterlimit="10" stroke-linejoin="round"/>
<path d="M87.48 74.8477C88.0243 69.9303 85.3635 69.0196 79.6489 67.5626C79.6489 67.5626 78.772 76.3655 82.5818 77.8528C86.3916 79.3402 87.7824 79.6438 88.6593 81.0401C86.966 78.126 87.48 74.8781 87.48 74.8477Z" fill="#D9DDEF" stroke="#6978BE" stroke-miterlimit="10" stroke-linejoin="round"/>
<path d="M89.5361 82.4668C89.2035 81.9811 88.9314 81.5258 88.6593 81.0705C87.7824 79.6742 86.3916 79.3403 82.5818 77.8832C81.8864 77.6101 81.3119 77.1244 80.8281 76.4869C80.8281 76.4869 81.3119 81.4044 84.3355 83.8631C87.3591 86.3218 92.469 95.7318 92.9528 97.462C92.9528 97.462 93.5575 97.0977 94.646 97.1584C94.6158 97.1584 92.0155 86.2004 89.5361 82.4668Z" fill="#D9DDEF" stroke="#6978BE" stroke-miterlimit="10" stroke-linejoin="round"/>
<path d="M79.6489 67.593C77.23 64.1933 73.6924 59.9436 73.6319 53.2656C73.5412 45.8591 79.2558 45.3734 79.9513 52.9317C80.3443 57.2724 85.9078 64.0112 85.6961 66.8038C85.545 68.8375 82.0678 70.9927 79.6489 67.593Z" fill="#D9DDEF" stroke="#6978BE" stroke-miterlimit="10" stroke-linejoin="round"/>
<path d="M87.4498 65.3771C87.4498 65.3771 92.8923 69.7178 94.2227 75.8191C95.5531 81.9203 97.3975 94.0925 97.3975 94.0925C97.3975 94.0925 95.9764 96.6727 93.5877 96.2781C93.5877 96.2781 92.0457 86.17 89.5361 82.4667C87.0265 78.7331 87.48 74.8477 87.48 74.8477C87.48 74.8477 84.0029 68.625 86.3613 65.5288L87.4498 65.3771Z" fill="#F4F6FA" stroke="#6978BE" stroke-miterlimit="10" stroke-linejoin="round"/>
<path d="M92.5295 96.4906C92.7714 93.9408 97.3673 94.123 97.3673 94.123C99.5141 95.0336 102.084 95.3371 103.777 96.8245C105.44 98.3119 106.408 98.5547 108.071 98.9493C109.734 99.344 109.25 101.196 107.134 101.105C105.017 101.013 103.898 100.649 102.538 100.224C104.533 103.867 105.622 106.629 106.378 109.968C106.559 112.154 102.78 112.123 101.268 111.516C98.3651 110.514 95.9462 105.476 94.5554 104.019C93.1645 102.41 92.2876 99.0404 92.5295 96.4906Z" fill="#D9DDEF" stroke="#6978BE" stroke-miterlimit="10" stroke-linejoin="round"/>
<path d="M102.507 100.194C100.784 99.9814 98.3349 100.255 96.0974 97.9476L102.507 100.194Z" fill="#D9DDEF"/>
<path d="M102.507 100.194C100.784 99.9814 98.3349 100.255 96.0974 97.9476" stroke="#6978BE" stroke-miterlimit="10" stroke-linejoin="round"/>
<path d="M47.9613 25.9768C47.9613 27.616 38.8602 31.8656 34.0225 36.783C34.0225 36.783 33.6294 40.8809 33.6294 51.8693C33.6294 62.8273 37.1368 65.1646 38.2555 67.4716C39.3743 69.7785 39.9185 71.873 39.465 73.3604C39.0114 74.8477 36.7437 81.7382 40.7651 87.2628C44.7865 92.7873 50.7733 100.255 52.1339 101.56C53.4945 102.865 54.6435 102.804 54.6435 102.804C54.6435 102.804 55.7925 102.835 57.1531 101.56C58.5137 100.255 64.5005 92.7873 68.5219 87.2628C72.5433 81.7382 70.2453 74.8174 69.822 73.3604C69.3685 71.9033 69.9128 69.7785 71.0315 67.4716C72.1502 65.1646 75.6576 62.8577 75.6576 51.8693C75.6576 40.9113 75.2645 36.783 75.2645 36.783C70.4268 31.896 61.3257 27.616 61.3257 25.9768H47.9613Z" fill="#D9DDEF" stroke="#6978BE" stroke-miterlimit="10" stroke-linejoin="round"/>
<path d="M54.6435 47.1643L42.5793 56.6653C38.9812 58.6991 36.7135 64.1325 38.4974 67.9269L38.9812 69.1107C39.9487 71.2052 43.4259 74.6352 46.1774 75.4852C46.1774 75.4852 49.1708 71.964 54.6435 71.964C60.1163 71.964 63.1096 75.4852 63.1096 75.4852C65.8914 74.6656 69.3685 71.2052 70.3058 69.1107L70.7896 67.9269C72.5433 64.1022 70.3058 58.6991 66.7077 56.6653L54.6435 47.1643Z" stroke="#6978BE" stroke-miterlimit="10" stroke-linejoin="round"/>
<path d="M61.8095 20.5131C61.8095 20.6952 61.2653 27.1304 61.1141 28.1321C60.3582 33.2013 57.1532 35.1136 54.6436 37.7848C56.8508 33.8084 56.9415 25.9769 56.9415 25.9769C58.1509 25.4305 61.1443 21.5755 61.8095 20.5131Z" fill="#D9DDEF" stroke="#6978BE" stroke-miterlimit="10" stroke-linejoin="round"/>
<path d="M47.4775 20.5131C47.4775 20.6952 48.0218 27.1304 48.173 28.1321C48.9289 33.2013 52.1339 35.1136 54.6435 37.7848C52.4363 33.8084 52.3456 25.9769 52.3456 25.9769C51.1663 25.4305 48.173 21.5755 47.4775 20.5131Z" fill="#D9DDEF" stroke="#6978BE" stroke-miterlimit="10" stroke-linejoin="round"/>
<path d="M56.9416 25.9768C56.9416 25.9768 56.8509 33.8083 54.6436 37.7847C52.4364 33.8083 52.3457 25.9768 52.3457 25.9768C53.0109 26.2804 53.7668 26.4625 54.6436 26.4625C55.5205 26.4625 56.2764 26.2804 56.9416 25.9768Z" fill="#D9DDEF" stroke="#6978BE" stroke-miterlimit="10" stroke-linejoin="round"/>
<path d="M62.5657 55.5726L65.045 56.3618C62.1121 55.694 59.8747 54.2066 58.9676 53.6299C58.6652 53.4477 58.3024 53.2353 57.8791 52.9924C57.8791 52.9924 57.8791 52.9924 57.8488 52.9924C56.1858 52.0211 54.6438 54.4494 54.6438 56.6046C54.6438 58.7598 56.3975 59.3365 57.0627 59.2151C57.7279 59.0633 60.7817 59.3972 62.5657 60.2168C64.3496 61.0364 64.652 60.49 64.531 58.8509C64.4403 57.2724 63.382 55.7547 62.5657 55.5726Z" fill="#F4F6FA" stroke="#6978BE" stroke-miterlimit="10" stroke-linejoin="round"/>
<path d="M63.2913 60.5507C63.0797 60.4596 62.8378 60.3686 62.5959 60.2471C61.1446 59.5793 58.8769 59.2454 57.6977 59.2151C56.6696 59.2454 54.6438 59.974 54.6438 62.1595C54.6438 64.345 55.2788 66.9859 55.7625 67.7144C56.2463 68.4732 57.2743 68.4732 58.8466 67.9876C60.4189 67.5019 62.7168 67.1376 63.9565 67.4108C65.1962 67.684 65.6498 65.9842 65.045 63.5558C64.4705 61.1578 64.017 60.8542 63.2913 60.5507Z" fill="#F4F6FA" stroke="#6978BE" stroke-miterlimit="10" stroke-linejoin="round"/>
<path d="M64.1682 67.4716C64.1077 67.4716 64.017 67.4716 63.9566 67.4413C63.7449 67.4109 63.4425 67.3805 63.11 67.3502C61.84 67.3198 60.0863 67.6537 58.8467 68.018C58.5443 68.1091 58.3024 68.1698 58.0303 68.2305C56.6999 68.6554 54.6741 69.3536 54.6741 71.0838C54.6741 72.814 54.6741 72.4801 54.6741 73.7247C54.6741 74.9692 56.0952 78.5814 57.6977 77.6708C59.3002 76.7601 62.0819 75.6977 63.1402 75.4852C64.1985 75.2424 64.8032 74.271 65.1055 71.1749C65.3474 68.2608 65.1055 67.6234 64.1682 67.4716Z" fill="#F4F6FA" stroke="#6978BE" stroke-miterlimit="10" stroke-linejoin="round"/>
<path d="M63.11 75.4851C62.7471 75.6066 62.2936 75.728 61.7796 75.8798C60.5096 76.3351 58.8164 77.0332 57.6977 77.6707C56.4278 78.6117 54.6741 80.3419 54.6741 83.0738C54.6741 85.8057 54.6741 90.7535 54.6741 94.0925C54.6741 97.4315 58.3931 94.4871 60.5096 89.8732C62.6262 85.2593 64.3799 80.0991 64.531 78.0956C64.6822 76.0922 64.4403 75.0602 63.11 75.4851Z" fill="#F4F6FA" stroke="#6978BE" stroke-miterlimit="10" stroke-linejoin="round"/>
<path d="M46.7521 55.5726L44.2727 56.3618C47.2056 55.694 49.4431 54.2066 50.3502 53.6299C50.6525 53.4477 51.0154 53.2353 51.4387 52.9924C51.4387 52.9924 51.4387 52.9924 51.4689 52.9924C53.1319 52.0211 54.6739 54.4494 54.6739 56.6046C54.6739 58.7598 52.9202 59.3365 52.255 59.2151C51.5899 59.0633 48.536 59.3972 46.7521 60.2168C44.9681 61.0364 44.6658 60.49 44.7867 58.8509C44.8774 57.2724 45.9357 55.7547 46.7521 55.5726Z" fill="#F4F6FA" stroke="#6978BE" stroke-miterlimit="10" stroke-linejoin="round"/>
<path d="M45.9962 60.5507C46.2078 60.4596 46.4497 60.3686 46.6916 60.2471C48.143 59.5793 50.4107 59.2454 51.5899 59.2151C52.6179 59.2454 54.6437 59.974 54.6437 62.1595C54.6437 64.345 54.0088 66.9859 53.5552 67.7144C53.0714 68.4732 52.0434 68.4732 50.4711 67.9876C48.8989 67.5019 46.6009 67.1376 45.3612 67.4108C44.1215 67.684 43.668 65.9842 44.2727 63.5558C44.8472 61.1578 45.3008 60.8542 45.9962 60.5507Z" fill="#F4F6FA" stroke="#6978BE" stroke-miterlimit="10" stroke-linejoin="round"/>
<path d="M45.1496 67.4716C45.2101 67.4716 45.3008 67.4716 45.3613 67.4413C45.5729 67.4109 45.8753 67.3805 46.2079 67.3502C47.4778 67.3198 49.2315 67.6537 50.4712 68.018C50.7735 68.1091 51.0154 68.1698 51.2875 68.2305C52.6179 68.6554 54.6437 69.3536 54.6437 71.0838C54.6437 72.814 54.6437 72.4801 54.6437 73.7247C54.6437 74.9692 53.2226 78.5814 51.6201 77.6708C50.0176 76.7601 47.2359 75.6977 46.1776 75.4852C45.1194 75.2424 44.5146 74.271 44.2123 71.1749C43.9704 68.2608 44.182 67.6234 45.1496 67.4716Z" fill="#F4F6FA" stroke="#6978BE" stroke-miterlimit="10" stroke-linejoin="round"/>
<path d="M46.2078 75.4851C46.5706 75.6066 47.0242 75.728 47.5382 75.8798C48.8081 76.3351 50.5013 77.0332 51.62 77.6707C52.89 78.6117 54.6437 80.3419 54.6437 83.0738C54.6437 85.8057 54.6437 90.7535 54.6437 94.0925C54.6437 97.4315 50.9246 94.4871 48.8081 89.8732C46.6916 85.2593 44.9379 80.0991 44.7867 78.0956C44.6355 76.0922 44.8774 75.0602 46.2078 75.4851Z" fill="#F4F6FA" stroke="#6978BE" stroke-miterlimit="10" stroke-linejoin="round"/>
<path d="M59.9954 24.6109C59.2698 25.734 58.3325 26.7357 57.0625 27.2821C56.3671 27.5856 55.5507 27.7678 54.6436 27.7678C53.7366 27.7678 52.9504 27.5856 52.2248 27.2821C50.9548 26.7053 50.0175 25.734 49.2919 24.6109C47.5684 21.9093 47.2358 19.4809 47.2358 19.4809C47.2358 19.4809 45.3309 19.9363 44.575 16.233C43.8493 12.4387 46.2682 12.6815 46.2682 12.6815C46.2682 12.6815 45.4821 10.2835 46.2985 6.61059C47.1149 2.93769 50.6827 0.448608 54.6436 0.448608C58.6046 0.448608 62.1724 2.90733 62.9888 6.61059C63.8052 10.2835 63.0191 12.6815 63.0191 12.6815C63.0191 12.6815 65.4379 12.469 64.682 16.233C63.9261 19.9363 62.0213 19.4809 62.0213 19.4809C62.0213 19.4809 61.6887 21.9093 59.9954 24.6109Z" fill="#D9DDEF" stroke="#6978BE" stroke-miterlimit="10" stroke-linejoin="round"/>
<path d="M84.1239 54.662C79.8908 53.3264 79.1047 52.1425 77.7138 51.414C71.5456 48.1661 68.5522 38.8169 68.5522 38.8169C68.5522 38.8169 71.8177 36.0242 76.1718 36.9045C80.5258 37.7848 88.3267 39.3632 84.1239 54.662Z" fill="#F4F6FA" stroke="#6978BE" stroke-miterlimit="10" stroke-linejoin="round"/>
<path d="M79.2861 52.1425C79.2861 52.1425 77.7441 55.785 79.5582 63.7379C81.3724 71.6908 87.5103 74.8781 87.5103 74.8781C87.5103 74.8781 93.4064 56.3921 79.2861 52.1425Z" fill="#D9DDEF" stroke="#6978BE" stroke-miterlimit="10"/>
<path d="M21.8071 74.8477C21.2629 69.9303 23.9237 69.0196 29.6383 67.5626C29.6383 67.5626 30.5151 76.3655 26.7054 77.8528C22.8956 79.3402 21.5048 79.6438 20.6279 81.0401C22.3514 78.126 21.8071 74.8781 21.8071 74.8477Z" fill="#D9DDEF" stroke="#6978BE" stroke-miterlimit="10" stroke-linejoin="round"/>
<path d="M19.7813 82.4668C20.1139 81.9811 20.386 81.5258 20.6581 81.0705C21.535 79.6742 22.9259 79.3403 26.7356 77.8832C27.431 77.6101 28.0055 77.1244 28.4893 76.4869C28.4893 76.4869 28.0055 81.4044 24.9819 83.8631C21.9583 86.3218 16.8484 95.7318 16.3646 97.462C16.3646 97.462 15.7599 97.0977 14.6714 97.1584C14.7016 97.1584 17.2717 86.2004 19.7813 82.4668Z" fill="#D9DDEF" stroke="#6978BE" stroke-miterlimit="10" stroke-linejoin="round"/>
<path d="M29.6383 67.593C32.0572 64.1933 35.5948 59.9436 35.6553 53.2656C35.746 45.8591 30.0314 45.3734 29.336 52.9317C28.9429 57.2724 23.3794 64.0112 23.5911 66.8038C23.7423 68.8375 27.2194 70.9927 29.6383 67.593Z" fill="#D9DDEF" stroke="#6978BE" stroke-miterlimit="10" stroke-linejoin="round"/>
<path d="M21.8676 65.3771C21.8676 65.3771 16.4251 69.7178 15.0947 75.8191C13.7643 81.9203 11.9199 94.0925 11.9199 94.0925C11.9199 94.0925 13.341 96.6727 15.7297 96.2781C15.7297 96.2781 17.2717 86.17 19.7813 82.4667C22.2909 78.7331 21.8374 74.8477 21.8374 74.8477C21.8374 74.8477 25.3145 68.625 22.9561 65.5288L21.8676 65.3771Z" fill="#F4F6FA" stroke="#6978BE" stroke-miterlimit="10" stroke-linejoin="round"/>
<path d="M16.7577 96.4906C16.5158 93.9408 11.9199 94.123 11.9199 94.123C9.77318 95.0336 7.2031 95.3371 5.50988 96.8245C3.84689 98.3119 2.87934 98.5547 1.21635 98.9493C-0.446636 99.344 0.0371418 101.196 2.15367 101.105C4.2702 101.013 5.38894 100.649 6.74956 100.224C4.75398 103.867 3.66548 106.629 2.90957 109.968C2.72816 112.154 6.50767 112.123 8.01948 111.516C10.9221 110.514 13.341 105.476 14.7319 104.019C16.153 102.41 16.9996 99.0404 16.7577 96.4906Z" fill="#D9DDEF" stroke="#6978BE" stroke-miterlimit="10" stroke-linejoin="round"/>
<path d="M6.77979 100.194C8.50324 99.9814 10.9524 100.255 13.1898 97.9476L6.77979 100.194Z" fill="#D9DDEF"/>
<path d="M6.77979 100.194C8.50324 99.9814 10.9524 100.255 13.1898 97.9476" stroke="#6978BE" stroke-miterlimit="10" stroke-linejoin="round"/>
<path d="M25.1937 54.662C29.4267 53.3264 30.2129 52.1425 31.6037 51.414C37.7719 48.1661 40.7653 38.8169 40.7653 38.8169C40.7653 38.8169 37.4998 36.0242 33.1458 36.9045C28.7615 37.7848 20.9908 39.3632 25.1937 54.662Z" fill="#F4F6FA" stroke="#6978BE" stroke-miterlimit="10" stroke-linejoin="round"/>
<path d="M30.0314 52.1425C30.0314 52.1425 31.5735 55.785 29.7593 63.7379C27.9451 71.6908 21.8072 74.8781 21.8072 74.8781C21.8072 74.8781 15.8809 56.3921 30.0314 52.1425Z" fill="#D9DDEF" stroke="#6978BE" stroke-miterlimit="10"/>
<path d="M68.7036 39.2721C67.8268 38.7257 66.8592 38.3007 65.8312 38.1186C58.9374 36.9348 57.1837 37.7544 55.9742 39.2114C54.7648 40.6684 54.6741 42.6415 54.6741 47.1339C54.6741 51.6264 57.6675 52.8406 58.9978 53.6602C60.3282 54.4494 64.3799 57.2117 69.3386 56.6349C74.2973 56.0582 75.1742 52.1425 76.5046 50.6551C71.9087 47.4678 69.3386 41.0327 68.7036 39.2721Z" fill="#F4F6FA" stroke="#6978BE" stroke-miterlimit="10" stroke-linejoin="round"/>
<path d="M40.7653 38.8168C40.7653 38.8168 42.4586 38.2704 43.4866 38.1187C50.4107 37.1473 52.1341 37.7544 53.3436 39.2114C54.553 40.6685 54.6437 42.6415 54.6437 47.134C54.6437 51.6265 51.6503 52.8407 50.32 53.6602C48.9896 54.4494 44.9379 57.2117 39.9792 56.635C35.0205 56.0582 34.1436 52.1425 32.8132 50.6551C37.4091 47.4679 40.1304 40.5774 40.7653 38.8168Z" fill="#F4F6FA" stroke="#6978BE" stroke-miterlimit="10" stroke-linejoin="round"/>
</g>
<defs>
<clipPath id="clip0_168_4064">
<rect width="109.304" height="198.428" fill="white" transform="translate(0.00683594 0.205811)"/>
</clipPath>
</defs>
</svg>
