<?xml version="1.0" encoding="utf-8"?>
<!-- Generator: Adobe Illustrator 27.1.1, SVG Export Plug-In . SVG Version: 6.00 Build 0)  -->
<svg version="1.1" id="Layer_1" xmlns="http://www.w3.org/2000/svg" xmlns:xlink="http://www.w3.org/1999/xlink" x="0px" y="0px"
	 viewBox="0 0 1162.2 1692.28" style="enable-background:new 0 0 1162.2 1692.28;" xml:space="preserve">
<style type="text/css">
	.st0{fill:#D1D4EB;stroke:#6A78BA;stroke-width:1.5854;stroke-linejoin:round;stroke-miterlimit:10;}
	.st1{display:none;fill:#855FA8;stroke:#FFFFFF;stroke-width:3.713;stroke-linejoin:round;stroke-miterlimit:10;}
	.st2{fill:#EFF0F8;stroke:#6A78BA;stroke-width:1.5854;stroke-linejoin:round;stroke-miterlimit:10;}
	.st3{fill:#FFFFFF;stroke:#6A78BA;stroke-width:1.5854;stroke-linejoin:round;stroke-miterlimit:10;}
	.st4{display:none;fill:#855EA7;stroke:#FFFFFF;stroke-width:3.713;stroke-linejoin:round;stroke-miterlimit:10;}
	.st5{display:none;fill:#845BA6;stroke:#FFFFFF;stroke-width:3.713;stroke-linejoin:round;stroke-miterlimit:10;}
	.st6{fill:#D1D4EB;stroke:#6A79BA;stroke-width:1.585;stroke-linejoin:round;stroke-miterlimit:10;}
	.st7{display:none;fill:#855CA6;stroke:#FFFFFF;stroke-width:3.713;stroke-linejoin:round;stroke-miterlimit:10;}
	.st8{display:none;fill:#EFF0F8;stroke:#6A78BA;stroke-width:1.5854;stroke-linejoin:round;stroke-miterlimit:10;}
	.st9{fill:#F0F0F8;stroke:#6A79BA;stroke-width:1.585;stroke-miterlimit:10;}
	.st10{display:none;fill:#845BA6;stroke:#FFFFFF;stroke-width:3.713;stroke-miterlimit:10;}
	.st11{display:none;fill:#855DA7;stroke:#FFFFFF;stroke-width:3.713;stroke-linejoin:round;stroke-miterlimit:10;}
	.st12{display:none;fill:#855CA6;stroke:#FFFFFF;stroke-width:3.713;stroke-miterlimit:10;}
	.st13{display:none;}
	.st14{display:inline;fill:#EFF0F8;stroke:#6A78BA;stroke-width:1.5854;stroke-linejoin:round;stroke-miterlimit:10;}
	.st15{display:inline;fill:#CFCCE6;stroke:#FFFFFF;stroke-width:3.7132;stroke-miterlimit:10;}
	.st16{display:none;fill:#835AA6;stroke:#FFFFFF;stroke-width:3.7132;stroke-miterlimit:10;}
	.st17{display:none;fill:#845BA6;stroke:#FFFFFF;stroke-width:3.7132;stroke-miterlimit:10;}
	.st18{fill:#F0F0F8;stroke:#6A79BA;stroke-width:1.585;stroke-linejoin:round;stroke-miterlimit:10;}
	.st19{fill:#F0F0F8;stroke:#6A78BA;stroke-width:1.5854;stroke-linejoin:round;stroke-miterlimit:10;}
	.st20{fill:#212121;}
	.st21{fill:none;stroke:#6A78BA;stroke-width:1.5854;stroke-linejoin:round;stroke-miterlimit:10;}
	.st22{fill:#F0A798;stroke:#E55752;stroke-width:3.7132;stroke-miterlimit:10;}
</style>
<path class="st0" d="M704.16,1554.1c19.73,20.85,44.95,61.1,47.37,77.1s-11.67,33.94-27.41,41.22c-15.74,7.27-30.56,0.97-39.39-3.88
	c-8.83-4.85-20.94-13.09-24.34-44.61c-3.4-31.52-3.89-35.88-14.56-44.61c-10.67-8.73-13.12-21.82-2.44-39.76
	C654.06,1521.61,693.15,1522.58,704.16,1554.1z"/>
<path class="st0" d="M726.72,1203.5c0,0,29.17,83.91,12.69,149.37c-16.49,65.46-45.58,127.53-47.03,149.83
	c-1.45,22.3,11.79,51.4,11.79,51.4s-1.58-5.24-5.59-10.77c-1.96-2.7-4.31-5.24-7.69-7.82c-3.05-2.32-6.75-4.29-11.19-5.79
	c0,0,1.57-6.72,2.89-16.72l2.26-19.72l1.41-14.29l5.69-65.58l5.12-55.97l0.92-8.11l0.69-5.8l0.43-3.96l0.54-5.64l0.44-5.46
	l0.53-8.19l0.79-22.06l0.16-6.87c0.01-8,0.94-19.23,1.75-22.58l0.75-3.01c0.07-0.27,1.55-3.92,3.11-6.35
	c2.22-3.45,3.79-7.27,4.9-10.58c2.11-6.29,2.69-11.9,3.13-15.25l2.32-3.84c2.38-3.78,6.21-13.79,8.17-22.03L726.72,1203.5z"/>
<path class="st1" d="M726.56,1203.04c0,0,29.33,84.37,12.84,149.83c-16.49,65.46-45.58,127.53-47.03,149.83
	c-1.45,22.3,11.79,51.4,11.79,51.4s-13.75-38.79-60.77-14.55l-2.9-17.48l51.97-288.49L726.56,1203.04z"/>
<path class="st0" d="M647.8,1220.97c0,0-18.77,62.08-13.92,96.99c4.85,34.91,17.17,126.23,13.92,144.82
	c-1.4,7.99-18.05,29.28-12.59,44.29c2.9,7.96,8.31,32.27,8.31,32.27s4.73-8.67,17.88-10.95c0,0-0.13-0.27,1.41-10.49
	c0.94-6.24,1.72-13.43,2.66-22.76c0.76-7.53,1.44-16.16,2.12-25.18c0.67-8.91,0.97-18.03,1.62-28.04
	c0.36-5.63,0.39-11.43,0.68-17.39c0.49-10.32,0.38-20.36,0.68-31.04c0.67-23.64-1.94-45.57-5.12-66.74
	c-3.63-24.2-8.07-46.24-10.49-59.72c0,0-2.05-9.53-2.24-19.37c-0.13-6.88,1.71-13.41,3.62-17.93c0,0-1.95-1.87-3.44-3.35
	C650.38,1223.92,647.8,1220.97,647.8,1220.97z"/>
<path class="st1" d="M647.62,1220.97c0,0-18.77,62.08-13.92,96.99c4.85,34.91,17.17,126.23,13.92,144.82
	c-1.4,7.99-18.05,29.28-12.59,44.29c2.9,7.96,8.36,32.49,8.36,32.49s9.81-6.98,22.61-7.12c12.8-0.14,21.74-214.47,9.29-271.69
	C656.38,1173.83,647.62,1220.97,647.62,1220.97z"/>
<path class="st0" d="M740.77,1113.45c-6.77,20.21-7.15,93.47-25.57,120.14c0,0,0.94-7.31-0.7-15.11c-1.07-5.09-3.71-8.63-3.71-8.63
	c6.49-24.19,4.16-38.27,3.91-39.54c0,0,0.78,0.24,1.93,0.24c0.86,0,2.01-0.34,3.13-1.59c1.26-1.39,2.22-3.18,3.68-6.41
	c2.63-5.83,4.57-11.6,6.32-16.52C738.22,1122.3,740.77,1113.45,740.77,1113.45z"/>
<path class="st1" d="M741.52,1114.04c-6.77,20.21-8.42,92.88-26.85,119.55c0,0-17.94-49.94,0-86.31
	C732.62,1110.91,741.52,1114.04,741.52,1114.04z"/>
<path class="st0" d="M624.48,1142.71c0,0-0.16,34.95,10.51,58.87c4.14,9.27,10.55,17.29,16.59,23.5c1.65,1.7,3.18,3.23,4.74,4.65
	c0,0,1.48-3.55,2.96-5.91c1.36-2.19,3.56-4.97,3.56-4.97c-2.07-9.81-3.57-22.51-2-37.15c0,0-5.88,0.12-13.36-4.16
	c-2.83-1.62-5.26-3.84-8.61-6.98c-1.96-1.84-3.72-4.08-5.28-6.47C627.45,1154.63,624.48,1142.71,624.48,1142.71z"/>
<path class="st1" d="M625.43,1142.71c0,0-1.11,34.95,9.56,58.87c10.67,23.92,34.59,38.47,34.59,38.47s13.92-55.28-9.2-82.43
	C637.25,1130.47,625.43,1142.71,625.43,1142.71z"/>
<path class="st2" d="M662.83,1218.85c0,0-3.61,3.82-6.52,10.88c0,0,0,0,0,0c-2.49,6.04-4.47,14.44-3.26,24.87
	c2.62,22.63,17.81,85.92,17.58,128.33c-0.47,84.77-7.06,131.39-9.43,145.45c0,0,3.9-0.86,8.68-0.51c1.6,0.12,3,0.23,4.52,0.53
	c2.78,0.53,5.27,1.31,5.27,1.31c5.96-21.91,12.97-137.86,18.5-182.18c5.82-46.55,0.38-76.13,8.51-87.44
	c7.55-10.5,13.15-37.94,4.09-50.25c0,0-0.24,1.09-0.7,2.77c-0.83,3.05-2.31,8.19-3.99,13.24c-0.95,2.86-2.15,6.38-2.15,6.38
	c-1,2.75-2.32,6.94-4.05,8.98c-1.91,2.25-4.53,4.02-7.26,5.04c-2.83,1.06-5.77,1.32-7.54,1.4c-4.18,0.18-9.26-0.93-12.82-3.91
	c-1.78-1.49-2.29-2.8-3.36-5.34c-1-2.35-2.69-7.25-3.74-10.55C663.59,1222.85,662.83,1218.85,662.83,1218.85z"/>
<path class="st1" d="M662.83,1218.85c0,0-12.4,13.12-9.77,35.75c2.62,22.63,17.81,85.92,17.58,128.33
	c-0.57,103.44-10.26,150.07-10.26,150.07s10.26-1.4,18.42-0.71c6.14-12.61,13.58-138.2,19.4-184.75
	c5.82-46.55,0.38-76.13,8.51-87.44c8.14-11.31,14.01-42.31,1.7-52.84C696.09,1196.74,662.83,1218.85,662.83,1218.85z"/>
<path class="st3" d="M714.7,1170.31c0.33,1.97,0.58,4.96,0.6,7.16c0.04,3.94-0.04,7.11-0.51,11.42
	c-1.88,17.13-8.09,36.11-12.75,48.58c-4.99,13.36-28.3,12.92-32.46,2.59c-5.89-14.65-10.7-30.08-8.74-58.36
	c0,0,10.45,2.31,16.89-11.14c6.11-12.77,6.11-27.84,6.11-40.23c0,0,0.37,4.57,2.9,7.43c0.87,0.99,3.15,3.14,6.23,2.93
	c2.64-0.18,4.28-1.33,6.27-4.03c2.32-3.15,2.85-7.8,2.85-7.8c-0.7,3.62-0.78,7.83-0.91,12.36c-0.15,5.25,1.76,12.72,1.76,12.72
	c1.86,7.42,5.88,12.06,5.88,12.06C712.18,1169.95,714.7,1170.31,714.7,1170.31z"/>
<path class="st4" d="M443.52,1203.04c0,0-29.33,84.37-12.84,149.83c16.49,65.46,45.58,127.53,47.03,149.83
	c1.45,22.3-11.79,51.4-11.79,51.4s13.75-38.79,60.77-14.55l2.9-17.48l-51.97-288.49L443.52,1203.04z"/>
<path class="st4" d="M522.46,1220.97c0,0,18.77,62.08,13.92,96.99c-4.85,34.91-17.17,126.23-13.92,144.82
	c1.4,7.99,18.05,29.28,12.59,44.29c-2.89,7.96-8.36,32.49-8.36,32.49s-9.81-6.98-22.61-7.12c-12.8-0.14-21.74-214.47-9.29-271.69
	C513.7,1173.83,522.46,1220.97,522.46,1220.97z"/>
<path class="st4" d="M428.55,1114.04c6.77,20.21,8.42,92.88,26.85,119.55c0,0,17.94-49.94,0-86.31
	C437.46,1110.91,428.55,1114.04,428.55,1114.04z"/>
<path class="st4" d="M544.65,1142.71c0,0,1.11,34.95-9.56,58.87c-10.67,23.92-34.59,38.47-34.59,38.47s-13.92-55.28,9.2-82.43
	C532.82,1130.47,544.65,1142.71,544.65,1142.71z"/>
<path class="st4" d="M507.24,1218.85c0,0,12.4,13.12,9.78,35.75c-2.62,22.63-17.81,85.92-17.58,128.33
	c0.57,103.44,10.26,150.07,10.26,150.07s-10.26-1.4-18.42-0.71c-6.14-12.61-13.58-138.2-19.4-184.75
	c-5.82-46.55-0.38-76.13-8.51-87.44c-8.14-11.31-14.01-42.31-1.7-52.84C473.99,1196.74,507.24,1218.85,507.24,1218.85z"/>
<path class="st3" d="M713.28,738.9l0.88-2.4l1.3-3.92l0.9-3.08l0.75-2.9c4.33,3.56,15.14,14.52,13.58,33.75
	c-1.24,15.32-2.09,33.1-2.41,46.96c0,0-2.54-5.32-5.16-10.51c-5.24-10.4-14.19-24.23-14.19-24.23L701,761.32
	C706.29,754.93,709.84,747.38,713.28,738.9z"/>
<path class="st0" d="M590.91,890.23l-0.84,0.27c0.55,14.98,3.15,71.19,11.92,105.01c10.18,39.28,18.82,82.21,18.87,99.62
	c0.01,4.8-0.05-17.4,7.76-58.84c1.9-10.06,4.34-20.97,7.05-32.44c2-8.47,4.36-17.7,6.98-27.13c3.8-13.72,8.04-28.03,12.22-41.47
	c3.88-12.49,7.49-23.09,10.75-35.03c5.59-20.42,8.99-42.65,10.61-60.02c2.53-27.19-1.33-44.14-1.33-44.14
	c-7.68,10.23-22.95,30.42-43.6,55.39c-1.67,2.01-4.09,5-6.75,8.17c-3.1,3.7-6.56,7.68-10.15,11.94
	c-4.56,5.41-9.46,10.79-14.86,14.34C596.29,888.03,594.32,888.98,590.91,890.23z"/>
<path class="st1" d="M590.16,886.68c0,0,1.86,69.56,12.04,108.83c10.18,39.28,18.2,82,18.25,99.4s121.03-245.56,54.06-302.19
	S590.16,886.68,590.16,886.68z"/>
<path class="st0" d="M698.06,765.56l2.97-4.05c9.81,13.81,57.2,71.91,57.2,205.92l-2.07-9.88l-1.33-5.68l-1.64-6.48l-1.08-4
	c-1.48-5.86-4.08-13.16-4.59-14.91c0,0,0.47-4.14-0.44-10.01l-0.74-5.59c-0.53-4.13-2.51-11.97-2.87-13.28l-1.35-4.48
	c-2.01-6.25-3.75-10.51-3.81-10.65l-1.82-4.47l-2.64-6.01l-4.3-9.09l-3.26-6.58l-5.56-11.06l-5.35-11.17l-2.49-5.2l-2.98-6.81
	l-3.01-7.43c-1.15-2.42-6.34-18.1-6.76-20.6l-1.74-6.29l-1.75-7.54l-1.16-5.71l-0.79-4.4L698.06,765.56z"/>
<path class="st1" d="M699.42,759.52c0,0,64.46,75.49,55.79,195.75l-70.97-179.07L699.42,759.52z"/>
<path class="st0" d="M747.51,926.49c0,0,29.45,82.11,8.5,142.23s-29.97,92.13-35.89,99.89s-23.05-8.19-18.03-39.76
	c0.99-6.25,2.77-13.45,6.01-24.16c0.82-2.71,1.84-6.15,2.91-9.13c1.55-4.29,3.06-8.99,4.76-13.78c2.53-7.13,5.95-16,8.67-23.98
	c4.35-12.78,8.96-25.71,12.83-40.78c1.71-6.68,3.39-13.79,4.66-20.91c1.63-9.15,3.02-18.52,3.8-26.83
	c1.16-12.47,1.3-20.81,1.49-27.57c0.14-5.04-0.08-8.75-0.01-11.47C747.27,927.75,747.51,926.49,747.51,926.49z"/>
<path class="st1" d="M747.51,926.49c0,0,29.45,82.11,8.5,142.23s-29.97,92.13-35.89,99.89s-23.37-8.24-18.03-39.76
	C707.42,1097.34,747.51,926.49,747.51,926.49z"/>
<path class="st2" d="M687.95,779.15c3.92-5.13,6.78-9.03,6.78-9.03c10.22,61.78,39.81,89.08,50.38,133.86
	c0.78,3.31,1.38,7.95,1.88,11.95c0.53,4.29,0.91,7.9,0.52,10.56l-0.32,3.96c1.62,90.05-30.05,133.98-43.84,191.59
	c-0.75,3.12-0.93,5.55-1.26,7.24c-2.92,15.03-15.06,14.23-17.85,3.39c-2.08-8.07-3.76-77.83-7.47-145.1
	c-1.14-20.59-2.37-36.6-3.61-48.61c-0.56-5.44-1.03-10.15-1.66-13.93c-0.78-4.63-1.37-8.59-2.14-11.78
	c-0.63-2.62-1.41-4.74-2.2-5.99c-2.64-4.15-5.26,5.92-5.26,5.92l2.38-7.92c17.11-62.35,12.7-99.08,10.85-109.22l5.14-6.73
	C680.26,789.32,686.47,781.12,687.95,779.15z"/>
<path class="st1" d="M694.23,766.57c12.51,82.36,58.07,95.6,53.67,181.42c-4.4,85.83-42.89,165.83-45.81,180.86
	c-2.92,15.03-15.06,14.23-17.85,3.39c-3-11.64-40.34-153.22-19.97-227.41c20.37-74.19,10.24-112.11,10.24-112.11
	S681.41,763.36,694.23,766.57z"/>
<path class="st2" d="M682.98,1120.42c3.02,29.01-1.85,56.92-16.59,60.8c-14.73,3.88-48.68-11.15-45.77-81.46
	c2.91-70.31,31.48-159.62,42.25-189.31C677.02,871.42,682.98,1120.42,682.98,1120.42z"/>
<path class="st1" d="M681.52,1121.51c6.02,25.28-0.39,55.83-15.12,59.71c-14.73,3.88-48.68-11.15-45.77-81.46
	c2.91-70.31,32.13-158.49,42.25-189.31C673,879.62,681.52,1121.51,681.52,1121.51z"/>
<path class="st4" d="M578.85,886.68c0,0-1.86,69.56-12.04,108.83c-10.18,39.28-18.2,82-18.25,99.4
	c-0.05,17.4-121.03-245.56-54.06-302.19S578.85,886.68,578.85,886.68z"/>
<path class="st3" d="M408.51,466.57c0,91.49,29.5,110.91,38.82,130.05c9.33,19.14,13.82,36.81,10.1,49.09
	c-3.72,12.27-22.86,70,10.76,115.99c33.62,45.99,83.75,108.49,95.25,119.29c11.5,10.8,21.09,10.47,21.09,10.47
	s9.59,0.33,21.09-10.47c11.5-10.8,61.77-73.49,95.39-119.48c1.98-2.71,3.75-5.27,5.38-8.05c2.41-4.1,4.33-8.32,6.04-12.52
	c16.79-41.17,2.38-84.76-0.8-95.24c-3.72-12.27,0.78-29.94,10.1-49.09c9.33-19.14,38.82-38.56,38.82-130.05
	C760.59,375.08,408.51,375.08,408.51,466.57z"/>
<path class="st4" d="M469.59,759.52c0,0-64.46,75.49-55.79,195.75l70.97-179.07L469.59,759.52z"/>
<path class="st4" d="M421.5,926.49c0,0-29.45,82.11-8.5,142.23c20.95,60.13,29.97,92.13,35.89,99.89
	c5.91,7.76,23.37-8.24,18.03-39.76C461.59,1097.34,421.5,926.49,421.5,926.49z"/>
<path class="st4" d="M474.78,766.57c-12.51,82.36-58.07,95.6-53.67,181.42c4.4,85.83,42.89,165.83,45.81,180.86
	c2.92,15.03,15.06,14.23,17.85,3.39c3-11.64,40.34-153.22,19.97-227.41S494.5,792.72,494.5,792.72S487.6,763.36,474.78,766.57z"/>
<path class="st4" d="M487.49,1121.51c-6.02,25.28,0.39,55.83,15.12,59.71c14.74,3.88,48.68-11.15,45.77-81.46
	c-2.91-70.31-32.13-158.49-42.25-189.31C496.01,879.62,487.49,1121.51,487.49,1121.51z"/>
<path class="st0" d="M856.11,657.7c-7.82-4.37-12.38-7.62-22.13-16.41c-2.94-2.65-7.85-7.68-11.86-12.28
	c-6.11-7-10.01-13.23-12.91-17.58c0,0-9.99-2.22-17.91-13.68h-0.01c0,0-7.14,72.65,24.27,84.8c31.41,12.15,43.48,14.65,50.72,26.2
	c0.01,0.02-0.01-0.02,0,0C852.18,684.52,856.11,657.7,856.11,657.7z"/>
<path class="st5" d="M856.11,657.7c4.45-40.61-17.57-48.12-64.81-59.95h-0.01c0,0-7.14,72.65,24.27,84.8
	c31.41,12.15,42.98,14.78,50.21,26.33c0.01,0.02,0.02,0.03,0.04,0.05C851.71,684.69,856.11,657.7,856.11,657.7z"/>
<path class="st0" d="M873,720.43c-2.7-4.02-4.61-8.03-6.73-11.68c0,0,0.01,0.02,0,0c-1.93-3.09-4.05-5.27-6.63-7.27
	c-2.74-2.12-5.99-4-10.31-5.9c-5.22-2.29-11.61-4.93-21.16-8.27c-2.9-1.01-9.3-3.61-12.62-4.77c-6.38-2.23-13.05-9.58-15.06-14.34
	l0.71,4.82c0,0,3.8,38.59,28.73,58.91c21.78,17.75,56.94,79.21,68.01,103.92c0,0,0.09-1.89,0.95-4.19c0.54-1.45,1.47-3.06,2.64-4.49
	c3.03-3.7,8.35-6.06,8.35-6.06C902.28,792.6,887.44,741.94,873,720.43z"/>
<path class="st5" d="M873,720.43c-2.7-4.02-5.08-7.86-7.2-11.5c-0.01-0.02-0.02-0.03-0.04-0.05c-7.23-11.55-18.8-14.18-50.21-26.33
	c-5.74-2.22-10.55-6.29-14.59-11.43l0,0c0,0,4.04,40.5,28.97,60.81c24.93,20.31,67.37,97.87,71.18,112.07c0,0,4.89-2.98,13.98-2.48
	C915.1,841.53,893.65,751.19,873,720.43z"/>
<path class="st0" d="M791.31,597.71c-12.21-17.05-27.71-38.49-37.88-63.92c-4.69-11.72-8.36-24.46-10.11-39.91
	c-0.14-1.27-0.48-2.61-0.88-3.88c0,0,4.66-3.7,4.96-7.27c0.12-1.44-1.01-2.39-1.01-2.39s0.8,0.73,1.77,0.28
	c0.37-0.17,0.86-0.4,1.54-1.14c2.2-2.4,3.92-6.03,5.73-8.56c2.4-3.36,4.26-6.27,5.17-7.58l-0.8-4.09l-0.62-2.57l-0.7-2.17
	l-1.05-2.53c1.14,0.88,2.72,2.15,4.45,3.36c1.32,0.92,3,1.94,3,1.94c0.79,0.49,2.16,1.43,4.82,2.88c1.78,0.97,4.22,2.12,7.13,3.72
	c4.2,2.31,5.89,3.36,11.34,6.12c0,0-0.22,0.25-1.62,5.24c-1.28,4.57-2.56,13.29-2.89,19.17c-0.69,12.01-0.89,24.88,1.14,39.46
	c1.46,10.49,3.28,23.44,5.98,33.43c4.1,15.17,6.03,19.86,9.29,27.14c5.58,12.48,9.14,17,9.14,17
	C803.08,609.7,796.86,605.45,791.31,597.71z"/>
<path class="st5" d="M791.3,597.75c-20.01-27.94-49.24-63.15-49.84-118.12c-0.67-60.94,46.61-64.99,52.39-2.84
	c3.32,35.66,49.31,91.28,47.57,114.27C840.13,608.13,811.31,625.68,791.3,597.75z"/>
<path class="st2" d="M866.3,589.25c13.99,13.89,37.85,41.75,45.48,76.45c11.03,50.19,26.26,150.61,26.26,150.61s-1.35-0.02-3.58,0
	c-2.86,0.02-7.15,0.37-11.78,1.1c-3.35,0.52-6.54,1.37-8.92,2.18c-2.35,0.8-3.87,1.53-3.87,1.53c-1.3-4.83-2.15-8.51-4.39-16.29
	c-3.22-11.2-7.55-25.61-12.41-39.33c-3.8-10.74-7.35-19.84-11.41-29.01c-2.36-5.34-6.05-12.14-8.68-16.06
	c-2.58-3.84-4.76-7.94-6.73-11.68c-2.36-4.48-4.38-8.57-5.88-12.84c-1.7-4.85-2.77-9.66-3.53-13.96
	c-2.5-14.04-0.75-24.24-0.75-24.24s7.6-24.09,9.47-51.63L866.3,589.25z"/>
<path class="st5" d="M855.77,579.63c0,0,44.97,35.88,56,86.06s26.26,150.61,26.26,150.61s-11.83,21.2-31.63,18.07
	c0,0-12.76-83.18-33.41-113.95c-20.66-30.76-16.89-62.73-16.89-62.73s-28.86-51.21-9.26-76.91L855.77,579.63z"/>
<path class="st0" d="M897.94,835.85c1.96-21.05,40.09-19.54,40.09-19.54c17.68,7.6,39.11,9.96,52.92,22.19
	c13.81,12.23,21.76,14.26,35.45,17.6c13.69,3.33,9.67,18.54-7.85,17.78c-17.54-0.75-26.74-3.82-38.11-7.32l0,0c0,0,0,0,0,0
	c16.4,30,25.56,52.83,31.73,80.41c1.56,17.98-29.7,17.71-42.34,12.87c-24.04-8.23-44.12-49.82-55.47-61.91
	C903.04,884.82,895.98,856.9,897.94,835.85z"/>
<path class="st0" d="M980.44,866.56c-14.3-1.76-34.43,0.45-53.07-18.39"/>
<path class="st6" d="M639.02,252.89c-0.08,3.52,0.04,10.49,0,13.06v40.97c3.76,27.39,15.8,37.61,28.99,44.29
	c0,0,3.95,0.81,15.78,3.62c6.81,1.62,12.43,3.79,16.03,5.5c0,0-0.1-0.93,1.18-1.89c3.97-2.98,11.96-7.61,18.78-10.33
	c12.03-4.49,20.55-5.54,28.61-5.74c2.77-0.07,8.26,0.55,10.47,0.88c-1.18,0.03-3.88-1.28-4.64-1.96l-4.72-4.54
	c-2.91-2.7-7.46-6.53-7.46-6.53c-6.68-5.75-19.62-15.27-19.62-15.27c-16.02-12.28-68.74-44.64-75.48-51.96c0,0-2.6-2.28-3.86-3.78
	C642,257.95,639.53,254.17,639.02,252.89z"/>
<path class="st7" d="M638.59,253.32c-0.08,3.52,0.04,10.49,0,13.06v40.97c3.76,27.39,15.8,37.61,28.99,44.29
	c0,0,3.95,0.81,15.78,3.62c6.81,1.62,12.43,3.79,16.03,5.5c0,0-0.1-0.93,1.18-1.89c3.97-2.98,11.96-7.61,18.78-10.33
	c12.03-4.49,20.55-5.54,28.61-5.74c2.77-0.07,8.26,0.55,10.47,0.88c-1.18,0.03-3.88-1.28-4.64-1.96l-4.72-4.54
	c-2.91-2.7-7.46-6.53-7.46-6.53c-6.68-5.75-19.62-15.27-19.62-15.27c-16.02-12.28-68.74-44.64-75.48-51.96c0,0-2.6-2.28-3.86-3.78
	C641.57,258.38,639.1,254.6,638.59,253.32z"/>
<path class="st2" d="M649.97,498.83c0,0-22.25-11.3-29.81-15.85c-2.43-1.47-5.56-3.13-8.94-5.2c-0.05-0.03-0.12-0.07-0.17-0.1
	c-13.73-8.13-26.54,12.08-26.54,29.86c0,17.78,14.63,22.63,20.12,21.49c5.5-1.14,30.71,1.46,45.58,8.25
	c14.87,6.79,17.18,2.35,16.19-11.15C665.4,512.63,656.76,500.17,649.97,498.83z"/>
<path class="st5" d="M649.97,498.83c0,0,20.53,6.58,20.5,6.57c-24.29-5.55-42.75-17.87-50.31-22.43c-2.43-1.47-5.56-3.13-8.94-5.2
	c-0.05-0.03-0.12-0.07-0.17-0.1c-13.73-8.13-26.54,12.08-26.54,29.86c0,17.78,14.63,22.63,20.12,21.49
	c5.5-1.14,30.71,1.46,45.58,8.25c14.87,6.79,17.18,2.35,16.19-11.15C665.4,512.63,656.76,500.17,649.97,498.83z"/>
<path class="st2" d="M656.07,539.74c-0.03-0.01-0.06-0.03-0.09-0.05c-1.66-0.61-3.55-1.39-5.78-2.41
	c-12.01-5.48-30.75-8.23-40.42-8.48c-8.4,0.28-25.28,6.23-25.28,24.32c0,18.1,5.25,39.76,9.13,45.9c3.88,6.14,12.61,6.14,25.54,2.26
	c12.93-3.88,32-7.11,42.35-4.85c10.34,2.26,13.9-11.64,9.05-31.68C665.72,544.72,661.94,542.2,656.07,539.74z"/>
<path class="st5" d="M656.07,539.74c-0.03-0.01-0.06-0.03-0.09-0.05c-1.66-0.61-3.55-1.39-5.78-2.41
	c-12.01-5.48-30.75-8.23-40.42-8.48c-8.4,0.28-25.28,6.23-25.28,24.32c0,18.1,5.25,39.76,9.13,45.9c3.88,6.14,12.61,6.14,25.54,2.26
	c12.93-3.88,32-7.11,42.35-4.85c10.34,2.26,13.9-11.64,9.05-31.68C665.72,544.72,661.94,542.2,656.07,539.74z"/>
<path class="st2" d="M663.27,596.67c-0.56-0.02-1.14-0.09-1.75-0.22c-1.74-0.15-4.13-0.44-6.95-0.73
	c-10.61-0.24-24.99,2.45-35.4,5.58c-2.41,0.72-4.62,1.26-6.74,1.7c-0.03,0.02-0.06,0.04-0.09,0.06
	c-10.96,3.41-27.87,9.23-27.87,23.46c0,14.22,0.02,11.41,0.02,21.75s11.72,39.99,24.97,32.56c13.25-7.43,36.21-16.16,44.93-18.1
	c8.73-1.94,13.65-10.04,16.16-35.56C672.91,603.38,671.07,597.98,663.27,596.67z"/>
<path class="st5" d="M663.27,596.67c-0.56-0.02-1.14-0.09-1.75-0.22c-1.74-0.15-4.13-0.44-6.95-0.73
	c-10.61-0.24-24.99,2.45-35.4,5.58c-2.41,0.72-4.62,1.26-6.74,1.7c-0.03,0.02-0.06,0.04-0.09,0.06
	c-10.96,3.41-27.87,9.23-27.87,23.46c0,14.22,0.02,11.41,0.02,21.75s11.72,39.99,24.97,32.56c13.25-7.43,36.21-16.16,44.93-18.1
	c8.73-1.94,13.65-10.04,16.16-35.56C672.91,603.38,671.07,597.98,663.27,596.67z"/>
<path class="st2" d="M654.41,662.71c-3,0.91-6.85,2.04-11.08,3.37c-10.57,3.7-24.58,9.53-33.85,14.73
	c-10.54,7.66-24.97,21.98-24.97,44.61c0,22.63,0,63.29,0,90.93c0,27.64,30.89,3.26,48.28-34.88c17.4-38.14,31.96-80.55,33.26-97.07
	C667.34,667.88,665.39,659.37,654.41,662.71z"/>
<path class="st5" d="M654.41,662.71c-3,0.91-6.85,2.04-11.08,3.37c-10.57,3.7-24.58,9.53-33.85,14.73
	c-10.54,7.66-24.97,21.98-24.97,44.61c0,22.63,0,63.29,0,90.93c0,27.64,30.89,3.26,48.28-34.88c17.4-38.14,31.96-80.55,33.26-97.07
	C667.34,667.88,665.39,659.37,654.41,662.71z"/>
<path class="st2" d="M519.04,498.83c0,0,22.25-11.3,29.81-15.85c2.43-1.47,5.56-3.13,8.94-5.2c0.05-0.03,0.12-0.07,0.17-0.1
	c13.73-8.13,26.54,12.08,26.54,29.86c0,17.78-14.63,22.63-20.12,21.49c-5.5-1.14-30.71,1.46-45.58,8.25
	c-14.87,6.79-17.18,2.35-16.19-11.15C503.6,512.63,512.25,500.17,519.04,498.83z"/>
<path class="st5" d="M519.04,498.83c0,0-20.53,6.58-20.5,6.57c24.29-5.55,42.75-17.87,50.31-22.43c2.43-1.47,5.56-3.13,8.94-5.2
	c0.05-0.03,0.12-0.07,0.17-0.1c13.73-8.13,26.54,12.08,26.54,29.86c0,17.78-14.63,22.63-20.12,21.49
	c-5.5-1.14-30.71,1.46-45.58,8.25c-14.87,6.79-17.18,2.35-16.19-11.15C503.6,512.63,512.25,500.17,519.04,498.83z"/>
<path class="st2" d="M513.26,539.74c0.03-0.01,0.06-0.03,0.09-0.05c1.66-0.61,3.55-1.39,5.78-2.41c12.01-5.48,30.75-8.23,40.42-8.48
	c8.4,0.28,25.28,6.23,25.28,24.32c0,18.1-5.25,39.76-9.13,45.9c-3.88,6.14-12.61,6.14-25.54,2.26c-12.93-3.88-32-7.11-42.35-4.85
	c-10.34,2.26-13.9-11.64-9.05-31.68C503.61,544.72,507.4,542.2,513.26,539.74z"/>
<path class="st5" d="M512.94,539.74c0.03-0.01,0.06-0.03,0.09-0.05c1.66-0.61,3.55-1.39,5.78-2.41c12.01-5.48,30.75-8.23,40.42-8.48
	c8.4,0.28,25.28,6.23,25.28,24.32c0,18.1-5.25,39.76-9.13,45.9c-3.88,6.14-12.61,6.14-25.54,2.26c-12.93-3.88-32-7.11-42.35-4.85
	c-10.34,2.26-13.9-11.64-9.05-31.68C503.29,544.72,507.07,542.2,512.94,539.74z"/>
<path class="st2" d="M505.74,596.67c0.56-0.02,1.14-0.09,1.75-0.22c1.74-0.15,4.13-0.44,6.95-0.73c10.61-0.24,24.99,2.45,35.4,5.58
	c2.41,0.72,4.62,1.26,6.74,1.7c0.03,0.02,0.06,0.04,0.09,0.06c10.96,3.41,27.87,9.23,27.87,23.46c0,14.22-0.02,11.41-0.02,21.75
	s-11.72,39.99-24.97,32.56c-13.25-7.43-36.21-16.16-44.93-18.1c-8.73-1.94-13.65-10.04-16.16-35.56
	C496.1,603.38,497.94,597.98,505.74,596.67z"/>
<path class="st5" d="M505.74,596.67c0.56-0.02,1.14-0.09,1.75-0.22c1.74-0.15,4.13-0.44,6.95-0.73c10.61-0.24,24.99,2.45,35.4,5.58
	c2.41,0.72,4.62,1.26,6.74,1.7c0.03,0.02,0.06,0.04,0.09,0.06c10.96,3.41,27.87,9.23,27.87,23.46c0,14.22-0.02,11.41-0.02,21.75
	s-11.72,39.99-24.97,32.56c-13.25-7.43-36.21-16.16-44.93-18.1c-8.73-1.94-13.65-10.04-16.16-35.56
	C496.1,603.38,497.94,597.98,505.74,596.67z"/>
<path class="st2" d="M514.6,662.71c3,0.91,6.85,2.04,11.08,3.37c10.57,3.7,24.58,9.53,33.85,14.73
	c10.54,7.66,24.97,21.98,24.97,44.61c0,22.63,0,63.29,0,90.93c0,27.64-30.89,3.26-48.28-34.88c-17.4-38.14-31.96-80.55-33.26-97.07
	C501.67,667.88,503.62,659.37,514.6,662.71z"/>
<path class="st5" d="M514.6,662.71c3,0.91,6.85,2.04,11.08,3.37c10.57,3.7,24.58,9.53,33.85,14.73
	c10.54,7.66,24.97,21.98,24.97,44.61c0,22.63,0,63.29,0,90.93c0,27.64-30.89,3.26-48.28-34.88c-17.4-38.14-31.96-80.55-33.26-97.07
	C501.67,667.88,503.62,659.37,514.6,662.71z"/>
<path class="st8" d="M828.19,491.27c-35.02-11-41.54-20.66-53.04-26.72c-50.92-26.82-75.74-103.9-75.74-103.9
	s26.97-23.07,63.07-15.85C798.58,352.02,863.03,365.19,828.19,491.27z"/>
<path class="st9" d="M788.16,470.02c0,0-12.73,30.46,2.28,95.94s65.67,91.74,65.67,91.74S905.14,505.24,788.16,470.02z"/>
<path class="st10" d="M788.25,470.35c0,0-12.82,30.14,2.19,95.62s65.67,91.74,65.67,91.74S905.23,505.57,788.25,470.35z"/>
<path class="st4" d="M312.82,657.7c-4.45-40.61,17.57-48.12,64.81-59.95h0.01c0,0,7.14,72.65-24.27,84.8
	c-31.41,12.15-42.98,14.78-50.21,26.33c-0.01,0.02-0.02,0.03-0.04,0.05C317.22,684.69,312.82,657.7,312.82,657.7z"/>
<path class="st4" d="M295.93,720.43c2.7-4.02,5.08-7.86,7.2-11.5c0.01-0.02,0.02-0.03,0.04-0.05c7.23-11.55,18.8-14.18,50.21-26.33
	c5.74-2.22,10.55-6.29,14.59-11.43l0,0c0,0-4.04,40.5-28.97,60.81c-24.93,20.31-67.37,97.87-71.18,112.07c0,0-4.89-2.98-13.98-2.48
	C253.83,841.53,275.28,751.19,295.93,720.43z"/>
<path class="st11" d="M377.63,597.75c20.01-27.94,49.24-63.15,49.84-118.12c0.67-60.94-46.61-64.99-52.39-2.84
	c-3.32,35.66-49.31,91.28-47.57,114.27C328.8,608.13,357.62,625.68,377.63,597.75z"/>
<path class="st11" d="M313.16,579.63c0,0-44.97,35.88-56,86.06c-11.03,50.19-26.26,150.61-26.26,150.61s11.83,21.2,31.63,18.07
	c0,0,12.76-83.18,33.41-113.95c20.66-30.76,16.89-62.73,16.89-62.73s28.86-51.21,9.26-76.91L313.16,579.63z"/>
<path class="st8" d="M340.74,491.27c35.02-11,41.54-20.66,53.04-26.72c50.92-26.82,75.74-103.9,75.74-103.9
	s-26.97-23.07-63.07-15.85C370.35,352.02,305.9,365.19,340.74,491.27z"/>
<path class="st12" d="M380.68,470.35c0,0,12.83,30.14-2.19,95.62s-65.67,91.74-65.67,91.74S263.7,505.57,380.68,470.35z"/>
<g class="st13">
	<g>
		<path class="st14" d="M700.72,364.39c-7.36-4.61-15.3-7.97-23.84-9.42c-57.11-9.7-71.55-2.95-81.61,9.05
			c-10.06,12-10.76,28.22-10.76,65.28s24.73,47.1,35.65,53.68c10.9,6.57,44.43,29.31,85.49,24.57
			c41.06-4.74,48.36-37.02,59.38-49.22c0,0,0-0.01,0-0.01C727.17,431.81,705.95,378.83,700.72,364.39z"/>
	</g>
	<g>
		<path class="st2" d="M469.51,360.65c0,0,13.96-4.5,22.54-5.68c57.38-7.94,71.55-2.95,81.61,9.05c10.06,12,10.76,28.22,10.76,65.28
			s-24.73,47.1-35.65,53.68c-10.9,6.57-44.43,29.31-85.49,24.57c-41.06-4.74-48.36-37.02-59.38-49.22c0,0,0,0,0,0
			C441.76,431.82,464.28,375.1,469.51,360.65z"/>
	</g>
</g>
<g class="st13">
	<path class="st15" d="M700.71,363.66c-7.36-4.61-15.3-7.97-23.85-9.42c-57.13-9.7-71.57-2.95-81.63,9.05
		c-10.06,12-10.76,28.22-10.76,65.29c0,37.07,24.74,47.11,35.66,53.69c10.91,6.57,44.44,29.32,85.51,24.57
		c41.07-4.74,48.37-37.03,59.39-49.23c0,0,0-0.01,0-0.01C727.16,431.1,705.94,378.1,700.71,363.66z"/>
	<path class="st15" d="M468.22,363.66c7.36-4.61,15.3-7.97,23.85-9.42c57.13-9.7,71.57-2.95,81.63,9.05
		c10.06,12,10.76,28.22,10.76,65.29c0,37.07-24.74,47.11-35.66,53.69c-10.91,6.57-44.44,29.32-85.51,24.57
		c-41.07-4.74-48.37-37.03-59.39-49.23c0,0,0-0.01,0-0.01C441.77,431.1,462.99,378.1,468.22,363.66z"/>
</g>
<path class="st9" d="M602.59,354.1c4.05-1.46,10.84,0.11,19.3,5.32c7.46,4.6,15.12,10.77,23.93,18.26
	c12.44,10.56,25,22.79,37.47,33.44c3.61,3.09,7.75,6.36,11.89,9.58c4.14,3.23,8.28,6.41,12.02,9.14c2.96,2.16,5.75,4.07,7.89,5.58
	c3.46,2.43,7.06,4.83,10.57,6.75c6.89,3.78,13.24,6.27,16.04,7.33c10.41,3.93,23.2,7.76,23.2,7.76s-8.12,11.39-11.4,16.69
	c-2.1,3.4-4.78,8.27-7.09,6.38c-4.84-3.96-6.14-6.53-15.79-9.88c-10.51-3.65-21.32-5.61-30.17-7.25
	c-13.28-2.46-36.31-4.5-44.36-5.25c-10.77-1-32.29-1.81-39.15-1.98c-7.84-0.2-17.56,0.02-24.71-0.39c0,0-6.42-10.05-6.92-25.44
	c-0.2-6.17-0.17-13.49-0.22-22.83c-0.08-13.98,2.21-24.7,6.1-37.23C595.44,356.34,602.59,354.1,602.59,354.1z"/>
<path class="st12" d="M602.16,354.53c4.05-1.46,10.84,0.11,19.3,5.32c7.46,4.6,15.12,10.77,23.93,18.26
	c12.44,10.56,25,22.79,37.47,33.44c10.09,8.62,24.22,19.18,31.77,24.49c10.23,7.19,22.4,12.3,26.63,13.9
	c10.41,3.93,22.73,8.42,22.73,8.42s-7.65,10.73-10.93,16.03c-2.1,3.4-4.46,8.22-6.77,6.33c-4.84-3.96-6.47-6.48-16.12-9.83
	c-10.51-3.65-21.32-5.61-30.17-7.25c-13.28-2.46-36.31-4.5-44.36-5.25c-10.77-1-32.29-1.81-39.15-1.98
	c-7.84-0.2-17.56,0.02-24.71-0.39c0,0-6.42-10.05-6.92-25.44c-0.2-6.17-0.17-13.49-0.22-22.83c-0.08-13.98,2.21-24.7,6.1-37.23
	C595.01,356.77,602.16,354.53,602.16,354.53z"/>
<path class="st9" d="M699.82,360.25c-5.35-2.34-8.6-3.35-13.74-4.79c-12.96-3.64-26.67-5.87-29.31-6.18
	c-5.03-0.59-17.94-1.36-25.72-1.36c-15.93,0-26.07,0.21-32.5,8.79c0,0,2.96-3.13,6.86-3.13c3,0,6.32,0.93,8.42,1.75
	c17.51,6.8,53.47,41.72,60.93,48.29c17.61,15.52,34.85,28.64,48.56,37.18c5.12,3.19,15.16,7.7,25.6,11.29
	c5.35,1.84,8.78,2.95,11.15,3.67c0.87,0.26,1.62,0.51,2.21,0.69c2.62,0.8,2.62,0.8,2.62,0.8s-10.25-4.41-26.43-25.93
	c-4.52-6.02-10.06-13.01-15.43-21.81c-6.5-10.64-12.96-24.11-17.33-34.3C701.97,366.57,699.82,360.25,699.82,360.25z"/>
<path class="st12" d="M699.39,360.68c-5.35-2.34-8.6-3.35-13.74-4.79c-12.96-3.64-26.67-5.87-29.31-6.18
	c-5.03-0.59-17.94-1.36-25.72-1.36c-15.93,0-26.07,0.21-32.5,8.79c0,0,2.96-3.13,6.86-3.13c3,0,6.32,0.93,8.42,1.75
	c17.51,6.8,53.47,41.72,60.93,48.29c17.61,15.52,34.85,28.64,48.56,37.18c5.12,3.19,15.16,7.77,25.61,11.36
	c15.27,5.25,15.57,5.82,15.96,5.15c0,0-10.23-4.45-26.42-25.97c-4.52-6.02-10.06-13.01-15.43-21.81
	C710.56,390.28,699.39,360.68,699.39,360.68z"/>
<path class="st9" d="M594.52,455.7c2.36,0.08,6.16,0.17,11.21,0.21c3.35,0.03,7.27-0.03,11.61,0.08c9.65,0.24,21.57,0.65,34.95,1.65
	c5.54,0.42,11.33,1.02,17.31,1.62c22.93,2.29,43.18,5.76,57.29,9.97c6.33,1.89,11.62,4.13,15.4,7.42c0,0,1.55,1.46,2.33,2.14
	c0.58,0.51,1.13,1,1.74,1.49c0.7,0.57,1.07,1.36,1.07,2.22c0,4.61-8.1,9.99-13.54,14.35c-16.49,13.2-43.64,10.74-54.95,9.47
	c-19.45-2.19-46.56-16.73-62.52-25.96c-11.69-6.76-21.05-17.19-24.19-24.77C592.22,455.59,593.36,455.66,594.52,455.7z"/>
<path class="st12" d="M594.52,455.7c8.87-0.16,38.34-0.11,75.07,3.56c43.95,4.39,77.82,14.31,77.82,23.25
	c0,4.61-8.1,9.99-13.54,14.35c-16.49,13.2-43.64,10.74-54.95,9.47c-19.45-2.19-46.98-16.03-62.52-25.96
	c-8.27-5.29-25.59-20.58-24.19-24.77C592.22,455.59,593.45,455.72,594.52,455.7z"/>
<path class="st16" d="M468.61,363.03c5.35-2.34,9.71-5.43,14.91-6.66c49.97-11.84,81.64-4.94,71.59-1.03
	c-17.51,6.8-53.37,41.84-60.93,48.29c-15.84,13.53-34.42,28.93-48.21,37.33c-2,1.22-26.63,14.62-29.27,7.16
	c0,0,16.59-17.92,29.44-38.39C458.42,390.19,468.61,363.03,468.61,363.03z"/>
<path class="st16" d="M574.51,456.34c-14.12-2.28-44.15,0.52-75.17,2.92c-44.04,3.41-77.82,14.31-77.82,23.25
	c0,4.61,8.1,9.99,13.54,14.35c16.49,13.2,43.64,10.74,54.95,9.47c19.45-2.19,46.98-16.03,62.52-25.96
	C562,474.31,582.86,457.69,574.51,456.34z"/>
<path class="st16" d="M382.14,469.82c3.01-0.98-4.04-30.71,3.65-60.86c10.91-42.8,37.13-67.21,28.25-66.19
	c-6.77,0.78-37.98,5.47-55.64,18.96c-16.62,12.69-23.3,26.55-26.74,44.77c-4.18,22.19-0.09,47.86,3.67,67.1
	c0.6,3.05,4.67,18.3,4.67,18.3C357.37,477.03,374.32,472.37,382.14,469.82z"/>
<path class="st17" d="M383.45,469.98c0,0,6.33-4.72,13.73-8.59c0.15-0.08,12.83-5.96,22.59-16.7c8.68-9.55,17.16-21.18,24.02-31.28
	c13.1-19.29,24.94-50.54,25.58-52.26c0.71-1.89-1.28-2.97-3.31-4.35c-3.21-2.18-7.53-4.53-9.78-5.67
	c-9.86-5.04-23.88-8.91-35.18-8.75c-2.05,0.03-4.35-0.38-4.98,0.83c-0.32,0.61-0.56,2.77-3.04,6.66
	c-5.81,9.1-11.41,19.06-14.47,25.29c-8.61,17.49-17.17,38.37-16.54,69.17c0.15,7.5,0.67,15.12,0.82,19.32
	C383.01,467.43,382.36,470.71,383.45,469.98z"/>
<path class="st9" d="M787.23,469.71c0,0-7.68-4.45-15.08-8.31c-0.15-0.08-12.83-5.96-22.59-16.7c-8.68-9.55-17.16-21.18-24.02-31.28
	c-13.1-19.29-24.94-50.54-25.58-52.26c-0.71-1.89,1.28-2.97,3.31-4.35c3.21-2.18,7.53-4.53,9.78-5.67
	c9.86-5.04,23.88-8.91,35.18-8.75c2.05,0.03,5.02,0.24,5.02,0.24c0.08,0.8,0.52,3.36,3,7.26c5.81,9.1,11.41,19.06,14.47,25.29
	c8.61,17.49,17.17,38.37,16.54,69.17c-0.15,7.5-0.78,15.12-0.82,19.32C786.38,469.93,787.49,469.79,787.23,469.71z"/>
<path class="st12" d="M787.19,469.82c0,0-7.64-4.56-15.04-8.43c-0.15-0.08-12.83-5.96-22.59-16.7
	c-8.68-9.55-17.16-21.18-24.02-31.28c-13.1-19.29-24.94-50.54-25.58-52.26c-0.71-1.89,1.28-2.97,3.31-4.35
	c3.21-2.18,7.53-4.53,9.78-5.67c9.86-5.04,23.88-8.91,35.18-8.75c2.05,0.03,4.35-0.38,4.98,0.83c0.32,0.61,0.56,2.77,3.04,6.66
	c5.81,9.1,11.41,19.06,14.47,25.29c8.61,17.49,17.17,38.37,16.54,69.17c-0.15,7.5-0.78,15.12-0.82,19.32
	C786.38,469.93,787.45,469.91,787.19,469.82z"/>
<path class="st9" d="M787.23,469.72c0,0-0.21-0.21-0.3-0.52c-0.36-1.23-0.5-2.96-0.48-5.23c0.05-5.03,0.78-12.5,0.85-21.37
	c0.07-9.81-0.64-21.42-3.75-33.63c-1.14-4.46-2.33-8.69-3.74-12.73c-3.84-11.03-8.6-20.54-12.9-28.37
	c-2.56-4.66-4.97-8.82-7.05-12.22c-1.52-2.48-3.25-5.01-4.27-6.8c-1.36-2.38-2.48-5.39-2.21-5.75c0.29-0.38,1.03-0.41,1.92-0.31
	c6.77,0.78,37.98,5.47,55.64,18.96c16.62,12.69,23.3,26.55,26.74,44.77c4.18,22.19,0.09,47.86-3.67,67.1
	c-0.6,3.05-4.67,18.3-4.67,18.3C811.95,477.03,795.04,472.26,787.23,469.72z"/>
<path class="st12" d="M787.19,469.82c-3.01-0.98,4.04-30.71-3.65-60.86c-10.91-42.8-37.13-67.21-28.25-66.19
	c6.77,0.78,37.98,5.47,55.64,18.96c16.62,12.69,23.3,26.55,26.74,44.77c4.18,22.19,0.09,47.86-3.67,67.1
	c-0.6,3.05-4.67,18.3-4.67,18.3C811.95,477.03,795.01,472.37,787.19,469.82z"/>
<path class="st7" d="M529.27,253.32c0.08,3.52-0.04,10.49,0,13.06v40.97c-3.76,27.39-15.8,37.61-28.99,44.29
	c0,0-3.95,0.81-15.78,3.62c-6.81,1.62-12.43,3.79-16.03,5.5c0,0,0.1-0.93-1.18-1.89c-3.97-2.98-11.96-7.61-18.78-10.33
	c-12.03-4.49-20.55-5.54-28.61-5.74c-2.77-0.07-8.26,0.55-10.47,0.88c1.18,0.03,3.88-1.28,4.64-1.96l4.72-4.54
	c2.91-2.7,7.46-6.53,7.46-6.53c6.68-5.75,19.62-15.27,19.62-15.27c16.02-12.28,68.74-44.64,75.48-51.96c0,0,2.6-2.28,3.86-3.78
	C526.29,258.38,528.76,254.6,529.27,253.32z"/>
<path class="st12" d="M565.7,354.53c-4.05-1.46-10.84,0.11-19.3,5.32c-7.46,4.6-15.12,10.77-23.93,18.26
	c-12.44,10.56-25,22.79-37.47,33.44c-10.09,8.62-24.22,19.18-31.77,24.49c-10.23,7.19-22.4,12.3-26.63,13.9
	c-10.41,3.93-22.73,8.42-22.73,8.42s7.65,10.73,10.93,16.03c2.1,3.4,4.46,8.22,6.77,6.33c4.84-3.96,6.47-6.48,16.12-9.83
	c10.51-3.65,21.32-5.61,30.17-7.25c13.28-2.46,36.31-4.5,44.36-5.25c10.77-1,32.29-1.81,39.15-1.98c7.84-0.2,17.56,0.02,24.71-0.39
	c0,0,6.42-10.05,6.92-25.44c0.2-6.17,0.17-13.49,0.22-22.83c0.08-13.98-2.21-24.7-6.1-37.23
	C572.86,356.77,565.7,354.53,565.7,354.53z"/>
<path class="st12" d="M468.48,360.68c5.35-2.34,8.6-3.35,13.74-4.79c12.96-3.64,26.67-5.87,29.31-6.18
	c5.03-0.59,17.94-1.36,25.72-1.36c15.93,0,26.07,0.21,32.5,8.79c0,0-2.96-3.13-6.86-3.13c-3,0-6.32,0.93-8.42,1.75
	c-17.51,6.8-53.47,41.72-60.93,48.29c-17.61,15.52-34.85,28.64-48.56,37.18c-5.12,3.19-15.16,7.77-25.61,11.36
	c-15.27,5.25-15.57,5.82-15.96,5.15c0,0,10.23-4.45,26.42-25.97c4.52-6.02,10.06-13.01,15.43-21.81
	C457.3,390.28,468.48,360.68,468.48,360.68z"/>
<path class="st12" d="M574.2,455.7c-8.87-0.16-38.34-0.11-75.07,3.56c-43.95,4.39-77.82,14.31-77.82,23.25
	c0,4.61,8.1,9.99,13.54,14.35c16.49,13.2,43.64,10.74,54.95,9.47c19.45-2.19,46.98-16.03,62.52-25.96
	c8.27-5.29,25.59-20.58,24.19-24.77C576.5,455.59,575.27,455.72,574.2,455.7z"/>
<path class="st12" d="M381.11,470.25c3.01-0.98-4.04-30.71,3.65-60.86c10.91-42.8,37.13-67.21,28.25-66.19
	c-6.77,0.78-37.98,5.47-55.64,18.96c-16.62,12.69-23.3,26.55-26.74,44.77c-4.18,22.19-0.09,47.86,3.67,67.1
	c0.6,3.05,4.67,18.3,4.67,18.3C356.34,477.46,373.29,472.8,381.11,470.25z"/>
<path class="st12" d="M381.11,470.25c0,0,7.64-4.56,15.04-8.43c0.15-0.08,12.83-5.96,22.59-16.7c8.68-9.55,17.16-21.18,24.02-31.28
	c13.1-19.29,24.94-50.54,25.58-52.26c0.71-1.89-1.28-2.97-3.31-4.35c-3.21-2.18-7.53-4.53-9.78-5.67
	c-9.86-5.04-23.88-8.91-35.18-8.75c-2.05,0.03-4.35-0.38-4.98,0.83c-0.32,0.61-0.56,2.77-3.04,6.66
	c-5.81,9.1-11.41,19.06-14.47,25.29c-8.61,17.49-17.17,38.37-16.54,69.17c0.15,7.5,0.78,15.12,0.82,19.32
	C381.91,470.36,380.84,470.34,381.11,470.25z"/>
<path class="st7" d="M427.64,490.86c1.33,1.1,2.51,2.08,3.93,3.15c2.07,1.57,4.72,2.73,6.32,4.78
	c16.04,20.55,56.23,14.12,65.68,38.99c0.99,2.62,5.51,3.33,5.51,3.33s-3.6,4.14-4.66,5.99c-2.24,3.9-3.61,9.25-5.26,14.73
	c-0.99,3.29-1.48,6.25-2.2,10.46c-1.93,4.17-2.88,8.63-4.28,13.04c-4.37,13.79-8,28.44-6.74,41.93
	c5.03,23.24,10.65,60.05,11.55,77.17c1.25,9.86-5.78,38.82-17.36,52.81c-5.36,4.91-7.5,4.9-10.28,4.83
	c-19.17-27.16-22.05-52.92-20.11-76.89c0.79-8.87,1.62-14.93,2.76-20.69c0.85-4.28,2.04-8.71,3.48-13.44
	c1-3.27,2.11-6.64,2.83-10.57c0.54-2.95,0.42-4.67,0.09-10.06c-0.79-5.61-2.08-11.51-3.92-16.82c-3.15-9.1-6.68-17.54-12.01-25.06
	c-2.16-3.05-4.24-6-6.4-9.26c-4.93-7.45-9.81-15.87-13.62-25.56c-1.33-3.39-2.58-6.53-3.43-9.27c-0.51-1.66-0.99-3.34-1.47-4.86
	c-0.66-2.08-1.17-3.99-1.24-5.65c0,0,3.86-9.69,5.46-16.22c0.74-2.43,1.7-7.04,2.75-11.72
	C426.39,499.92,426.47,493.73,427.64,490.86z"/>
<path class="st6" d="M742.45,489.99c-1.33,1.1-2.66,2.29-4.08,3.37c-2.07,1.57-5.66,4.45-6.18,4.98
	c-23.19,23.3-56.23,14.12-65.68,38.99c-0.99,2.62-5.51,3.33-5.51,3.33s3.6,4.14,4.66,5.99c2.24,3.9,3.61,9.25,5.26,14.73
	c0.99,3.29,1.48,6.25,2.2,10.46c1.93,4.17,2.88,8.63,4.28,13.04c4.37,13.79,8,28.44,6.74,41.93c-5.03,23.24-10.65,60.05-11.55,77.17
	c-1.25,9.86,5.78,38.82,17.36,52.81c5.36,4.91,8.32,4.81,11.1,4.74c1.76-2.49,3.45-4.82,4.93-7.29c2.66-4.44,4.67-9.01,6.53-13.37
	c1.6-3.76,2.66-7.21,3.74-10.91c0.45-1.54,0.87-3.09,1.25-4.62c3.44-13.97,3.9-27.64,2.85-40.61c-0.79-8.87-1.62-14.93-2.76-20.69
	c-0.85-4.28-2.04-8.71-3.48-13.44c-1-3.27-2.11-6.64-2.83-10.57c-0.54-2.95-0.42-4.67-0.09-10.06c0.79-5.61,2.08-11.51,3.92-16.82
	c3.15-9.1,6.68-17.54,12.01-25.06c2.16-3.05,4.24-6,6.4-9.26c4.93-7.45,9.81-15.87,13.62-25.56c1.33-3.39,2.58-6.53,3.43-9.27
	c0.51-1.66,0.99-3.34,1.47-4.86c0.66-2.08,1.31-3.79,1.38-5.44c0,0-4-9.89-5.6-16.42c-0.74-2.43-1.7-7.04-2.75-11.72
	C743.68,499.46,743.61,492.86,742.45,489.99z"/>
<path class="st0" d="M464.98,1554.1c-19.73,20.85-44.95,61.1-47.37,77.1s11.67,33.94,27.41,41.22c15.74,7.27,30.56,0.97,39.39-3.88
	c8.83-4.85,20.94-13.09,24.34-44.61c3.4-31.52,3.89-35.88,14.56-44.61c10.67-8.73,13.12-21.82,2.44-39.76
	C515.07,1521.61,475.99,1522.58,464.98,1554.1z"/>
<path class="st0" d="M442.42,1203.5c0,0-29.17,83.91-12.69,149.37c16.49,65.46,45.58,127.53,47.03,149.83
	c1.45,22.3-11.79,51.4-11.79,51.4s1.58-5.24,5.59-10.77c1.96-2.7,4.31-5.24,7.69-7.82c3.05-2.32,6.75-4.29,11.19-5.79
	c0,0-1.57-6.72-2.89-16.72l-2.26-19.72l-1.41-14.29l-5.69-65.58l-5.12-55.97l-0.92-8.11l-0.69-5.8l-0.43-3.96l-0.54-5.64l-0.44-5.46
	l-0.53-8.19l-0.79-22.06l-0.16-6.87c-0.01-8-0.94-19.23-1.75-22.58l-0.75-3.01c-0.07-0.27-1.55-3.92-3.11-6.35
	c-2.22-3.45-3.79-7.27-4.9-10.58c-2.11-6.29-2.69-11.9-3.13-15.25l-2.32-3.84c-2.38-3.78-6.21-13.79-8.17-22.03L442.42,1203.5z"/>
<path class="st0" d="M521.34,1220.97c0,0,18.77,62.08,13.92,96.99c-4.85,34.91-17.17,126.23-13.92,144.82
	c1.4,7.99,18.05,29.28,12.59,44.29c-2.9,7.96-8.31,32.27-8.31,32.27s-4.73-8.67-17.88-10.95c0,0,0.13-0.27-1.41-10.49
	c-0.94-6.24-1.72-13.43-2.66-22.76c-0.76-7.53-1.44-16.16-2.12-25.18c-0.67-8.91-0.97-18.03-1.62-28.04
	c-0.36-5.63-0.39-11.43-0.68-17.39c-0.49-10.32-0.38-20.36-0.68-31.04c-0.67-23.64,1.94-45.57,5.12-66.74
	c3.63-24.2,8.07-46.24,10.49-59.72c0,0,2.05-9.53,2.24-19.37c0.13-6.88-1.71-13.41-3.62-17.93c0,0,1.95-1.87,3.44-3.35
	C518.76,1223.92,521.34,1220.97,521.34,1220.97z"/>
<path class="st0" d="M428.36,1113.45c6.77,20.21,7.15,93.47,25.57,120.14c0,0-0.94-7.31,0.7-15.11c1.07-5.09,3.71-8.63,3.71-8.63
	c-6.49-24.19-4.16-38.27-3.91-39.54c0,0-0.78,0.24-1.93,0.24c-0.86,0-2.01-0.34-3.13-1.59c-1.26-1.39-2.22-3.18-3.68-6.41
	c-2.63-5.83-4.57-11.6-6.32-16.52C430.92,1122.3,428.36,1113.45,428.36,1113.45z"/>
<path class="st0" d="M544.65,1142.71c0,0,0.16,34.95-10.51,58.87c-4.14,9.27-10.55,17.29-16.59,23.5c-1.65,1.7-3.18,3.23-4.74,4.65
	c0,0-1.48-3.55-2.96-5.91c-1.36-2.19-3.56-4.97-3.56-4.97c2.07-9.81,3.57-22.51,2-37.15c0,0,5.88,0.12,13.36-4.16
	c2.83-1.62,5.26-3.84,8.61-6.98c1.97-1.84,3.72-4.08,5.28-6.47C541.69,1154.63,544.65,1142.71,544.65,1142.71z"/>
<path class="st2" d="M506.3,1218.85c0,0,3.61,3.82,6.52,10.88c0,0,0,0,0,0c2.49,6.04,4.47,14.44,3.26,24.87
	c-2.62,22.63-17.81,85.92-17.58,128.33c0.47,84.77,7.06,131.39,9.43,145.45c0,0-3.9-0.86-8.68-0.51c-1.6,0.12-3,0.23-4.52,0.53
	c-2.78,0.53-5.27,1.31-5.27,1.31c-5.96-21.91-12.97-137.86-18.5-182.18c-5.82-46.55-0.38-76.13-8.51-87.44
	c-7.55-10.5-13.15-37.94-4.09-50.25c0,0,0.24,1.09,0.7,2.77c0.83,3.05,2.31,8.19,3.99,13.24c0.95,2.86,2.15,6.38,2.15,6.38
	c1,2.75,2.32,6.94,4.05,8.98c1.91,2.25,4.53,4.02,7.26,5.04c2.83,1.06,5.77,1.32,7.54,1.4c4.18,0.18,9.26-0.93,12.82-3.91
	c1.78-1.49,2.29-2.8,3.36-5.34c1-2.35,2.69-7.25,3.74-10.55C505.55,1222.85,506.3,1218.85,506.3,1218.85z"/>
<path class="st3" d="M454.44,1170.31c-0.33,1.97-0.58,4.96-0.6,7.16c-0.04,3.94,0.04,7.11,0.51,11.42
	c1.88,17.13,8.09,36.11,12.75,48.58c4.99,13.36,28.3,12.92,32.46,2.59c5.89-14.65,10.7-30.08,8.74-58.36c0,0-10.45,2.31-16.89-11.14
	c-6.11-12.77-6.11-27.84-6.11-40.23c0,0-0.37,4.57-2.9,7.43c-0.87,0.99-3.15,3.14-6.23,2.93c-2.64-0.18-4.28-1.33-6.27-4.03
	c-2.32-3.15-2.85-7.8-2.85-7.8c0.7,3.62,0.78,7.83,0.91,12.36c0.15,5.25-1.76,12.72-1.76,12.72c-1.86,7.42-5.88,12.06-5.88,12.06
	C456.96,1169.95,454.44,1170.31,454.44,1170.31z"/>
<path class="st3" d="M455.85,738.9l-0.88-2.4l-1.3-3.92l-0.9-3.08l-0.75-2.9c-4.33,3.56-15.14,14.52-13.58,33.75
	c1.24,15.32,2.09,33.1,2.41,46.96c0,0,2.54-5.32,5.16-10.51c5.24-10.4,14.19-24.23,14.19-24.23l7.94-11.24
	C462.85,754.93,459.29,747.38,455.85,738.9z"/>
<path class="st0" d="M578.23,890.23l0.84,0.27c-0.55,14.98-3.15,71.19-11.92,105.01c-10.18,39.28-18.82,82.21-18.87,99.62
	c-0.01,4.8,0.05-17.4-7.76-58.84c-1.9-10.06-4.34-20.97-7.05-32.44c-2-8.47-4.36-17.7-6.98-27.13c-3.8-13.72-8.04-28.03-12.22-41.47
	c-3.88-12.49-7.49-23.09-10.75-35.03c-5.59-20.42-8.99-42.65-10.61-60.02c-2.53-27.19,1.33-44.14,1.33-44.14
	c7.68,10.23,22.95,30.42,43.6,55.39c1.66,2.01,4.09,5,6.75,8.17c3.1,3.7,6.56,7.68,10.15,11.94c4.56,5.41,9.46,10.79,14.86,14.34
	C572.85,888.03,574.82,888.98,578.23,890.23z"/>
<path class="st0" d="M471.08,765.56l-2.97-4.05c-9.81,13.81-57.2,71.91-57.2,205.92l2.07-9.88l1.33-5.68l1.64-6.48l1.08-4
	c1.49-5.86,4.08-13.16,4.59-14.91c0,0-0.47-4.14,0.44-10.01l0.74-5.59c0.53-4.13,2.51-11.97,2.87-13.28l1.35-4.48
	c2.01-6.25,3.75-10.51,3.81-10.65l1.82-4.47l2.64-6.01l4.3-9.09l3.26-6.58l5.56-11.06l5.35-11.17l2.49-5.2l2.98-6.81l3.01-7.43
	c1.15-2.42,6.34-18.1,6.76-20.6l1.74-6.29l1.75-7.54l1.16-5.71l0.79-4.4L471.08,765.56z"/>
<path class="st0" d="M421.63,926.49c0,0-29.45,82.11-8.5,142.23c20.95,60.13,29.97,92.13,35.89,99.89
	c5.91,7.76,23.05-8.19,18.03-39.76c-0.99-6.25-2.77-13.45-6.01-24.16c-0.82-2.71-1.84-6.15-2.91-9.13
	c-1.55-4.29-3.06-8.99-4.76-13.78c-2.53-7.13-5.95-16-8.67-23.98c-4.35-12.78-8.96-25.71-12.83-40.78
	c-1.71-6.68-3.39-13.79-4.66-20.91c-1.63-9.15-3.02-18.52-3.8-26.83c-1.16-12.47-1.3-20.81-1.49-27.57
	c-0.14-5.04,0.08-8.75,0.01-11.47C421.87,927.75,421.63,926.49,421.63,926.49z"/>
<path class="st2" d="M481.19,779.15c-3.92-5.13-6.78-9.03-6.78-9.03c-10.22,61.78-39.81,89.08-50.38,133.86
	c-0.78,3.31-1.38,7.95-1.88,11.95c-0.53,4.29-0.91,7.9-0.52,10.56l0.32,3.96c-1.62,90.05,30.05,133.98,43.84,191.59
	c0.75,3.12,0.93,5.55,1.26,7.24c2.92,15.03,15.06,14.23,17.85,3.39c2.08-8.07,3.76-77.83,7.47-145.1
	c1.14-20.59,2.37-36.6,3.61-48.61c0.56-5.44,1.03-10.15,1.66-13.93c0.78-4.63,1.37-8.59,2.14-11.78c0.63-2.62,1.41-4.74,2.2-5.99
	c2.64-4.15,5.26,5.92,5.26,5.92l-2.38-7.92c-17.11-62.35-12.7-99.08-10.85-109.22l-5.14-6.73
	C488.88,789.32,482.67,781.12,481.19,779.15z"/>
<path class="st2" d="M486.15,1120.42c-3.02,29.01,1.85,56.92,16.59,60.8c14.74,3.88,48.68-11.15,45.77-81.46
	c-2.91-70.31-31.48-159.62-42.25-189.31C492.12,871.42,486.15,1120.42,486.15,1120.42z"/>
<path class="st0" d="M313.03,657.7c7.82-4.37,12.38-7.62,22.13-16.41c2.94-2.65,7.85-7.68,11.86-12.28
	c6.11-7,10.01-13.23,12.91-17.58c0,0,9.99-2.22,17.91-13.68h0.01c0,0,7.14,72.65-24.27,84.8c-31.41,12.15-43.48,14.65-50.72,26.2
	c-0.01,0.02,0.01-0.02,0,0C316.96,684.52,313.03,657.7,313.03,657.7z"/>
<path class="st0" d="M296.14,720.43c2.7-4.02,4.61-8.03,6.73-11.68c0,0-0.01,0.02,0,0c1.93-3.09,4.05-5.27,6.63-7.27
	c2.74-2.12,5.99-4,10.31-5.9c5.22-2.29,11.61-4.93,21.16-8.27c2.9-1.01,9.3-3.61,12.62-4.77c6.38-2.23,13.05-9.58,15.06-14.34
	l-0.71,4.82c0,0-3.8,38.59-28.73,58.91c-21.78,17.75-56.94,79.21-68.01,103.92c0,0-0.09-1.89-0.95-4.19
	c-0.54-1.45-1.47-3.06-2.64-4.49c-3.03-3.7-8.35-6.06-8.35-6.06C266.86,792.6,281.69,741.94,296.14,720.43z"/>
<path class="st0" d="M377.83,597.71c12.21-17.05,27.71-38.49,37.88-63.92c4.69-11.72,8.36-24.46,10.11-39.91
	c0.14-1.27,0.48-2.61,0.88-3.88c0,0-4.66-3.7-4.96-7.27c-0.12-1.44,1.01-2.39,1.01-2.39s-0.8,0.73-1.77,0.28
	c-0.37-0.17-0.86-0.4-1.54-1.14c-2.2-2.4-3.92-6.03-5.73-8.56c-2.4-3.36-4.26-6.27-5.17-7.58l0.8-4.09l0.62-2.57l0.7-2.17l1.05-2.53
	c-1.14,0.88-2.72,2.15-4.45,3.36c-1.32,0.92-3,1.94-3,1.94c-0.79,0.49-2.16,1.43-4.82,2.88c-1.78,0.97-4.22,2.12-7.13,3.72
	c-4.2,2.31-5.89,3.36-11.34,6.12c0,0,0.22,0.25,1.62,5.24c1.28,4.57,2.56,13.29,2.89,19.17c0.69,12.01,0.89,24.88-1.14,39.46
	c-1.46,10.49-3.28,23.44-5.98,33.43c-4.1,15.17-6.03,19.86-9.29,27.14c-5.58,12.48-9.14,17-9.14,17
	C366.06,609.7,372.28,605.45,377.83,597.71z"/>
<path class="st2" d="M302.84,589.25c-13.99,13.89-37.85,41.75-45.48,76.45c-11.03,50.19-26.26,150.61-26.26,150.61s1.35-0.02,3.58,0
	c2.86,0.02,7.15,0.37,11.78,1.1c3.35,0.52,6.54,1.37,8.92,2.18c2.35,0.8,3.87,1.53,3.87,1.53c1.3-4.83,2.15-8.51,4.39-16.29
	c3.22-11.2,7.55-25.61,12.41-39.33c3.8-10.74,7.35-19.84,11.41-29.01c2.36-5.34,6.05-12.14,8.68-16.06
	c2.58-3.84,4.76-7.94,6.73-11.68c2.36-4.48,4.38-8.57,5.88-12.84c1.7-4.85,2.77-9.66,3.53-13.96c2.5-14.04,0.75-24.24,0.75-24.24
	s-7.6-24.09-9.47-51.63L302.84,589.25z"/>
<path class="st0" d="M271.19,835.85c-1.96-21.05-40.09-19.54-40.09-19.54c-17.68,7.6-39.11,9.96-52.92,22.19
	c-13.81,12.23-21.76,14.26-35.45,17.6c-13.69,3.33-9.67,18.54,7.85,17.78c17.54-0.75,26.74-3.82,38.11-7.32l0,0c0,0,0,0,0,0
	c-16.4,30-25.56,52.83-31.73,80.41c-1.56,17.98,29.7,17.71,42.34,12.87c24.04-8.23,44.12-49.82,55.47-61.91
	C266.09,884.82,273.16,856.9,271.19,835.85z"/>
<path class="st0" d="M188.7,866.56c14.3-1.76,34.43,0.45,53.07-18.39"/>
<path class="st6" d="M530.12,252.89c0.08,3.52-0.04,10.49,0,13.06v40.97c-3.76,27.39-15.8,37.61-28.99,44.29
	c0,0-3.95,0.81-15.78,3.62c-6.81,1.62-12.43,3.79-16.03,5.5c0,0,0.1-0.93-1.18-1.89c-3.97-2.98-11.96-7.61-18.78-10.33
	c-12.03-4.49-20.55-5.54-28.61-5.74c-2.77-0.07-8.26,0.55-10.47,0.88c1.18,0.03,3.88-1.28,4.64-1.96l4.72-4.54
	c2.91-2.7,7.46-6.53,7.46-6.53c6.68-5.75,19.62-15.27,19.62-15.27c16.02-12.28,68.74-44.64,75.48-51.96c0,0,2.6-2.28,3.86-3.78
	C527.14,257.95,529.61,254.17,530.12,252.89z"/>
<path class="st9" d="M380.98,470.02c0,0,12.73,30.46-2.28,95.94s-65.67,91.74-65.67,91.74S264,505.24,380.98,470.02z"/>
<path class="st9" d="M566.55,354.1c-4.05-1.46-10.84,0.11-19.3,5.32c-7.46,4.6-15.12,10.77-23.93,18.26
	c-12.44,10.56-25,22.79-37.47,33.44c-3.61,3.09-7.75,6.36-11.89,9.58c-4.14,3.23-8.28,6.41-12.02,9.14
	c-2.96,2.16-5.75,4.07-7.89,5.58c-3.46,2.43-7.06,4.83-10.57,6.75c-6.89,3.78-13.24,6.27-16.04,7.33
	c-10.41,3.93-23.2,7.76-23.2,7.76s8.12,11.39,11.4,16.69c2.1,3.4,4.78,8.27,7.09,6.38c4.84-3.96,6.14-6.53,15.79-9.88
	c10.51-3.65,21.32-5.61,30.17-7.25c13.28-2.46,36.31-4.5,44.36-5.25c10.77-1,32.29-1.81,39.15-1.98c7.84-0.2,17.56,0.02,24.71-0.39
	c0,0,6.42-10.05,6.92-25.44c0.2-6.17,0.17-13.49,0.22-22.83c0.08-13.98-2.21-24.7-6.1-37.23C573.7,356.34,566.55,354.1,566.55,354.1
	z"/>
<path class="st9" d="M469.32,360.25c5.35-2.34,8.6-3.35,13.74-4.79c12.96-3.64,26.67-5.87,29.31-6.18
	c5.03-0.59,17.94-1.36,25.72-1.36c15.93,0,26.07,0.21,32.5,8.79c0,0-2.96-3.13-6.86-3.13c-3,0-6.32,0.93-8.42,1.75
	c-17.51,6.8-53.47,41.72-60.93,48.29c-17.61,15.52-34.85,28.64-48.56,37.18c-5.12,3.19-15.16,7.7-25.6,11.29
	c-5.35,1.84-8.78,2.95-11.15,3.67c-0.87,0.26-1.62,0.51-2.21,0.69c-2.62,0.8-2.62,0.8-2.62,0.8s10.25-4.41,26.43-25.93
	c4.52-6.02,10.06-13.01,15.43-21.81c6.5-10.64,12.96-24.11,17.33-34.3C467.17,366.57,469.32,360.25,469.32,360.25z"/>
<path class="st9" d="M574.62,455.7c-2.36,0.08-6.16,0.17-11.21,0.21c-3.35,0.03-7.27-0.03-11.61,0.08
	c-9.65,0.24-21.57,0.65-34.95,1.65c-5.54,0.42-11.33,1.02-17.31,1.62c-22.93,2.29-43.18,5.76-57.29,9.97
	c-6.33,1.89-11.62,4.13-15.4,7.42c0,0-1.55,1.46-2.33,2.14c-0.58,0.51-1.13,1-1.74,1.49c-0.7,0.57-1.07,1.36-1.07,2.22
	c0,4.61,8.1,9.99,13.54,14.35c16.49,13.2,43.64,10.74,54.95,9.47c19.45-2.19,46.56-16.73,62.52-25.96
	c11.69-6.76,21.05-17.19,24.19-24.77C576.92,455.59,575.78,455.66,574.62,455.7z"/>
<path class="st9" d="M381.91,469.71c0,0,7.68-4.45,15.08-8.31c0.15-0.08,12.83-5.96,22.59-16.7c8.68-9.55,17.16-21.18,24.02-31.28
	c13.1-19.29,24.94-50.54,25.58-52.26c0.71-1.89-1.28-2.97-3.31-4.35c-3.21-2.18-7.53-4.53-9.78-5.67
	c-9.86-5.04-23.88-8.91-35.18-8.75c-2.05,0.03-5.02,0.24-5.02,0.24c-0.08,0.8-0.52,3.36-3,7.26c-5.81,9.1-11.41,19.06-14.47,25.29
	c-8.61,17.49-17.17,38.37-16.54,69.17c0.15,7.5,0.78,15.12,0.82,19.32C382.75,469.93,381.65,469.79,381.91,469.71z"/>
<path class="st9" d="M381.91,469.72c0,0,0.21-0.21,0.3-0.52c0.36-1.23,0.5-2.96,0.48-5.23c-0.05-5.03-0.78-12.5-0.85-21.37
	c-0.07-9.81,0.64-21.42,3.75-33.63c1.14-4.46,2.33-8.69,3.74-12.73c3.84-11.03,8.6-20.54,12.9-28.37c2.56-4.66,4.97-8.82,7.05-12.22
	c1.52-2.48,3.25-5.01,4.27-6.8c1.36-2.38,2.48-5.39,2.21-5.75c-0.29-0.38-1.03-0.41-1.92-0.31c-6.77,0.78-37.98,5.47-55.64,18.96
	c-16.62,12.69-23.3,26.55-26.74,44.77c-4.18,22.19-0.09,47.86,3.67,67.1c0.6,3.05,4.67,18.3,4.67,18.3
	C357.19,477.03,374.09,472.26,381.91,469.72z"/>
<path class="st6" d="M426.69,489.99c1.33,1.1,2.66,2.29,4.08,3.37c2.07,1.57,5.66,4.45,6.18,4.98
	c23.19,23.3,56.23,14.12,65.68,38.99c0.99,2.62,5.51,3.33,5.51,3.33s-3.6,4.14-4.66,5.99c-2.24,3.9-3.61,9.25-5.26,14.73
	c-0.99,3.29-1.48,6.25-2.2,10.46c-1.93,4.17-2.88,8.63-4.28,13.04c-4.37,13.79-8,28.44-6.74,41.93
	c5.03,23.24,10.65,60.05,11.55,77.17c1.25,9.86-5.78,38.82-17.36,52.81c-5.36,4.91-8.32,4.81-11.1,4.74
	c-1.76-2.49-3.45-4.82-4.93-7.29c-2.66-4.44-4.67-9.01-6.53-13.37c-1.6-3.76-2.66-7.21-3.74-10.91c-0.45-1.54-0.87-3.09-1.25-4.62
	c-3.44-13.97-3.9-27.64-2.85-40.61c0.79-8.87,1.62-14.93,2.76-20.69c0.85-4.28,2.04-8.71,3.48-13.44c1-3.27,2.11-6.64,2.83-10.57
	c0.54-2.95,0.42-4.67,0.09-10.06c-0.79-5.61-2.08-11.51-3.92-16.82c-3.15-9.1-6.68-17.54-12.01-25.06c-2.16-3.05-4.24-6-6.4-9.26
	c-4.93-7.45-9.81-15.87-13.62-25.56c-1.33-3.39-2.58-6.53-3.43-9.27c-0.51-1.66-0.99-3.34-1.47-4.86c-0.66-2.08-1.31-3.79-1.38-5.44
	c0,0,4-9.89,5.6-16.42c0.74-2.43,1.7-7.04,2.75-11.72C425.46,499.46,425.53,492.86,426.69,489.99z"/>
<path class="st7" d="M742.43,490.4c-1.33,1.1-2.51,2.08-3.93,3.15c-2.07,1.57-4.72,2.73-6.32,4.78
	c-16.04,20.55-56.23,14.12-65.68,38.99c-0.99,2.62-5.51,3.33-5.51,3.33s3.6,4.14,4.66,5.99c2.24,3.9,3.61,9.25,5.26,14.73
	c0.99,3.29,1.48,6.25,2.2,10.46c1.93,4.17,2.88,8.63,4.28,13.04c4.37,13.79,8,28.44,6.74,41.93c-5.03,23.24-10.65,60.05-11.55,77.17
	c-1.25,9.86,5.78,38.82,17.36,52.81c5.36,4.91,7.5,4.9,10.28,4.83c19.17-27.16,22.05-52.92,20.11-76.89
	c-0.79-8.87-1.62-14.93-2.76-20.69c-0.85-4.28-2.04-8.71-3.48-13.44c-1-3.27-2.11-6.64-2.83-10.57c-0.54-2.95-0.42-4.67-0.09-10.06
	c0.79-5.61,2.08-11.51,3.92-16.82c3.15-9.1,6.68-17.54,12.01-25.06c2.16-3.05,4.24-6,6.4-9.26c4.93-7.45,9.81-15.87,13.62-25.56
	c1.33-3.39,2.58-6.53,3.43-9.27c0.51-1.66,0.99-3.34,1.47-4.86c0.66-2.08,1.17-3.99,1.24-5.65c0,0-3.86-9.69-5.46-16.22
	c-0.74-2.43-1.7-7.04-2.75-11.72C743.68,499.46,743.6,493.27,742.43,490.4z"/>
<path class="st18" d="M638.94,223.66c-0.08,21.71-0.13,82.23,0.05,83.45c1.77,11.67,5.36,24.17,14.29,33.61
	c6.07,6.42,14.64,10.47,14.64,10.47c-10.43-2.4-30.04-3.58-41.92-3.27c-14.56,0.38-22.65,0.28-31.36,14.06
	c-3.15,4.99-6.71,19.87-6.71,19.87c-2.56,11.29-3.97,27.49-3.97,27.49s-1.08-19.93-3.18-27.58c0,0-3.94-16.45-7.13-20.51
	c0,0-4.9-6.96-8.03-8.92c-8-5.03-20.5-4.27-26.7-4.41c-24.75-0.54-38.2,3.29-38.2,3.29c12.79-6.18,22.64-16.32,27.27-34.91
	c0.9-3.62,1.72-9.37,1.72-9.37c0.1-6.82-0.13-11.2,0.03-19.14c0,0-0.01-20.33-0.01-27.89c0-8.69,0.01-27.35,0.01-37.12
	c0,0,5.92,15.47,16.28,28.33c8.06,10,19.92,16.53,30.89,17.97c1.89,0.25,4.21,0.52,5.39,0.55c12.68,0.27,22.5-3.24,30.63-9.08
	c3.19-2.29,5.98-4.88,8.48-7.66c5.76-6.39,10.34-14.48,13.4-20.32C637.44,227.51,638.94,223.66,638.94,223.66z"/>
<path class="st11" d="M638.57,216.96c-0.11,2.64-0.22,89.11,0,90.58c1.77,11.67,5.36,24.17,14.29,33.61
	c6.07,6.42,14.64,10.47,14.64,10.47c-10.43-2.4-30.04-3.58-41.92-3.27c-14.56,0.38-22.65,0.28-31.36,14.06
	c-3.15,4.99-6.71,19.87-6.71,19.87c-2.56,11.29-3.97,27.49-3.97,27.49s-1.08-19.93-3.18-27.58c0,0-3.94-16.45-7.13-20.51
	c0,0-4.9-6.96-8.03-8.92c-8-5.03-20.5-4.27-26.7-4.41c-24.75-0.54-38.2,3.29-38.2,3.29c12.79-6.18,22.65-16.32,27.27-34.91
	c0.9-3.62,1.72-9.37,1.72-9.37c0.1-6.82-0.13-11.2,0.03-19.14c0,0-0.01-20.33-0.01-27.89c0-12.07,0.01-43.36,0.01-43.36
	s29.64,46.42,51.22,46.1C602.31,262.74,638.57,216.96,638.57,216.96z"/>
<path class="st19" d="M628.59,243.43c-5.92,9.23-13.78,17.4-24.2,22.07c-5.79,2.61-12.4,4.13-19.9,4.13c-7.5,0-14.11-1.52-19.9-4.13
	c-10.44-4.67-18.32-12.86-24.22-22.11c0-0.02,0-0.02,0-0.02c-14.19-22.24-17.07-42.21-17.07-42.21s-15.74,3.77-21.93-26.78
	c-6.29-31.05,13.82-29.22,13.82-29.22s-6.46-19.67,0.29-50.03c6.75-30.37,36.24-50.73,69.01-50.73c32.74,0,62.25,20.36,69.01,50.73
	c6.73,30.37,0.27,50.03,0.27,50.03s20.13-1.83,13.84,29.22c-6.19,30.55-21.93,26.78-21.93,26.78S642.8,221.19,628.59,243.43z"/>
<path class="st20" d="M647.37,47.75c-15.3-19.57-39.62-15.06-39.62-15.06s-15.81-8.57-31.01-8.38
	c-20.39,0.26-43.02,12.52-55.23,23.44c-8.79,7.86-16.84,27.14-16.84,41.24c0,20.63,3.34,44.14,9.78,56.41
	c-1.25-27.31,5.97-31.25,6.43-40.04c0.38-7.27-1.27-15.28,2.11-22.02c5.77-11.49,21.88-7.77,31.29-5.2
	c15.22,4.16,28.94,5.65,44.68,3.88c12.59-1.42,32.11-13.13,43.84-2.7c6.19,5.51,5.14,15.13,5.1,22.77
	c-0.01,1.09-0.02,2.18,0.04,3.27c0.46,8.78,7.53,10.48,6.43,40.04c6.44-12.27,9.78-35.78,9.78-56.41
	C664.17,74.9,654.71,57.14,647.37,47.75z"/>
<g>
	<path class="st0" d="M-417.98,1552.6c19.97,21.11,45.5,61.85,47.95,78.05c2.45,16.2-11.82,34.36-27.75,41.72
		c-15.94,7.36-30.94,0.98-39.88-3.93c-8.94-4.91-21.19-13.25-24.64-45.16c-3.45-31.91-3.94-36.32-14.74-45.16
		c-10.8-8.84-13.28-22.09-2.47-40.25C-468.68,1519.72-429.11,1520.7-417.98,1552.6z"/>
	<path class="st0" d="M-395.29,1197.22c0,0,29.69,85.41,13,151.67c-16.69,66.27-46.14,129.1-47.61,151.68s11.93,52.03,11.93,52.03
		s-13.92-39.27-61.52-14.73l-2.93-17.69l52.61-292.04L-395.29,1197.22z"/>
	<path class="st0" d="M-475.21,1215.37c0,0-19,62.85-14.09,98.19c4.91,35.34,17.38,127.79,14.09,146.6
		c-1.41,8.08-18.28,29.64-12.75,44.83c2.93,8.06,8.46,32.89,8.46,32.89s9.93-7.07,22.89-7.21c12.96-0.14,22.01-217.11,9.41-275.03
		C-466.34,1167.65-475.21,1215.37-475.21,1215.37z"/>
	<path class="st0" d="M-380.15,1107.13c-6.86,20.46-8.53,94.02-27.18,121.02c0,0-18.16-50.56,0-87.37
		S-380.15,1107.13-380.15,1107.13z"/>
	<path class="st0" d="M-497.67,1136.15c0,0-1.12,35.38,9.68,59.6c10.8,24.22,35.01,38.94,35.01,38.94s14.09-55.96-9.32-83.45
		C-485.7,1123.76-497.67,1136.15-497.67,1136.15z"/>
	<path class="st2" d="M-459.81,1213.23c0,0-12.55,13.28-9.9,36.19c2.65,22.91,18.03,86.98,17.8,129.91
		c-0.58,104.72-10.39,151.92-10.39,151.92s10.39-1.41,18.64-0.72c6.22-12.76,13.75-139.91,19.64-187.03
		c5.89-47.12,0.38-77.06,8.62-88.52c8.24-11.45,14.18-42.83,1.72-53.49C-426.14,1190.84-459.81,1213.23-459.81,1213.23z"/>
	<path class="st2" d="M-407.36,1163.72c3.38,20.31-6.22,50.85-12.76,68.36c-5.05,13.52-28.65,13.08-32.86,2.62
		c-5.96-14.83-10.83-30.45-8.85-59.08c1.98-28.62,12.33-63.3,33.72-63.31C-406.72,1112.29-410.74,1143.4-407.36,1163.72z"/>
</g>
<g>
	<path class="st0" d="M-659.14,1552.6c-19.97,21.11-45.5,61.85-47.95,78.05c-2.45,16.2,11.82,34.36,27.75,41.72
		c15.94,7.36,30.94,0.98,39.88-3.93c8.94-4.91,21.19-13.25,24.64-45.16c3.45-31.91,3.94-36.32,14.74-45.16
		c10.8-8.84,13.28-22.09,2.47-40.25C-608.43,1519.72-648,1520.7-659.14,1552.6z"/>
	<path class="st0" d="M-681.82,1197.22c0,0-29.69,85.41-13,151.67c16.69,66.27,46.14,129.1,47.61,151.68
		c1.47,22.58-11.93,52.03-11.93,52.03s13.92-39.27,61.52-14.73l2.93-17.69l-52.61-292.04L-681.82,1197.22z"/>
	<path class="st0" d="M-601.91,1215.37c0,0,19,62.85,14.09,98.19c-4.91,35.34-17.38,127.79-14.09,146.6
		c1.41,8.08,18.28,29.64,12.75,44.83c-2.93,8.06-8.46,32.89-8.46,32.89s-9.93-7.07-22.89-7.21c-12.96-0.14-22.01-217.11-9.41-275.03
		C-610.78,1167.65-601.91,1215.37-601.91,1215.37z"/>
	<path class="st0" d="M-696.97,1107.13c6.86,20.46,8.53,94.02,27.18,121.02c0,0,18.16-50.56,0-87.37
		C-687.95,1103.96-696.97,1107.13-696.97,1107.13z"/>
	<path class="st0" d="M-579.45,1136.15c0,0,1.12,35.38-9.68,59.6c-10.8,24.22-35.01,38.94-35.01,38.94s-14.09-55.96,9.32-83.45
		C-591.42,1123.76-579.45,1136.15-579.45,1136.15z"/>
	<path class="st2" d="M-617.31,1213.23c0,0,12.55,13.28,9.9,36.19c-2.65,22.91-18.03,86.98-17.8,129.91
		c0.58,104.72,10.39,151.92,10.39,151.92s-10.39-1.41-18.64-0.72c-6.22-12.76-13.75-139.91-19.64-187.03
		c-5.89-47.12-0.38-77.06-8.62-88.52s-14.18-42.83-1.72-53.49S-617.31,1213.23-617.31,1213.23z"/>
	<path class="st2" d="M-669.76,1163.72c-3.38,20.31,6.22,50.85,12.76,68.36c5.05,13.52,28.65,13.08,32.86,2.62
		c5.96-14.83,10.83-30.45,8.85-59.08c-1.98-28.62-12.33-63.3-33.72-63.31C-670.4,1112.29-666.38,1143.4-669.76,1163.72z"/>
</g>
<path class="st0" d="M-406.68,713.59c0,0,17.54,11.26,15.57,35.48c-1.96,24.22-2.95,54.49-2.45,66.27
	c0.49,11.78-34.46-59.96-34.46-59.96S-425.2,720.82-406.68,713.59z"/>
<path class="st0" d="M-671.52,713.59c0,0-17.54,11.26-15.57,35.48c1.96,24.22,2.95,54.49,2.45,66.27
	c-0.49,11.78,34.46-59.96,34.46-59.96S-653,720.82-671.52,713.59z"/>
<g>
	<g>
		<path class="st0" d="M-533.37,876.96c0,0,1.88,70.41,12.19,110.17c10.31,39.76,18.43,83.01,18.47,100.63
			c0.05,17.62,122.52-248.58,54.72-305.91S-533.37,876.96-533.37,876.96z"/>
		<path class="st0" d="M-422.77,748.24c0,0,65.25,76.42,56.48,198.16l-71.84-181.28L-422.77,748.24z"/>
		<path class="st0" d="M-374.09,917.27c0,0,29.81,83.12,8.61,143.99c-21.21,60.87-30.34,93.26-36.33,101.12
			c-5.99,7.85-23.66-8.34-18.26-40.25C-414.67,1090.22-374.09,917.27-374.09,917.27z"/>
		<path class="st2" d="M-428.02,755.37c12.66,83.37,58.78,96.78,54.33,183.66c-4.45,86.88-43.42,167.88-46.37,183.09
			c-2.95,15.21-15.24,14.4-18.07,3.44c-3.04-11.78-40.83-155.11-20.22-230.21c20.62-75.1,10.37-113.49,10.37-113.49
			S-441,752.13-428.02,755.37z"/>
		<path class="st2" d="M-440.89,1114.69c6.1,25.59-0.39,56.52-15.31,60.45c-14.92,3.93-49.28-11.29-46.33-82.46
			c2.95-71.17,32.52-160.44,42.77-191.64C-449.52,869.82-440.89,1114.69-440.89,1114.69z"/>
	</g>
	<g>
		<path class="st0" d="M-544.83,876.96c0,0-1.88,70.41-12.19,110.17c-10.31,39.76-18.42,83.01-18.47,100.63
			c-0.05,17.62-122.52-248.58-54.72-305.91C-562.42,724.53-544.83,876.96-544.83,876.96z"/>
		<path class="st0" d="M-655.43,748.24c0,0-65.25,76.42-56.48,198.16l71.84-181.28L-655.43,748.24z"/>
		<path class="st0" d="M-704.11,917.27c0,0-29.81,83.12-8.61,143.99c21.21,60.87,30.34,93.26,36.33,101.12s23.66-8.34,18.26-40.25
			C-663.53,1090.22-704.11,917.27-704.11,917.27z"/>
		<path class="st2" d="M-650.18,755.37c-12.66,83.37-58.78,96.78-54.33,183.66s43.42,167.88,46.37,183.09
			c2.95,15.21,15.24,14.4,18.07,3.44c3.04-11.78,40.83-155.11,20.22-230.21c-20.62-75.1-10.37-113.49-10.37-113.49
			S-637.2,752.13-650.18,755.37z"/>
		<path class="st2" d="M-637.31,1114.69c-6.1,25.59,0.39,56.52,15.31,60.45c14.92,3.93,49.28-11.29,46.33-82.46
			c-2.95-71.17-32.52-160.44-42.77-191.64C-628.68,869.82-637.31,1114.69-637.31,1114.69z"/>
	</g>
</g>
<path class="st0" d="M-595.24,237.28c0,13.59-76.18,49.22-116.7,90.06c0,0-3.21,34.28-3.21,125.77c0,91.49,29.5,110.91,38.82,130.05
	c9.33,19.14,13.82,36.81,10.1,49.09c-3.72,12.27-22.86,70,10.76,115.99c33.62,45.99,83.75,108.49,95.25,119.29
	S-539.12,878-539.12,878s9.59,0.33,21.09-10.47s61.63-73.3,95.25-119.29c33.62-45.99,14.48-103.72,10.76-115.99
	c-3.72-12.27,0.78-29.94,10.1-49.09c9.33-19.14,38.82-38.56,38.82-130.05c0-91.49-3.21-125.77-3.21-125.77
	C-406.82,286.5-483,250.88-483,237.28H-595.24z"/>
<g>
	<path class="st21" d="M-539.18,413.96l-100.96,79.35c-30.2,16.94-49.01,62.2-34.26,94.04l4.06,9.82
		c8.04,17.4,37.16,46.2,60.39,53.07c0,0,25.06-29.29,70.8-29.29s70.8,29.29,70.8,29.29c23.23-6.87,52.36-35.67,60.39-53.07
		l4.06-9.82c14.75-31.85-4.06-77.11-34.26-94.04l-100.96-79.35H-539.18z"/>
</g>
<path class="st0" d="M-479.14,191.63c0,1.61-4.48,55.28-5.73,63.56c-6.38,42.29-33.26,58.25-54.26,80.53
	c18.39-33.22,19.17-98.44,19.17-98.44C-509.91,232.79-484.84,200.53-479.14,191.63z"/>
<path class="st0" d="M-599.11,191.63c0,1.61,4.48,55.28,5.73,63.56c6.38,42.29,33.26,58.25,54.26,80.53
	c-18.39-33.22-19.17-98.44-19.17-98.44C-568.33,232.79-593.4,200.53-599.11,191.63z"/>
<path class="st0" d="M-519.95,237.28c0,0-0.78,65.22-19.17,98.44c-18.37-33.22-19.17-98.44-19.17-98.44
	c5.58,2.51,11.94,3.97,19.17,3.97C-531.89,241.26-525.53,239.79-519.95,237.28z"/>
<g>
	<path class="st22" d="M-472.83,484.35c0,0,20.78,6.66,20.75,6.65c-24.59-5.62-43.28-18.09-50.93-22.7
		c-2.46-1.48-5.63-3.17-9.05-5.26c-0.05-0.03-0.12-0.07-0.17-0.1c-13.9-8.23-26.87,12.23-26.87,30.23c0,18,14.81,22.91,20.37,21.76
		c5.56-1.15,31.09,1.48,46.14,8.35c15.05,6.87,17.39,2.38,16.39-11.29C-457.2,498.32-465.96,485.7-472.83,484.35z"/>
	<path class="st22" d="M-466.65,525.76c-0.03-0.01-0.06-0.03-0.09-0.05c-1.68-0.61-3.59-1.41-5.85-2.44
		c-12.16-5.55-31.13-8.33-40.92-8.59c-8.5,0.29-25.59,6.31-25.59,24.62c0,18.33,5.32,40.25,9.24,46.47
		c3.93,6.22,12.76,6.22,25.85,2.29c13.09-3.93,32.4-7.2,42.87-4.91c10.47,2.29,14.07-11.78,9.16-32.07
		C-456.88,530.8-460.71,528.25-466.65,525.76z"/>
	<path class="st22" d="M-459.36,583.39c-0.57-0.02-1.16-0.09-1.77-0.23c-1.76-0.15-4.18-0.45-7.04-0.74
		c-10.74-0.25-25.3,2.49-35.83,5.64c-2.44,0.73-4.68,1.28-6.82,1.72c-0.03,0.02-0.06,0.04-0.09,0.06
		c-11.09,3.46-28.21,9.35-28.21,23.75c0,14.4,0.02,11.55,0.02,22.02c0,10.47,11.86,40.48,25.28,32.96
		c13.42-7.53,36.65-16.36,45.49-18.32c8.84-1.96,13.82-10.17,16.36-36C-449.6,590.18-451.47,584.71-459.36,583.39z"/>
	<path class="st22" d="M-468.34,650.24c-3.04,0.92-6.93,2.07-11.21,3.41c-10.71,3.75-24.88,9.64-34.27,14.91
		c-10.67,7.75-25.28,22.25-25.28,45.16c0,22.91,0,64.07,0,92.05c0,27.98,31.27,3.3,48.88-35.31c17.61-38.61,32.36-81.54,33.67-98.26
		C-455.25,655.48-457.22,646.86-468.34,650.24z"/>
	<path class="st22" d="M-605.37,484.35c0,0-20.78,6.66-20.75,6.65c24.59-5.62,43.28-18.09,50.93-22.7c2.46-1.48,5.63-3.17,9.05-5.26
		c0.05-0.03,0.12-0.07,0.17-0.1c13.9-8.23,26.87,12.23,26.87,30.23c0,18-14.81,22.91-20.37,21.76c-5.56-1.15-31.09,1.48-46.14,8.35
		c-15.05,6.87-17.39,2.38-16.39-11.29C-621,498.32-612.24,485.7-605.37,484.35z"/>
	<path class="st22" d="M-611.55,525.76c0.03-0.01,0.06-0.03,0.09-0.05c1.68-0.61,3.59-1.41,5.85-2.44
		c12.16-5.55,31.13-8.33,40.92-8.59c8.5,0.29,25.59,6.31,25.59,24.62c0,18.33-5.32,40.25-9.24,46.47
		c-3.93,6.22-12.76,6.22-25.85,2.29c-13.09-3.93-32.4-7.2-42.87-4.91c-10.47,2.29-14.07-11.78-9.16-32.07
		C-621.32,530.8-617.49,528.25-611.55,525.76z"/>
	<path class="st22" d="M-618.84,583.39c0.57-0.02,1.16-0.09,1.77-0.23c1.76-0.15,4.18-0.45,7.04-0.74
		c10.74-0.25,25.3,2.49,35.83,5.64c2.44,0.73,4.68,1.28,6.82,1.72c0.03,0.02,0.06,0.04,0.09,0.06c11.09,3.46,28.21,9.35,28.21,23.75
		c0,14.4-0.02,11.55-0.02,22.02c0,10.47-11.86,40.48-25.28,32.96c-13.42-7.53-36.65-16.36-45.49-18.32
		c-8.84-1.96-13.82-10.17-16.36-36C-628.6,590.18-626.73,584.71-618.84,583.39z"/>
	<path class="st22" d="M-609.87,650.24c3.04,0.92,6.93,2.07,11.21,3.41c10.71,3.75,24.88,9.64,34.27,14.91
		c10.67,7.75,25.28,22.25,25.28,45.16c0,22.91,0,64.07,0,92.05c0,27.98-31.27,3.3-48.88-35.31c-17.61-38.61-32.36-81.54-33.67-98.26
		C-622.95,655.48-620.98,646.86-609.87,650.24z"/>
</g>
<path class="st0" d="M-494.48,225.8c-5.99,9.35-13.95,17.62-24.5,22.34c-5.87,2.64-12.55,4.18-20.15,4.18s-14.28-1.54-20.15-4.18
	c-10.57-4.73-18.55-13.02-24.52-22.39c0-0.02,0-0.02,0-0.02c-14.37-22.51-17.28-42.73-17.28-42.73s-15.93,3.82-22.2-27.11
	c-6.37-31.44,13.99-29.58,13.99-29.58s-6.54-19.91,0.3-50.65c6.84-30.74,36.69-51.35,69.86-51.35c33.15,0,63.02,20.61,69.86,51.35
	c6.81,30.74,0.27,50.65,0.27,50.65s20.38-1.86,14.01,29.58c-6.27,30.93-22.2,27.11-22.2,27.11S-480.09,203.29-494.48,225.8z"/>
<g>
	<path class="st2" d="M-421.45,348.25c-7.45-4.67-15.49-8.07-24.14-9.53c-57.82-9.82-72.43-2.99-82.62,9.16
		c-10.18,12.15-10.89,28.56-10.89,66.08c0,37.52,25.04,47.68,36.09,54.34c11.04,6.65,44.98,29.67,86.55,24.87
		c41.57-4.8,48.96-37.48,60.11-49.83c0,0,0-0.01,0-0.01C-394.68,416.5-416.15,362.87-421.45,348.25z"/>
	<path class="st2" d="M-659.12,348.25c7.45-4.67,17.86-8.07,26.51-9.53c57.82-9.82,72.43-2.99,82.62,9.16
		c10.18,12.15,10.89,28.56,10.89,66.08c0,37.52-25.04,47.68-36.09,54.34c-11.04,6.65-44.98,29.67-86.55,24.87
		c-41.57-4.8-49.79-39.62-60.94-51.97c0,0,0,0,0,0C-684.35,414.37-664.42,362.87-659.12,348.25z"/>
</g>
<g>
	<g>
		<path class="st0" d="M-750.28,583.04c20.26-28.28,49.84-63.93,50.45-119.57c0.68-61.69-47.18-65.79-53.03-2.87
			c-3.36,36.1-49.91,92.41-48.16,115.67C-799.71,593.55-770.54,611.32-750.28,583.04z"/>
		<path class="st0" d="M-815.89,643.73c-4.51-41.11,17.79-48.71,65.61-60.69l0.01,0c0,0,7.23,73.54-24.57,85.85
			c-14.39,5.57-24.67,9.16-32.28,12.51c-4.61-3.77-5.47-4.48-10.08-8.25C-813.75,656.89-815.89,643.73-815.89,643.73z"/>
		<path class="st0" d="M-832.99,707.23c2.73-4.07,5.14-7.95,7.29-11.64c0.01-0.02,0.02-0.03,0.04-0.05
			c7.32-11.69,19.03-14.35,50.83-26.66c5.81-2.25,10.68-6.36,14.77-11.57l0,0c0,0-4.09,41-29.33,61.56
			c-22.65,18.45-59.58,83.59-69.7,107.14c-1.39,3.24-4.85,4.98-8.31,4.31c-0.06-0.01-0.12-0.02-0.18-0.04
			c-4.21-0.79-6.95-4.87-5.9-9.02C-867.54,797.83-850,732.57-832.99,707.23z"/>
		<path class="st2" d="M-812.34,565.11c-2.08-0.27-4.16,0.35-5.75,1.73c-9.73,8.49-44.58,41.41-54.16,84.98
			c-10.09,45.89-23.64,133.28-26.17,149.75c-0.29,1.88,0.18,3.77,1.28,5.33c3.32,4.72,11.41,14.3,23.17,15.79
			c3.88,0.49,7.47-2.17,8.13-6.03c3.37-19.68,15.29-83.28,32.85-109.44c20.91-31.14,18.5-68.3,18.5-68.3s25.67-43.24,10-70.03
			c-1.13-1.92-3.14-3.17-5.35-3.46L-812.34,565.11z"/>
		<g>
			<path class="st0" d="M-858.24,824.07c-1.76-18.85-32.17-19.83-39.16-19.81c-0.93,0-1.82,0.2-2.68,0.55
				c-17.65,7.28-38.66,9.84-52.32,21.93c-13.98,12.38-22.03,14.43-35.88,17.82c-13.86,3.37-9.79,18.76,7.95,18
				c17.76-0.76,27.07-3.87,38.58-7.41l0,0c0,0,0,0,0,0c-16.6,30.37-25.88,53.48-32.12,81.39c-1.58,18.2,30.07,17.93,42.86,13.02
				c24.33-8.33,44.66-50.43,56.15-62.67C-863.41,873.65-856.26,845.38-858.24,824.07z"/>
			<path class="st0" d="M-941.75,855.16c14.48-1.78,34.85,0.46,53.72-18.62"/>
		</g>
	</g>
	<g>
		<path class="st0" d="M-264.68,643.73c4.51-41.11-17.79-48.71-65.61-60.69l-0.01,0c0,0-7.23,73.54,24.57,85.85
			c14.39,5.57,24.67,9.16,32.28,12.51c4.61-3.77,5.47-4.48,10.08-8.25C-266.82,656.89-264.68,643.73-264.68,643.73z"/>
		<path class="st0" d="M-247.58,707.23c-2.73-4.07-5.14-7.95-7.29-11.64c-0.01-0.02-0.02-0.03-0.04-0.05
			c-7.32-11.69-19.03-14.35-50.83-26.66c-5.81-2.25-10.68-6.36-14.77-11.57l0,0c0,0,4.09,41,29.33,61.56
			c22.65,18.45,59.58,83.59,69.7,107.14c1.39,3.24,4.85,4.98,8.31,4.31c0.06-0.01,0.12-0.02,0.18-0.04c4.21-0.79,6.95-4.87,5.9-9.02
			C-213.03,797.83-230.57,732.57-247.58,707.23z"/>
		<path class="st0" d="M-330.29,583.04c-20.26-28.28-49.84-63.93-50.45-119.57c-0.68-61.69,47.18-65.79,53.03-2.87
			c3.36,36.1,49.91,92.41,48.16,115.67C-280.86,593.55-310.03,611.32-330.29,583.04z"/>
		<path class="st2" d="M-268.23,565.11c2.08-0.27,4.17,0.35,5.75,1.73c9.73,8.49,44.58,41.41,54.16,84.98
			c10.09,45.89,23.64,133.28,26.17,149.75c0.29,1.88-0.18,3.77-1.28,5.33c-3.32,4.72-11.41,14.3-23.17,15.79
			c-3.88,0.49-7.47-2.17-8.13-6.03c-3.37-19.68-15.29-83.28-32.85-109.44c-20.91-31.14-19.94-69.02-19.94-69.02
			s-24.23-42.52-8.56-69.31c1.13-1.92,3.13-3.17,5.35-3.46L-268.23,565.11z"/>
		<g>
			<path class="st0" d="M-222.33,824.07c1.76-18.85,32.17-19.83,39.16-19.81c0.93,0,1.82,0.2,2.68,0.55
				c17.65,7.28,38.66,9.84,52.32,21.93c13.98,12.38,22.03,14.43,35.88,17.82c13.86,3.37,9.79,18.76-7.95,18
				c-17.76-0.76-27.07-3.87-38.58-7.41l0,0c0,0,0,0,0,0c16.6,30.37,25.88,53.48,32.12,81.39c1.58,18.2-30.07,17.93-42.86,13.02
				c-24.33-8.33-44.66-50.43-56.15-62.67C-217.17,873.65-224.32,845.38-222.33,824.07z"/>
			<path class="st0" d="M-138.82,855.16c-14.48-1.78-34.85,0.46-53.72-18.62"/>
		</g>
	</g>
	<path class="st2" d="M-290.91,467.6c-1.07,4.2-5.51,6.57-9.6,5.14c-28.91-10.09-35.36-18.87-46.12-24.54
		c-43.5-22.91-68.18-82.04-74.83-99.95c-1.18-3.17-0.05-6.73,2.77-8.6c9.26-6.18,31.6-18.19,59.23-12.66
		C-323.66,334.14-260.31,347.08-290.91,467.6z"/>
	<path class="st2" d="M-325.99,456.52c-4.15-1.51-8.67,1.02-9.64,5.33c-2.89,12.85-6.33,41.89,4.48,89.01
		c11.29,49.25,42.5,76.58,57.8,87.38c4.22,2.98,10.11,0.83,11.35-4.19C-253.68,600.6-233.95,490.09-325.99,456.52z"/>
	<path class="st2" d="M-789.66,467.6c1.07,4.2,5.51,6.57,9.6,5.14c28.91-10.09,35.36-18.87,46.12-24.54
		c43.5-22.91,68.18-82.04,74.83-99.95c1.18-3.17,0.05-6.73-2.77-8.6c-9.26-6.18-31.6-18.19-59.23-12.66
		C-756.91,334.14-820.26,347.08-789.66,467.6z"/>
	<path class="st2" d="M-754.58,456.52c4.15-1.51,8.67,1.02,9.64,5.33c2.89,12.85,6.33,41.89-4.48,89.01
		c-11.29,49.25-42.5,76.58-57.8,87.38c-4.22,2.98-10.11,0.83-11.35-4.19C-826.9,600.6-846.62,490.09-754.58,456.52z"/>
</g>
</svg>
